<?xml version="1.0" encoding="iso-8859-1"?>
<!-- Generator: Adobe Illustrator 19.0.0, SVG Export Plug-In . SVG Version: 6.00 Build 0)  -->
<svg version="1.1" id="Capa_1" xmlns="http://www.w3.org/2000/svg" xmlns:xlink="http://www.w3.org/1999/xlink" x="0px" y="0px"
	 viewBox="0 0 67.774 67.774" style="enable-background:new 0 0 67.774 67.774;" xml:space="preserve">
<g>
	<path d="M47.854,35.408c3.995-3.739,6.51-9.041,6.51-14.932C54.364,9.186,45.178,0,33.888,0S13.412,9.186,13.412,20.476
		c0,5.891,2.515,11.192,6.509,14.932C13.759,40.709,5.387,47.984,5.387,64.774v3h56.999v-3
		C62.387,47.985,54.016,40.709,47.854,35.408z M19.412,20.477c0-7.982,6.494-14.476,14.476-14.476
		c7.981,0,14.476,6.494,14.476,14.476S41.87,34.954,33.888,34.954C25.906,34.953,19.412,28.459,19.412,20.477z M11.494,61.774
		c0.875-11.957,6.985-17.213,12.424-21.891c0.158-0.137,0.315-0.271,0.472-0.406c2.979,1.277,6.223,1.959,9.521,1.984
		c3.259-0.025,6.495-0.707,9.474-1.984c0.155,0.135,0.313,0.27,0.472,0.406c5.438,4.678,11.549,9.934,12.424,21.891H11.494z"/>
</g>
<g>
</g>
<g>
</g>
<g>
</g>
<g>
</g>
<g>
</g>
<g>
</g>
<g>
</g>
<g>
</g>
<g>
</g>
<g>
</g>
<g>
</g>
<g>
</g>
<g>
</g>
<g>
</g>
<g>
</g>
</svg>
