<?xml version="1.0" encoding="iso-8859-1"?>
<!-- Generator: Adobe Illustrator 18.0.0, SVG Export Plug-In . SVG Version: 6.00 Build 0)  -->
<!DOCTYPE svg PUBLIC "-//W3C//DTD SVG 1.1//EN" "http://www.w3.org/Graphics/SVG/1.1/DTD/svg11.dtd">
<svg version="1.1" id="Capa_1" xmlns="http://www.w3.org/2000/svg" xmlns:xlink="http://www.w3.org/1999/xlink" x="0px" y="0px"
	 viewBox="0 0 208.955 208.955" style="enable-background:new 0 0 208.955 208.955;" xml:space="preserve">
<path d="M190.85,200.227L178.135,58.626c-0.347-3.867-3.588-6.829-7.47-6.829h-26.221V39.971c0-22.04-17.93-39.971-39.969-39.971
	C82.437,0,64.509,17.931,64.509,39.971v11.826H38.27c-3.882,0-7.123,2.962-7.47,6.829L18.035,200.784
	c-0.188,2.098,0.514,4.177,1.935,5.731s3.43,2.439,5.535,2.439h157.926c0.006,0,0.014,0,0.02,0c4.143,0,7.5-3.358,7.5-7.5
	C190.95,201.037,190.916,200.626,190.85,200.227z M79.509,39.971c0-13.769,11.2-24.971,24.967-24.971
	c13.768,0,24.969,11.202,24.969,24.971v11.826H79.509V39.971z M33.709,193.955L45.127,66.797h19.382v13.412
	c0,4.142,3.357,7.5,7.5,7.5c4.143,0,7.5-3.358,7.5-7.5V66.797h49.936v13.412c0,4.142,3.357,7.5,7.5,7.5c4.143,0,7.5-3.358,7.5-7.5
	V66.797h19.364l11.418,127.158H33.709z"/>
<g>
</g>
<g>
</g>
<g>
</g>
<g>
</g>
<g>
</g>
<g>
</g>
<g>
</g>
<g>
</g>
<g>
</g>
<g>
</g>
<g>
</g>
<g>
</g>
<g>
</g>
<g>
</g>
<g>
</g>
</svg>
