<svg width="72" height="60" viewBox="0 0 72 60" xmlns="http://www.w3.org/2000/svg" xmlns:xlink="http://www.w3.org/1999/xlink"><title>Bag</title><defs><path d="M35 20c6.627 0 12-4.477 12-10S43.627 0 35 0c-8.627 0-12 4.477-12 10s5.373 10 12 10z" id="a"/><mask id="b" x="0" y="0" width="24" height="20" fill="#fff"><use xlink:href="#a"/></mask><path d="M0 26C0 20.668 2.67 9.846 2.67 9.846c.735-3.229 3.981-6.287 7.246-6.812C9.916 3.034 27.331 0 36 0c8.67 0 26.1 3.037 26.1 3.037 3.258.532 6.508 3.574 7.232 6.821 0 0 2.668 10.81 2.668 16.142 0 5.332-2.67 16.154-2.67 16.154-.735 3.229-3.981 6.287-7.246 6.812 0 0-17.415 3.034-26.084 3.034-8.67 0-26.1-3.037-26.1-3.037-3.258-.532-6.508-3.574-7.232-6.821C2.668 42.142 0 31.332 0 26z" id="c"/><path d="M.25 30.001c-.155 1.29-.25 2.492-.25 3.5 0 5.332 2.668 16.141 2.668 16.141.724 3.248 3.974 6.29 7.232 6.822 0 0 17.43 3.036 26.1 3.036 8.67 0 26.084-3.034 26.084-3.034 3.265-.524 6.511-3.583 7.245-6.811 0 0 2.671-10.822 2.671-16.155 0-1.007-.095-2.21-.25-3.5-.664 5.535-2.42 12.655-2.42 12.655-.735 3.228-3.981 6.287-7.246 6.811 0 0-17.415 3.034-26.084 3.034-8.67 0-26.1-3.036-26.1-3.036-3.258-.532-6.508-3.574-7.232-6.822 0 0-1.755-7.11-2.418-12.641z" id="e"/></defs><g fill="none" fill-rule="evenodd"><use stroke="#785037" mask="url(#b)" stroke-width="6" xlink:href="#a"/><g transform="translate(0 7)"><mask id="d" fill="#fff"><use xlink:href="#c"/></mask><use fill="#E59768" xlink:href="#c"/><path fill="#CA7C4D" mask="url(#d)" d="M13 0h7v57h-7zm39 0h7v57h-7z"/></g><mask id="f" fill="#fff"><use xlink:href="#e"/></mask><use fill="#E1854E" xlink:href="#e"/><path fill="#CA7C4D" mask="url(#f)" transform="rotate(-13 17.5 54)" d="M14 49h7v10h-7z"/><path fill="#CA7C4D" mask="url(#f)" transform="scale(-1 1) rotate(-13 0 532.34)" d="M51 49h7v10h-7z"/><rect fill="#FEFEFE" x="29" y="14" width="16" height="9" rx="2"/></g></svg>