<svg width="79" height="62" viewBox="0 0 79 62" xmlns="http://www.w3.org/2000/svg" xmlns:xlink="http://www.w3.org/1999/xlink"><title>Parasol</title><defs><path d="M71 29.698C71 13.296 55.106 0 35.5 0S0 13.296 0 29.698c0 16.403 71 16.403 71 0z" id="a"/></defs><g transform="translate(-9 -11)" fill="none" fill-rule="evenodd"><rect fill="#785037" transform="rotate(-22 51.056 58.726)" x="49.556" y="45.726" width="3" height="26" rx="1.5"/><g transform="rotate(-22 70.867 13.35)"><mask id="b" fill="#fff"><use xlink:href="#a"/></mask><use fill="#FF7166" xlink:href="#a"/><path d="M37.003 23.45c2.51-11.005 13-28.5 13-28.5s2.084 22.235 4.497 32.817c1.92 8.418 8.503 24.184 8.503 24.184h-26s-1.823-20.506 0-28.5z" fill="#EDEDED" mask="url(#b)" transform="scale(-1 1) rotate(30 0 -161.651)"/><path d="M9.003 23.45c2.51-11.005 13-28.5 13-28.5s2.084 22.235 4.497 32.817c1.92 8.418 8.503 24.184 8.503 24.184h-26s-1.823-20.506 0-28.5z" fill="#EDEDED" mask="url(#b)" transform="rotate(30 21.598 23.45)"/></g><rect fill="#FEE8C1" x="22" y="70" width="66" height="3" rx="1.5"/></g></svg>