<svg width="60" height="58" viewBox="0 0 60 58" xmlns="http://www.w3.org/2000/svg" xmlns:xlink="http://www.w3.org/1999/xlink"><title>Watermelon</title><defs><path d="M18.035 3.794c2.466-4.944 6.462-4.95 8.93 0L45 39.946S44.196 48 22.5 48 0 39.946 0 39.946L18.035 3.794z" id="a"/><path d="M18.035 3.794c2.466-4.944 6.462-4.95 8.93 0L45 39.946S44.196 48 22.5 48 0 39.946 0 39.946L18.035 3.794z" id="c"/></defs><g fill="none" fill-rule="evenodd"><mask id="b" fill="#fff"><use xlink:href="#a"/></mask><use fill="#52DE9D" xlink:href="#a"/><ellipse fill="#57EAA6" mask="url(#b)" cx="33" cy="44" rx="23" ry="11"/><ellipse fill="#FF7166" mask="url(#b)" cx="22.5" cy="11.5" rx="31.5" ry="31.5"/><ellipse fill="#FF867D" mask="url(#b)" cx="39.5" cy="15" rx="22.5" ry="21"/><ellipse fill="#4D392D" cx="19.5" cy="21.5" rx="1.5" ry="1.5"/><ellipse fill="#4D392D" cx="27.5" cy="28.5" rx="1.5" ry="1.5"/><ellipse fill="#4D392D" cx="17.5" cy="34.5" rx="1.5" ry="1.5"/><ellipse fill="#4D392D" cx="23.5" cy="10.5" rx="1.5" ry="1.5"/><g transform="translate(15 10)"><mask id="d" fill="#fff"><use xlink:href="#c"/></mask><use fill="#52DE9D" xlink:href="#c"/><ellipse fill="#57EAA6" mask="url(#d)" cx="33" cy="44" rx="23" ry="11"/><ellipse fill="#FF7166" mask="url(#d)" cx="22.5" cy="11.5" rx="31.5" ry="31.5"/><ellipse fill="#FF867D" mask="url(#d)" cx="39.5" cy="15" rx="22.5" ry="21"/><ellipse fill="#4D392D" cx="19.5" cy="21.5" rx="1.5" ry="1.5"/><ellipse fill="#4D392D" cx="27.5" cy="28.5" rx="1.5" ry="1.5"/><ellipse fill="#4D392D" cx="17.5" cy="34.5" rx="1.5" ry="1.5"/><ellipse fill="#4D392D" cx="23.5" cy="10.5" rx="1.5" ry="1.5"/></g></g></svg>