<svg width="73" height="47" viewBox="0 0 73 47" xmlns="http://www.w3.org/2000/svg" xmlns:xlink="http://www.w3.org/1999/xlink"><title>Wave and Star</title><defs><path d="M19 28l-4.978 2.617c-2.445 1.285-4.048.12-3.581-2.602l.95-5.543-4.026-3.925C5.387 16.619 6 14.734 8.733 14.337l5.565-.81 2.489-5.042c1.222-2.477 3.204-2.476 4.426 0l2.49 5.043 5.564.809c2.734.397 3.346 2.282 1.368 4.21l-4.027 3.925.951 5.543c.467 2.722-1.137 3.887-3.581 2.602L19 28z" id="a"/><filter x="-50%" y="-50%" width="200%" height="200%" filterUnits="objectBoundingBox" id="b"><feOffset dx="-1" in="SourceAlpha" result="shadowOffsetInner1"/><feComposite in="shadowOffsetInner1" in2="SourceAlpha" operator="arithmetic" k2="-1" k3="1" result="shadowInnerInner1"/><feColorMatrix values="0 0 0 0 1 0 0 0 0 0.641725093 0 0 0 0 0.615076547 0 0 0 1 0" in="shadowInnerInner1"/></filter></defs><g fill="none" fill-rule="evenodd"><path d="M33.01 33.184c10.913 3.636 28.186.14 28.186.14S38.362 17.495 72 10.597c0 0-17.866-25.637-49.905 6.897C15.214 24.481 9.98 30.686 6 33.05c0 0 16.095-3.5 27.01.135z" fill="#6BC9F1"/><path d="M61.002 32.544c.765-.132 1.194-.22 1.194-.22s-3.81-2.641-6.025-6.237c.998 2.625 3.165 4.951 4.83 6.457zM72.407 9.719L73 9.596s-17.866-25.637-49.905 6.897C16.214 23.481 10.98 29.686 7 32.05c0 0 1.796-.39 4.595-.775 3.403-3.078 7.52-7.724 12.5-12.78C50.578-8.399 67.376 4.452 72.407 9.718z" fill="#8DDDFF"/><path d="M6 32.517s16.095-3.501 27.01.134c10.913 3.636 28.186.141 28.186.141" stroke="#5BBBE3" stroke-width="2" stroke-linecap="round" stroke-linejoin="round"/><g transform="translate(-6 14)"><g transform="rotate(-17 19 18.472)"><use fill="#FF7166" xlink:href="#a"/><use fill="#000" filter="url(#b)" xlink:href="#a"/></g><circle fill="#EB564B" opacity=".275" cx="19" cy="20" r="4"/></g></g></svg>