<svg width="61" height="60" viewBox="0 0 61 60" xmlns="http://www.w3.org/2000/svg" xmlns:xlink="http://www.w3.org/1999/xlink"><title>Camera</title><defs><circle id="a" cx="27.5" cy="26.5" r="13.5"/><mask id="b" x="0" y="0" width="27" height="27" fill="#fff"><use xlink:href="#a"/></mask></defs><g transform="rotate(-26 40.994 21.003)" fill="none" fill-rule="evenodd"><rect fill="#45C9CA" x="31" width="16" height="13" rx="3"/><path d="M0 14.006C0 9.584 3.58 6 7.992 6h37.016C49.422 6 53 9.581 53 14.006v20.988c0 4.422-3.547 8.513-7.928 9.112 0 0-12.403 1.894-18.572 1.894-6.17 0-18.587-1.896-18.587-1.896C3.543 43.494 0 39.42 0 34.994V14.006z" fill="#52DDDE"/><use stroke="#F3F3F3" mask="url(#b)" stroke-width="4" fill="#35BBBC" xlink:href="#a"/><circle fill="#4C392D" cx="27.5" cy="26.5" r="6.5"/><ellipse fill="#F2F2F2" cx="27.5" cy="21.5" rx="4.5" ry="2.5"/><ellipse fill="#F2F2F2" opacity=".877" cx="25" cy="31" rx="3" ry="2"/><rect fill="#FFF" x="4" y="13" width="9" height="7" rx="3.5"/><path d="M53 25v12.994c0 4.422-3.547 8.513-7.928 9.112 0 0-12.403 1.894-18.572 1.894-6.17 0-18.587-1.896-18.587-1.896C3.543 46.494 0 42.42 0 37.994V25v7.994c0 4.425 3.543 8.5 7.913 9.11 0 0 12.418 1.896 18.587 1.896 6.17 0 18.572-1.894 18.572-1.894 4.38-.599 7.928-4.69 7.928-9.112V25z" fill="#49CCCD"/></g></svg>