<svg width="248" height="153" viewBox="0 0 248 153" xmlns="http://www.w3.org/2000/svg" xmlns:xlink="http://www.w3.org/1999/xlink"><title>Header App</title><defs><path id="a" d="M0 0h75v123H0z"/><mask id="d" x="0" y="0" width="75" height="123" fill="#fff"><use xlink:href="#a"/></mask><path id="b" d="M7 16h60v107H7z"/><mask id="e" x="0" y="0" width="60" height="107" fill="#fff"><use xlink:href="#b"/></mask><path d="M6.92 6.003L4.659 3.176 0 9h18L11.33.157 6.92 6.003zM6.718 2.45c.935 0 1.694-.773 1.694-1.726C8.412-.227 7.653-1 6.718-1 5.782-1 5.024-.227 5.024.725c0 .953.758 1.726 1.694 1.726z" id="c"/><mask id="f" x="0" y="0" width="18" height="8.843" fill="#fff"><use xlink:href="#c"/></mask></defs><g fill="none" fill-rule="evenodd"><path fill="#4665FF" opacity=".76" d="M0 0h248v153H0z"/><g transform="translate(153 30)"><use stroke="#484848" mask="url(#d)" stroke-width="4" fill="#FFF" xlink:href="#a"/><rect fill="#484848" x="30" y="8" width="14" height="3" rx="1.5"/><use stroke="#484848" mask="url(#e)" stroke-width="4" fill="#57E623" opacity=".401" xlink:href="#b"/></g><g transform="translate(20 57)" fill="#FFF"><rect width="102" height="7" rx="2"/><rect y="12" width="91" height="7" rx="2"/><rect y="24" width="76" height="7" rx="2"/><rect y="36" width="61" height="7" rx="2"/></g><rect fill="#FFF" x="14" y="10" width="30" height="7" rx="2"/><rect fill="#FFF" x="191" y="10" width="18" height="7" rx="2"/><rect fill="#FFF" x="216" y="10" width="18" height="7" rx="2"/><rect fill="#FFF" x="165" y="10" width="18" height="7" rx="2"/><use mask="url(#f)" xlink:href="#c" transform="translate(180 95)" stroke="#555" stroke-width=".8" fill="#EAE6D5"/><path d="M20 109h59v12H20z" fill="#7ED321"/></g></svg>