<svg width="16" height="16" viewBox="0 0 16 16" xmlns="http://www.w3.org/2000/svg"><title>tag icon</title><g fill="#FFF" fill-rule="evenodd" fill-opacity=".5"><path d="M5.261 1.677a.267.267 0 0 0-.187-.076h-4.8a.266.266 0 0 0-.266.266v4.534c0 .07.028.139.078.188l9.415 9.334a.27.27 0 0 0 .242.072.267.267 0 0 0 .194-.162l1.302-3.256 3.256-1.303a.266.266 0 0 0 .088-.438L5.26 1.676zm-1.96 3.97a1.01 1.01 0 1 1 0-2.019 1.01 1.01 0 0 1 0 2.019z"/><path d="M15.796 9.08L6.996.34a.267.267 0 0 0-.188-.08h-4.8a.266.266 0 1 0 0 .534h4.69l8.415 8.36-.598.198a.267.267 0 1 0 .168.506l1.01-.336a.267.267 0 0 0 .103-.442"/></g></svg>