<svg xmlns="http://www.w3.org/2000/svg" width="2500" height="2500" viewBox="0 0 192.756 192.756"><g fill-rule="evenodd" clip-rule="evenodd"><path d="M9.869 86.044l9.868 8.902h-2.225v6.188l7.202.006c1.15.068 2.232.283 3.051 1.15.757.898.925 2.094.776 3.23-.102.598-.284 1.084-.664 1.561-.902 1.004-2.236 1.178-3.519 1.201H9.869V86.044zm-1.365-3.069l14.784 13.337h-4.411v3.458h5.494c4.322 0 5.585 2.611 5.585 5.062 0 2.395-1.32 4.816-5.585 4.816H8.504V82.975z"/><path d="M38.071 109.648L23.287 96.312h4.41v-3.458h-5.493c-4.322 0-5.585-2.611-5.585-5.062 0-2.396 1.319-4.817 5.585-4.817h15.867v26.673zm8.678-26.634h11.979c2.372 0 4.144.087 5.309.268 1.165.174 2.205.542 3.125 1.102s1.682 1.301 2.295 2.234c.614.927.921 1.973.921 3.124 0 1.251-.376 2.402-1.13 3.448-.76 1.045-1.786 1.83-3.077 2.353 1.821.472 3.23 1.281 4.207 2.421.984 1.145 1.472 2.488 1.472 4.031 0 1.215-.314 2.396-.949 3.547a7.456 7.456 0 0 1-2.595 2.752c-1.095.684-2.449 1.107-4.06 1.27-1.005.092-3.44.154-7.298.18h-10.2v-26.73h.001zm6.056 4.449v6.18h3.962c2.358 0 3.823-.031 4.396-.093 1.033-.106 1.849-.423 2.442-.952s.886-1.226.886-2.091c0-.827-.251-1.5-.761-2.016-.516-.517-1.276-.828-2.281-.934-.6-.062-2.323-.094-5.17-.094h-3.474zm0 10.629v7.145H58.4c2.184 0 3.565-.049 4.151-.162.899-.143 1.632-.504 2.197-1.062.565-.566.852-1.326.852-2.271 0-.803-.224-1.482-.656-2.041-.439-.561-1.067-.971-1.891-1.227s-2.616-.381-5.365-.381h-4.883v-.001zm24.974 11.65V83.014h6.049v26.728h-6.049zm12.876 0V83.014h5.888l12.266 17.847V83.014h5.623v26.728h-6.077l-12.077-17.43v17.43h-5.623zm29.949-13.199c0-2.726.453-5.009 1.367-6.858a12.735 12.735 0 0 1 2.791-3.665c1.18-1.077 2.469-1.879 3.871-2.402 1.871-.709 4.02-1.058 6.461-1.058 4.416 0 7.947 1.22 10.598 3.665 2.652 2.439 3.977 5.837 3.977 10.187 0 4.318-1.318 7.691-3.949 10.131-2.629 2.434-6.146 3.654-10.541 3.654-4.459 0-8.002-1.215-10.633-3.635-2.632-2.427-3.942-5.769-3.942-10.019zm6.23-.18c0 3.023.787 5.32 2.352 6.883 1.568 1.561 3.557 2.34 5.971 2.34 2.408 0 4.389-.771 5.938-2.328 1.543-1.549 2.316-3.871 2.316-6.97 0-3.062-.754-5.346-2.254-6.858-1.506-1.506-3.508-2.259-6-2.259-2.498 0-4.506.765-6.035 2.29-1.52 1.525-2.288 3.821-2.288 6.902zm28.477 13.379V83.014h9.054l5.436 18.234 5.371-18.234h9.078v26.728h-5.617v-21.04l-5.951 21.04h-5.827l-5.929-21.04v21.04h-5.615z"/></g></svg>