<svg xmlns="http://www.w3.org/2000/svg" width="2500" height="2500" viewBox="0 0 192.756 192.756"><path d="M15.283 118.533h5.799L33.005 98.77l11.842 19.763h5.798L35.863 93.87l13.23-22.295h-5.716L33.005 89.133 22.551 71.575h-5.798L30.065 93.87l-14.782 24.663zm48.102-19.926c-2.532-1.389-5.799-2.451-5.799-5.146 0-2.287 2.532-4.165 6.534-4.165 3.266 0 6.451 1.062 7.513 1.47V86.52c-1.47-.408-4.165-1.143-7.595-1.143-7.187 0-11.107 3.349-11.107 8.575 0 5.308 4.329 7.105 7.35 8.82l2.94 1.551c1.878 1.062 5.88 2.533 5.88 5.881 0 3.674-3.43 5.227-7.921 5.227-3.675 0-7.595-1.471-8.412-1.715v4.246c1.306.408 4.655 1.307 8.901 1.307 7.514 0 12.005-3.348 12.005-9.799 0-5.555-4.165-7.432-7.514-9.229l-2.775-1.634zm32.503 16.17c-1.062.326-1.633.652-3.103.652-4.818 0-5.308-3.348-5.308-5.471V90.031h8.656v-3.919h-8.656V75.658l-4.655 2.94v7.513h-5.309v3.919h5.309v20.907c0 5.799 2.45 8.33 8.983 8.33 1.389 0 2.695-.082 4.083-.326v-4.164zm28.012-.246c-1.471.326-2.777.898-6.369.898-9.311 0-11.516-9.311-11.516-14.209v-1.96h18.619v-1.551c0-7.106-3.674-12.333-11.27-12.333-8.656 0-12.658 6.207-12.658 15.844 0 12.004 5.799 18.047 15.762 18.047 3.021 0 5.471-.326 7.432-.898v-3.838zm-17.558-19.11c.408-2.205 1.961-6.125 6.859-6.125 4.656 0 6.125 3.92 6.125 6.125h-12.984zm47.449 19.11c-1.471.326-2.777.898-6.371.898-9.309 0-11.516-9.311-11.516-14.209v-1.96h18.621v-1.551c0-7.106-3.676-12.333-11.27-12.333-8.656 0-12.658 6.207-12.658 15.844 0 12.004 5.797 18.047 15.762 18.047 3.021 0 5.471-.326 7.432-.898v-3.838zm-17.559-19.11c.408-2.205 1.959-6.125 6.777-6.125 4.738 0 6.207 3.92 6.207 6.125h-12.984zm26.788 23.112h4.654V71.575h-4.654v46.958zm15.923-35.852c2.939 0 5.309-2.368 5.309-5.308s-2.369-5.39-5.309-5.39-5.309 2.45-5.309 5.39 2.37 5.308 5.309 5.308zm-4.572-5.308a4.565 4.565 0 0 1 4.572-4.573c2.451 0 4.492 2.042 4.492 4.573 0 2.45-2.041 4.492-4.492 4.492-2.531 0-4.572-2.042-4.572-4.492zm2.531 2.613h1.061v-2.205h1.227l.816 2.205h1.143l-1.062-2.368c.41-.245.98-.409.98-1.388 0-1.634-1.225-1.879-2.287-1.879h-1.877v5.635h-.001zm1.061-4.655h1.145c.57 0 .898.245.898.817 0 .49-.328.653-.816.653h-1.227v-1.47z" fill-rule="evenodd" clip-rule="evenodd"/></svg>