<svg width="58" height="59" viewBox="0 0 58 59" xmlns="http://www.w3.org/2000/svg" xmlns:xlink="http://www.w3.org/1999/xlink"><title>Glasses</title><defs><path d="M37 13a7 7 0 0 0-14 0" id="a"/><mask id="g" x="0" y="0" width="14" height="7" fill="#fff"><use xlink:href="#a"/></mask><path d="M17 20c5.523 0 10-4.477 10-10S22.523 0 17 0 4 6.477 4 12s7.477 8 13 8z" id="b"/><mask id="h" x="0" y="0" width="23" height="20" fill="#fff"><use xlink:href="#b"/></mask><path d="M46 20c5.523 0 10-4.477 10-10S51.523 0 46 0 33 6.477 33 12s7.477 8 13 8z" id="c"/><mask id="i" x="0" y="0" width="23" height="20" fill="#fff"><use xlink:href="#c"/></mask><path d="M37 13a7 7 0 0 0-14 0" id="d"/><mask id="j" x="0" y="0" width="14" height="7" fill="#fff"><use xlink:href="#d"/></mask><path d="M17 20c5.523 0 10-4.477 10-10S22.523 0 17 0 4 6.477 4 12s7.477 8 13 8z" id="e"/><mask id="k" x="0" y="0" width="23" height="20" fill="#fff"><use xlink:href="#e"/></mask><path d="M46 20c5.523 0 10-4.477 10-10S51.523 0 46 0 33 6.477 33 12s7.477 8 13 8z" id="f"/><mask id="l" x="0" y="0" width="23" height="20" fill="#fff"><use xlink:href="#f"/></mask></defs><g fill="none" fill-rule="evenodd"><g transform="translate(-1)"><rect fill="#49CCCD" transform="rotate(45 5.5 14.5)" x="3" y="10" width="5" height="9" rx="2.5"/><rect fill="#49CCCD" transform="scale(-1 1) rotate(45 0 -117.075)" x="52" y="10" width="5" height="9" rx="2.5"/><use stroke="#49CCCD" mask="url(#g)" stroke-width="6" xlink:href="#a"/><use stroke="#52DDDE" mask="url(#h)" stroke-width="6" fill="#C4EEFF" xlink:href="#b"/><use stroke="#52DDDE" mask="url(#i)" stroke-width="6" fill="#C4EEFF" transform="matrix(-1 0 0 1 89 0)" xlink:href="#c"/></g><g transform="rotate(-27 89.897 26.583)"><rect fill="#FF2918" transform="rotate(45 5.5 14.5)" x="3" y="10" width="5" height="9" rx="2.5"/><rect fill="#FF2918" transform="scale(-1 1) rotate(45 0 -117.075)" x="52" y="10" width="5" height="9" rx="2.5"/><use stroke="#FF2919" mask="url(#j)" stroke-width="6" xlink:href="#d"/><use stroke="#FF7166" mask="url(#k)" stroke-width="6" fill="#C4EEFF" xlink:href="#e"/><use stroke="#FF7166" mask="url(#l)" stroke-width="6" fill="#C4EEFF" transform="matrix(-1 0 0 1 89 0)" xlink:href="#f"/></g></g></svg>