<svg xmlns="http://www.w3.org/2000/svg" width="2500" height="2500" viewBox="0 0 192.756 192.756"><path d="M96.355 185.867c-49.97-.021-90.468-40.092-90.468-89.5 0-49.431 40.521-89.501 90.468-89.479 50.016 0 90.514 40.071 90.514 89.479 0 49.43-40.521 89.5-90.514 89.5zm-74.201-46.572l1.62-1.26c-4.68-8.572-6.479-14.287-8.527-20.631-.18-.473-.292-.789-.495-1.059-.135.359-.067.676-.045 1.08 1.305 6.93 4.455 15.661 7.447 21.87zm75.461-123.52l12.307 71.57-12.869 7.537-.427-79.084c0-.945-.63-.945-.765 0L88.593 90.81l-5.399-3.127 11.564-71.884c-44.818.269-80.209 36.245-80.209 80.703 0 14.039 4.41 28.799 10.754 40.295l56.473-46.955 5.421 3.104-63.401 45.561c-1.53 1.08-1.08 1.598.607.676l70.804-40.904v14.715l-68.375 26.098c14.309 23.377 39.688 38.271 69.297 38.271 29.542 0 55.348-14.916 69.657-38.248l-68.262-26.076V98.324l68.105 39.283c1.551.855 2.002.383.539-.652L105.535 92.97l5.422-3.105 56.428 47c6.48-11.564 10.754-26.346 10.754-40.498 0-43.896-36.493-79.399-80.524-80.592zm84.912 64.392c.156.428.291.788.494 1.035.135-.36.023-.675 0-1.08-7.447-40.678-42.725-71.074-86.486-71.074-48.98 0-88.601 39.711-88.601 88.668 0 11.564 2.948 22.59 6.953 32.691 1.845 4.656 7.739 15.277 9.179 17.369.315.449.45.674.81.945-.022-.428-.044-.631-.27-1.148-.248-.428-5.265-9.99-8.167-17.1-2.475-6.119-5.557-18.312-5.557-32.443 0-47.495 38.541-86.036 86.035-86.036 24.84.022 48.194 12.149 62.502 27.854 10.868 11.926 16.493 19.936 23.108 40.319zM24.943 139.789l-1.957.721c12.712 24.299 39.373 41.961 73.369 41.961 48.238.023 86.801-39.014 86.801-86.104 0-11.52-3.33-18.584-5.197-23.691-1.371-3.825-4.32-9.698-5.625-12.105-.27-.473-.449-.675-.809-.967.021.427.045.675.314 1.148 1.014 2.002 3.262 7.042 4.859 12.104 2.16 6.727 3.51 14.264 3.51 23.512 0 14.691-4.611 29.721-11.406 41.689.383.99.021 1.486-1.125 1.801-14.828 23.85-41.264 39.463-71.345 39.441-28.259 0-50.848-15.143-57.98-22.994-5.804-6.391-10.101-11.137-13.409-16.516zm66.935-47.067l3.735 2.182.473-58.07c0-1.17-.359-1.215-.45-.045l-3.758 55.933zm6.524 4.387l50.24 29.406c.9.518 1.08.203.227-.359l-46.641-31.252-3.826 2.205zm-7.649-2.025l-12.622 10.328c-.697.584-.382.854.45.383l15.749-8.73-3.577-1.981z" fill-rule="evenodd" clip-rule="evenodd"/></svg>