<svg xmlns="http://www.w3.org/2000/svg" viewBox="0 0 192.756 192.756"><path d="M174.826 61.428c.666.526 1.592.66 2.379.351 1.713-.686 1.742-3.14 3.574-3.631a7.294 7.294 0 0 1 1.973-.14c.412.03.83-.003 1.232-.097a2.107 2.107 0 0 0 1.518-1.345c.271-.77-.012-1.672-.406-2.351a10.563 10.563 0 0 1-.832-1.788 2.776 2.776 0 0 1 .211-1.894c.385-.756 1.092-1.854 1.062-2.822-.053-1.258-1.141-2.177-2.367-2.171-.609-.003-1.219-.014-1.828-.026-1.193-.024-2.09-.95-2.611-1.938-.467-.904-1.223-1.884-2.301-2.039-1.398-.197-2.482.979-2.98 2.149a2.98 2.98 0 0 1-2.697 1.808 26.487 26.487 0 0 0-1.781-.019c-1.213.028-2.191 1.099-2.107 2.301.066.448.203.883.404 1.289.576 1.105 1.402 2.536.752 3.806-.592 1.104-1.402 2.39-.941 3.696a2.497 2.497 0 0 0 2.355 1.368c.436-.028.873-.034 1.309-.02a3.18 3.18 0 0 1 2.025.698c.819.857 1.149 2.033 2.057 2.815zm-10.373-9.658c0-6.537 5.301-11.838 11.84-11.838 6.537 0 11.838 5.301 11.838 11.838 0 6.539-5.301 11.839-11.838 11.839-6.539 0-11.84-5.3-11.84-11.839zM18.468 91.288V56.139h3.783l15.621 18.917 15.622-18.428h3.661V91.41H47.27V79.449l-9.398 10.13-9.152-10.374v12.083H18.468zm82.012.366h9.03V75.667l17.818 15.865h3.051V56.75h-9.274v15.133L104.02 56.628h-3.54v35.026zm33.682-26.239v-8.421h26.973v8.298h-8.666v26.362h-9.52V65.415h-8.787zm-33.877 68.122h9.029v-15.986l17.819 15.865h3.053V98.635h-9.276v15.133l-17.086-15.256h-3.539v35.025zm-72.663-15.279v7.201l4.881-.025s3.295-.463 3.295-3.635c0-3.664-4.148-3.613-4.148-3.613l-4.028.072zm.244-13.889l.024 7.105 4.613.072s3.369.365 3.369-3.418-3.369-3.662-3.369-3.662l-4.637-.097zm-9.642-6.248h17.695s7.933.244 7.933 8.543c0 6.957-4.515 8.176-4.515 8.176s5.395 1.262 5.395 8.105c0 10.008-10.153 10.324-10.153 10.324H18.224V98.121zM47.465 98h9.446v26.947h7.567v8.446H47.392L47.465 98zm18.428 35.393l14.231-35.491h4.49l14.181 35.465-10.349-.023-6.004-15.209-6.688 15.232-9.861.026zm93.533-27.338l.854-7.811s-11.314-1.949-16.598 1.221c-3.66 2.195-10.432 5.344-10.299 17.061.121 10.861 10.178 15.279 10.178 15.279s4.516 3.467 17.086 1.514c.24-.037 0-7.615 0-7.615s-6.346.854-9.543-.098c-1.93-.574-8.301-2.904-8.301-10.227s7.592-9.324 7.592-9.324c3.173-1.344 9.031 0 9.031 0zM69.847 73.713c0 5.19 3.989 9.397 8.909 9.397 4.921 0 8.91-4.207 8.91-9.397 0-5.189-3.989-9.397-8.91-9.397-4.92 0-8.909 4.208-8.909 9.397zm-8.542-.06c0-10.279 7.786-18.612 17.391-18.612 9.604 0 17.391 8.333 17.391 18.612 0 10.28-7.787 18.611-17.391 18.611-9.605 0-17.391-8.331-17.391-18.611z" fill-rule="evenodd" clip-rule="evenodd"/></svg>