<svg id="f1b187d3-4686-49e4-8f1e-c28b09c9d7a8" data-name="Layer 1" xmlns="http://www.w3.org/2000/svg" width="933.06" height="476" viewBox="0 0 933.06 476"><title>test</title><path d="M1015,533.55l-3.92,35.79-3.41,31.09-8.9,81.21a7.12,7.12,0,0,1-5.19,6.1,6.78,6.78,0,0,1-1.92.27H915.77a7.14,7.14,0,0,1-7.11-6.37L892.43,533.55a8.53,8.53,0,0,1,8.48-9.45h105.6A8.53,8.53,0,0,1,1015,533.55Z" transform="translate(-133.47 -212)" fill="#535461"/><path d="M1028.36,562.26a23.79,23.79,0,0,0-3.37.24,24.69,24.69,0,0,0,0,48.92,23.78,23.78,0,0,0,3.37.24,24.7,24.7,0,1,0,0-49.4Zm0,43.78a18.51,18.51,0,0,1-3.37-.3,19.08,19.08,0,0,1,0-37.56,18.51,18.51,0,0,1,3.37-.3,19.08,19.08,0,1,1,0,38.17Z" transform="translate(-133.47 -212)" fill="#535461"/><path d="M919.46,524.09V688h-3.69a7.14,7.14,0,0,1-7.11-6.37L892.43,533.55a8.53,8.53,0,0,1,8.48-9.45Z" transform="translate(-133.47 -212)" opacity="0.1"/><path d="M987.94,688V524.09h18.56a8.53,8.53,0,0,1,8.48,9.45l-3.92,35.79A24.51,24.51,0,0,1,1025,562.5v5.68a19.08,19.08,0,0,0,0,37.56v5.68a24.7,24.7,0,0,1-17.34-11l-8.9,81.21a7.12,7.12,0,0,1-5.19,6.1Z" transform="translate(-133.47 -212)" opacity="0.1"/><path d="M927.32,593.59c0,4,3.89,7.7,10,9.8-1.23,6.17-.22,11.14,3.14,13.07s8.59.61,13.48-3.65c4.76,4.09,9.57,5.71,12.92,3.76s4.5-7.3,3.24-13.66c6.39-2.11,10-5.28,10-9.32s-3.9-7.26-9.95-9.34c1.36-6.62.21-11.47-3.29-13.49s-8.24-.25-13.06,4c-5-4.46-9.84-5.82-13.33-3.8s-4.33,7-3.1,13.29C931.42,586.27,927.32,589.71,927.32,593.59Z" transform="translate(-133.47 -212)" fill="#fff"/><path d="M968.85,586.32q-.75-.26-1.51-.48.13-.51.23-1c1.14-5.54.4-10-2.15-11.48s-6.44.06-10.48,3.57q-.6.52-1.17,1.07l-.78-.72c-4.23-3.76-8.47-5.34-11-3.87s-3.17,5.61-2.14,10.86q.15.78.35,1.55c-.6.17-1.18.35-1.73.55-5,1.73-8.13,4.44-8.13,7.25s3.4,5.82,8.57,7.58q.63.21,1.27.4-.21.83-.37,1.67c-1,5.16-.21,9.26,2.22,10.67s6.74,0,10.85-3.63q.49-.43,1-.9.62.6,1.27,1.16c4,3.43,7.92,4.81,10.35,3.4s3.33-5.86,2.27-11.21q-.12-.61-.28-1.25l.87-.27c5.37-1.78,8.87-4.66,8.87-7.6s-3.27-5.55-8.33-7.29Z" transform="translate(-133.47 -212)" fill="#53c1de"/><path d="M974.94,592.66c-.75-1.51-3.18-3.22-6.74-4.46-.45-.15-.91-.3-1.39-.44a47.27,47.27,0,0,1-2.28,5.85,47.62,47.62,0,0,1,2.37,5.94l.79-.24h0c3.85-1.28,6.48-3.12,7.25-4.74a2.23,2.23,0,0,0,.24-1A2.17,2.17,0,0,0,974.94,592.66Zm-9.18,10.46c-.07-.37-.16-.75-.25-1.13a47.36,47.36,0,0,1-6.35,1,46.12,46.12,0,0,1-3.72,4.76l-.21.23.21.19c.33.31.65.61,1,.88,3.4,2.92,6.57,4,8,3.18a4.1,4.1,0,0,0,1.53-2.9A17,17,0,0,0,965.76,603.12ZM948.42,603a47.73,47.73,0,0,1-6.32-.92c-.13.52-.24,1-.34,1.56-.84,4.41-.22,7.7,1.25,8.56a4.16,4.16,0,0,0,3.29-.13,16.76,16.76,0,0,0,5.24-3.29c.31-.26.61-.54.9-.82A47.38,47.38,0,0,1,948.42,603Zm-7.69-15.26c-.54.15-1.08.32-1.61.51-3.67,1.27-6.07,3.08-6.65,4.64a2.08,2.08,0,0,0-.14.72,1.88,1.88,0,0,0,.14.7,5.32,5.32,0,0,0,1.61,2.08,17,17,0,0,0,5.47,2.9c.38.13.77.25,1.16.36a48.84,48.84,0,0,1,2.31-6A49.39,49.39,0,0,1,940.72,587.74Zm10.95-9c-3.66-3.24-7.12-4.54-8.68-3.63s-2.06,4.25-1.18,8.75c.09.49.2,1,.32,1.44a48.45,48.45,0,0,1,6.25-1,47.61,47.61,0,0,1,4-4.94Zm8.93,7.76c.49.77,1,1.55,1.43,2.35s.91,1.62,1.34,2.44c.59-1.39,1.1-2.74,1.5-4A42.23,42.23,0,0,0,960.6,586.52Zm-5.15-3.75c-.55-.69-1.11-1.34-1.66-1.94a42.86,42.86,0,0,0-2.79,3.33q2.22-.1,4.45,0l1.09,0C956.17,583.69,955.81,583.22,955.44,582.77Zm-12.77,4.47c.4,1.32.91,2.67,1.48,4.06.42-.82.86-1.63,1.32-2.42s.94-1.59,1.44-2.36C945.43,586.7,944,587,942.67,587.24Zm2.81,11.19c-.46-.79-.9-1.6-1.32-2.42a43.09,43.09,0,0,0-1.52,4.14,42.76,42.76,0,0,0,4.32.7C946.45,600,946,599.25,945.49,598.43Zm10,4.75-1.68,0c-.93,0-1.85,0-2.74-.06q1.39,1.83,2.82,3.38c.54-.59,1.08-1.23,1.61-1.91.39-.47.77-1,1.14-1.48Zm7.94-7.24c-.44.84-.89,1.66-1.36,2.48s-.95,1.6-1.44,2.39a44.23,44.23,0,0,0,4.37-.75A41.69,41.69,0,0,0,963.39,595.94Zm-3.1-6.07q-1.07-1.84-2.26-3.61c-.85-.06-1.71-.11-2.58-.13-.56,0-1.12,0-1.68,0-1.45,0-2.88.06-4.27.16-.81,1.18-1.56,2.38-2.28,3.61s-1.37,2.5-2,3.78q.93,1.92,2,3.77t2.29,3.63c1.36.09,2.79.13,4.25.13l1.68,0c.88,0,1.75-.07,2.6-.13q1.18-1.78,2.25-3.62c.71-1.25,1.39-2.51,2-3.79Q961.36,591.72,960.29,589.87Zm4.14-14.8c-1.48-.85-4.71.34-8.17,3.35-.28.24-.55.49-.81.74l-.26.25.26.29a47,47,0,0,1,3.7,4.65,48.8,48.8,0,0,1,6.27,1c.08-.31.15-.62.21-.93C966.61,579.62,966,576,964.43,575.07Z" transform="translate(-133.47 -212)" fill="#fff"/><path d="M953.75,589.42a4.18,4.18,0,1,1-4.18,4.18,4.18,4.18,0,0,1,4.18-4.18Z" transform="translate(-133.47 -212)" fill="#53c1de"/><path d="M789.33,314.63l-3.92,35.79L782,381.51l-8.9,81.21a7.12,7.12,0,0,1-5.19,6.1,6.78,6.78,0,0,1-1.92.27H690.12a7.14,7.14,0,0,1-7.11-6.37L666.78,314.63a8.53,8.53,0,0,1,8.48-9.45h105.6A8.53,8.53,0,0,1,789.33,314.63Z" transform="translate(-133.47 -212)" fill="#535461"/><path d="M802.71,343.35a23.79,23.79,0,0,0-3.37.24,24.69,24.69,0,0,0,0,48.92,23.78,23.78,0,0,0,3.37.24,24.7,24.7,0,0,0,0-49.4Zm0,43.78a18.51,18.51,0,0,1-3.37-.3,19.08,19.08,0,0,1,0-37.56,18.51,18.51,0,0,1,3.37-.3,19.08,19.08,0,0,1,0,38.17Z" transform="translate(-133.47 -212)" fill="#535461"/><path d="M693.81,305.18V469.08h-3.69a7.14,7.14,0,0,1-7.11-6.37L666.78,314.63a8.53,8.53,0,0,1,8.48-9.45Z" transform="translate(-133.47 -212)" opacity="0.1"/><path d="M762.29,469.08V305.18h18.56a8.53,8.53,0,0,1,8.48,9.45l-3.92,35.79a24.51,24.51,0,0,1,13.93-6.84v5.68a19.08,19.08,0,0,0,0,37.56v5.68a24.7,24.7,0,0,1-17.34-11l-8.9,81.21a7.12,7.12,0,0,1-5.19,6.1Z" transform="translate(-133.47 -212)" opacity="0.1"/><path d="M766.64,360.16l3.51,0-7.07,9.58a4.12,4.12,0,0,0-.57.8,17.83,17.83,0,0,0-.68,2.51l-3.22,0a13.24,13.24,0,0,0,.48-2.75,10.63,10.63,0,0,0-.68-2.51c-.24-.85-.57-2.51-.57-2.51h3.31l.46,1.82,5-7" transform="translate(-133.47 -212)" fill="#1a1918"/><path d="M760,362c.65.39,1,2.55,1,2.55s-3.39.05-5.24.05h-1.6l-1.94,8.44h-3s1.84-9.17,2.28-10.83c.14-.54,1-.45,2.36-.45h2.23c1.44,0,3.12-.18,3.83.24m-13.8,4.11a1.78,1.78,0,0,0-.31-1.17c-.35-.53-.67-.66-1.58-.69-2.58-.08-2.53,1.83-2.53,1.83Zm2.79-2.19c.38,1.36-.34,4.56-.34,4.56s-3.76-.06-5.81,0c-.64,0-1.41-.07-1.6.23s.1,1.06.41,1.33a2.58,2.58,0,0,0,1.3.38,43.09,43.09,0,0,0,5.17.05l-.61,2.68a36.25,36.25,0,0,1-7.41-.34,2.52,2.52,0,0,1-1.25-.68c-.08-.09-.16-.22-.24-.32a3,3,0,0,1-.33-.59c-.56-1.5.07-4.38.68-5.93.07-.18.16-.41.26-.6s.22-.51.31-.66.14-.16.21-.26a3.83,3.83,0,0,1,.25-.31,4.7,4.7,0,0,1,.8-.68,7.54,7.54,0,0,1,5.13-1.14,3.92,3.92,0,0,1,2.74,1.25,3.83,3.83,0,0,1,.34,1Zm-13.6-2.18,2.87,0s-1.6,7.6-2.42,11.3h-3.31c-2.31,0-4.37.29-5.24-1.37s0-4.25.34-6c.27-1.27.84-3.87.84-3.87l3,0s-.84,4-1.19,6.06c-.13.72-.38,1.4-.11,1.94s.62.55,1.71.57h1.48l2.05-8.55m-13.45,5.47a10.92,10.92,0,0,0,.68-3.19,2.74,2.74,0,0,0-1.48-2.17,3.8,3.8,0,0,0-3.88.91,6.33,6.33,0,0,0-1.37,3.31,5,5,0,0,0,0,3c.69,1.44,2.83,1.13,5.13,1.14.34-.92.62-1.95.91-3Zm4-4.22c.33,2.39-.93,5-1.8,7.31.88.08,1.66,0,1.72.05a9.29,9.29,0,0,1-.82,2.74c-.7,0-3,0-4,0-3.17,0-6.13.21-7.64-1.37a5,5,0,0,1-1.14-2.51,10.64,10.64,0,0,1,.34-3.88,11.73,11.73,0,0,1,1.14-3,7.57,7.57,0,0,1,10-2.85l.25.18a5,5,0,0,1,1.92,3.24Zm-14-1.24c-.19.87-.38,1.86-.58,2.72h-3.19c.25-1,.44-1.91.68-2.74h3.09M708,365.31h3.08c-.4,2.23-1.2,5.82-1.82,8.32-.39,1.57-.65,2.71-1.71,3.53-.09.07-.15,0-.23.11a4.36,4.36,0,0,1-1.6.46,23,23,0,0,1-2.73,0c.26-1,.56-2.1.79-3,2.43.29,2.49-2,3-4.22.27-1.28,1.1-4.73,1.25-5.24" transform="translate(-133.47 -212)" fill="#1a1918"/><path d="M700.83,371.12l-.07.17a6.45,6.45,0,0,1-6,3.59,8.33,8.33,0,0,1-3.42-.68,8.84,8.84,0,0,1-4.1-3.88,6.45,6.45,0,0,1,1.06-7.81s-.3.51-.26.51l-.07.22c-1.76,5.51,3.67,10.24,8.94,9.7a6.93,6.93,0,0,0,3.88-1.82" transform="translate(-133.47 -212)" fill="#21609b"/><path d="M697.64,368.84a5,5,0,0,0,3.53-1.48c-.72,1.82-2.8,3-5.59,2.62a6,6,0,0,1-4.79-5,5,5,0,0,1,1.41-4,4.16,4.16,0,0,0-.5,1.47c-.37,3.71,3,6.37,5.93,6.38" transform="translate(-133.47 -212)" fill="#21609b"/><path d="M701,364.24a4.16,4.16,0,0,1-1.92,1.48,3.66,3.66,0,0,1-4.1-1.66,5.13,5.13,0,0,1-.33-.74,3.13,3.13,0,0,1,.66-3,3.79,3.79,0,0,0-.15,2,4.43,4.43,0,0,0,.55,1.2,3.16,3.16,0,0,0,1.25,1.11,3.33,3.33,0,0,0,.63.3,3.51,3.51,0,0,0,3.41-.65" transform="translate(-133.47 -212)" fill="#21609b"/><path d="M504.17,467.31l-3.92,35.79-3.41,31.09-8.9,81.21a7.12,7.12,0,0,1-5.19,6.1,6.78,6.78,0,0,1-1.92.27H405a7.14,7.14,0,0,1-7.11-6.37L381.63,467.31a8.53,8.53,0,0,1,8.48-9.45H495.7A8.53,8.53,0,0,1,504.17,467.31Z" transform="translate(-133.47 -212)" fill="#535461"/><path d="M517.56,496a23.79,23.79,0,0,0-3.37.24,24.69,24.69,0,0,0,0,48.92,23.78,23.78,0,0,0,3.37.24,24.7,24.7,0,0,0,0-49.4Zm0,43.78a18.51,18.51,0,0,1-3.37-.3,19.08,19.08,0,0,1,0-37.56,18.51,18.51,0,0,1,3.37-.3,19.08,19.08,0,0,1,0,38.17Z" transform="translate(-133.47 -212)" fill="#535461"/><path d="M408.66,457.86V621.76H405a7.14,7.14,0,0,1-7.11-6.37L381.63,467.31a8.53,8.53,0,0,1,8.48-9.45Z" transform="translate(-133.47 -212)" opacity="0.1"/><path d="M477.14,621.76V457.86H495.7a8.53,8.53,0,0,1,8.48,9.45l-3.92,35.79a24.51,24.51,0,0,1,13.93-6.84v5.68a19.08,19.08,0,0,0,0,37.56v5.68a24.7,24.7,0,0,1-17.34-11l-8.9,81.21a7.12,7.12,0,0,1-5.19,6.1Z" transform="translate(-133.47 -212)" opacity="0.1"/><path d="M459.33,500.52h11.08l-27.69,47.76L415,500.52h21.18l6.51,11.08,6.37-11.08Z" transform="translate(-133.47 -212)" fill="#41b883"/><path d="M415,500.52l27.69,47.76,27.69-47.76H459.33l-16.61,28.66L426,500.52Z" transform="translate(-133.47 -212)" fill="#41b883"/><path d="M426,500.52l16.75,28.8,16.61-28.8H449.09l-6.37,11.08-6.51-11.08Z" transform="translate(-133.47 -212)" fill="#35495e"/><path d="M256.07,309l-3.92,35.79-3.41,31.09-8.9,81.21a7.12,7.12,0,0,1-5.19,6.1,6.78,6.78,0,0,1-1.92.27H156.86a7.14,7.14,0,0,1-7.11-6.37L133.52,309a8.53,8.53,0,0,1,8.48-9.45h105.6A8.53,8.53,0,0,1,256.07,309Z" transform="translate(-133.47 -212)" fill="#535461"/><path d="M269.45,337.74a23.79,23.79,0,0,0-3.37.24,24.69,24.69,0,0,0,0,48.92,23.78,23.78,0,0,0,3.37.24,24.7,24.7,0,0,0,0-49.4Zm0,43.78a18.51,18.51,0,0,1-3.37-.3,19.08,19.08,0,0,1,0-37.56,18.51,18.51,0,0,1,3.37-.3,19.08,19.08,0,0,1,0,38.17Z" transform="translate(-133.47 -212)" fill="#535461"/><path d="M160.56,299.57V463.47h-3.69a7.14,7.14,0,0,1-7.11-6.37L133.52,309a8.53,8.53,0,0,1,8.48-9.45Z" transform="translate(-133.47 -212)" opacity="0.1"/><path d="M229,463.47V299.57h18.56a8.53,8.53,0,0,1,8.48,9.45l-3.92,35.79A24.51,24.51,0,0,1,266.08,338v5.68a19.08,19.08,0,0,0,0,37.56v5.68a24.7,24.7,0,0,1-17.34-11l-8.9,81.21a7.12,7.12,0,0,1-5.19,6.1Z" transform="translate(-133.47 -212)" opacity="0.1"/><path d="M166.32,347.87l28.44-10.13,29.21,10-4.73,37.63-24.48,13.56L170.67,385.5Z" transform="translate(-133.47 -212)" fill="#e23237"/><path d="M224,347.69l-29.21-10v61.14l24.48-13.53L224,347.69Z" transform="translate(-133.47 -212)" fill="#b52e31"/><path d="M194.81,344.87,177.09,384.3l6.62-.11,3.56-8.89h15.9l3.9,9,6.33.11-18.58-39.54Zm0,12.63,6,12.52H189.59l5.27-12.52Z" transform="translate(-133.47 -212)" fill="#fff"/><path d="M324.46,212H210a4.49,4.49,0,1,0,0,9H183a4.49,4.49,0,0,0,0,9H177.4a4.49,4.49,0,0,0,0,9h7.86a4.49,4.49,0,1,0,0,9H177.4a4.49,4.49,0,0,0,0,9h7.86a4.49,4.49,0,1,0,0,9h4.49a4.49,4.49,0,1,0,0,9h-9a4.48,4.48,0,0,0-.61,8.92,4.47,4.47,0,0,0,2.86,7.92h13.47a4.47,4.47,0,0,0,2.93-7.86H229a4.49,4.49,0,1,0,0-9h9a4.49,4.49,0,0,0,0-9h-4.49a4.49,4.49,0,0,0,0-9h28.07a4.49,4.49,0,0,0,0-9h7.86a4.49,4.49,0,0,0,0-9h22.45a4.49,4.49,0,1,0,0-9h5.61a4.49,4.49,0,0,0,0-9h26.94a4.49,4.49,0,1,0,0-9Z" transform="translate(-133.47 -212)" fill="#e0e0e0" opacity="0.45"/><path d="M551.24,372.54H436.73a4.49,4.49,0,1,0,0,9H409.78a4.49,4.49,0,0,0,0,9h-5.61a4.49,4.49,0,0,0,0,9H412a4.49,4.49,0,1,0,0,9h-7.86a4.49,4.49,0,1,0,0,9H412a4.49,4.49,0,1,0,0,9h4.49a4.49,4.49,0,0,0,0,9h-9a4.48,4.48,0,0,0-.61,8.92,4.47,4.47,0,0,0,2.86,7.92h13.47a4.47,4.47,0,0,0,2.93-7.86h29.62a4.49,4.49,0,1,0,0-9h9a4.49,4.49,0,0,0,0-9H460.3a4.49,4.49,0,0,0,0-9h28.07a4.49,4.49,0,1,0,0-9h7.86a4.49,4.49,0,0,0,0-9h22.45a4.49,4.49,0,0,0,0-9h5.61a4.49,4.49,0,0,0,0-9h26.94a4.49,4.49,0,1,0,0-9Z" transform="translate(-133.47 -212)" fill="#e0e0e0" opacity="0.45"/><path d="M831.9,212H717.39a4.49,4.49,0,0,0,0,9H690.44a4.49,4.49,0,0,0,0,9h-5.61a4.49,4.49,0,1,0,0,9h7.86a4.49,4.49,0,0,0,0,9h-7.86a4.49,4.49,0,1,0,0,9h7.86a4.49,4.49,0,0,0,0,9h4.49a4.49,4.49,0,1,0,0,9h-9a4.48,4.48,0,0,0-.61,8.92,4.47,4.47,0,0,0,2.86,7.92h13.47a4.47,4.47,0,0,0,2.93-7.86h29.62a4.49,4.49,0,0,0,0-9h9a4.49,4.49,0,1,0,0-9H741a4.49,4.49,0,1,0,0-9H769a4.49,4.49,0,0,0,0-9h7.86a4.49,4.49,0,1,0,0-9h22.45a4.49,4.49,0,1,0,0-9H805a4.49,4.49,0,0,0,0-9H831.9a4.49,4.49,0,0,0,0-9Z" transform="translate(-133.47 -212)" fill="#e0e0e0" opacity="0.45"/><path d="M1062,432H947.53a4.49,4.49,0,1,0,0,9H920.58a4.49,4.49,0,0,0,0,9H915a4.49,4.49,0,0,0,0,9h7.86a4.49,4.49,0,1,0,0,9H915a4.49,4.49,0,1,0,0,9h7.86a4.49,4.49,0,1,0,0,9h4.49a4.49,4.49,0,0,0,0,9h-9a4.48,4.48,0,0,0-.61,8.92,4.47,4.47,0,0,0,2.86,7.92h13.47a4.47,4.47,0,0,0,2.93-7.86h29.62a4.49,4.49,0,1,0,0-9h9a4.49,4.49,0,0,0,0-9H971.1a4.49,4.49,0,0,0,0-9h28.07a4.49,4.49,0,0,0,0-9H1007a4.49,4.49,0,0,0,0-9h22.45a4.49,4.49,0,0,0,0-9h5.61a4.49,4.49,0,0,0,0-9H1062a4.49,4.49,0,0,0,0-9Z" transform="translate(-133.47 -212)" fill="#e0e0e0" opacity="0.45"/></svg>