<svg id="3cb0c07a-f133-46d2-a6b2-dad528c8be8f" data-name="Layer 1" xmlns="http://www.w3.org/2000/svg" xmlns:xlink="http://www.w3.org/1999/xlink" viewBox="0 0 930 796"><defs><linearGradient id="f5001a13-cfe6-4c8f-88a7-1ed26db83ffd" x1="476.5" y1="796" x2="476.5" y2="356" gradientUnits="userSpaceOnUse"><stop offset="0" stop-color="#b3b3b3" stop-opacity="0.25"/><stop offset="0.54" stop-color="#b3b3b3" stop-opacity="0.1"/><stop offset="1" stop-color="#b3b3b3" stop-opacity="0.05"/></linearGradient><linearGradient id="78373005-7475-4e76-bc76-3e27e6664849" x1="233" y1="468" x2="233" y2="390" xlink:href="#f5001a13-cfe6-4c8f-88a7-1ed26db83ffd"/></defs><title>together</title><path d="M827,414s28-104-28-211" transform="translate(-135 -52)" fill="none" stroke="#e0e0e0" stroke-linecap="round" stroke-linejoin="round" stroke-width="10" stroke-dasharray="0 23"/><line x1="300.59" y1="350.5" x2="300.59" y2="350.5" fill="none" stroke="#e0e0e0" stroke-linecap="round" stroke-linejoin="round" stroke-width="10"/><path d="M443.1,380.15c9.88-40.36,12.83-124.5-117.66-160.22" transform="translate(-135 -52)" fill="none" stroke="#e0e0e0" stroke-linecap="round" stroke-linejoin="round" stroke-width="10" stroke-dasharray="0 23.61"/><line x1="179" y1="165" x2="179" y2="165" fill="none" stroke="#e0e0e0" stroke-linecap="round" stroke-linejoin="round" stroke-width="10"/><rect x="71" y="356" width="811" height="440" fill="url(#f5001a13-cfe6-4c8f-88a7-1ed26db83ffd)"/><rect x="78" y="362" width="798" height="422.5" fill="#fff"/><circle cx="233" cy="429" r="39" fill="url(#78373005-7475-4e76-bc76-3e27e6664849)"/><circle cx="233" cy="429" r="35" fill="#6C63FF"/><rect x="313" y="416" width="197" height="20" fill="#64ffda"/><rect x="232.5" y="545.5" width="492" height="20" fill="#f5f5f5"/><rect x="232.5" y="501.5" width="492" height="20" fill="#f5f5f5"/><rect x="232.5" y="589.5" width="492" height="20" fill="#f5f5f5"/><rect x="232.5" y="633.5" width="492" height="20" fill="#f5f5f5"/><rect x="232.5" y="677.5" width="492" height="20" fill="#f5f5f5"/><rect x="232.5" y="721.5" width="492" height="20" fill="#f5f5f5"/><line x1="153.33" y1="355.5" x2="153.33" y2="355.5" fill="none" stroke="#bdbdbd" stroke-linecap="round" stroke-linejoin="round" stroke-width="10"/><path d="M290.59,384.76c.76-21.62-1.88-53.94-20.78-75.41" transform="translate(-135 -52)" fill="none" stroke="#bdbdbd" stroke-linecap="round" stroke-linejoin="round" stroke-width="10" stroke-dasharray="0 22.87"/><line x1="126.5" y1="249.5" x2="126.5" y2="249.5" fill="none" stroke="#bdbdbd" stroke-linecap="round" stroke-linejoin="round" stroke-width="10"/><line x1="605.33" y1="364.5" x2="605.33" y2="364.5" fill="none" stroke="#e0e0e0" stroke-linecap="round" stroke-linejoin="round" stroke-width="10"/><path d="M742.59,393.76c.76-21.62-1.88-53.94-20.78-75.41" transform="translate(-135 -52)" fill="none" stroke="#e0e0e0" stroke-linecap="round" stroke-linejoin="round" stroke-width="10" stroke-dasharray="0 22.87"/><line x1="578.5" y1="258.5" x2="578.5" y2="258.5" fill="none" stroke="#e0e0e0" stroke-linecap="round" stroke-linejoin="round" stroke-width="10"/><line x1="797.67" y1="355.5" x2="797.67" y2="355.5" fill="none" stroke="#bdbdbd" stroke-linecap="round" stroke-linejoin="round" stroke-width="10"/><path d="M930.41,384.76c-.76-21.62,1.88-53.94,20.78-75.41" transform="translate(-135 -52)" fill="none" stroke="#bdbdbd" stroke-linecap="round" stroke-linejoin="round" stroke-width="10" stroke-dasharray="0 22.87"/><line x1="824.5" y1="249.5" x2="824.5" y2="249.5" fill="none" stroke="#bdbdbd" stroke-linecap="round" stroke-linejoin="round" stroke-width="10"/><rect y="114.78" width="111" height="60.43" fill="#64ffda" opacity="0.7"/><rect x="608" y="73.78" width="111" height="60.43" fill="#64ffda" opacity="0.7"/><rect x="513" y="181.78" width="111" height="60.43" fill="#64ffda" opacity="0.7"/><rect x="83" y="127.58" width="180.78" height="98.41" fill="#6C63FF"/><rect x="749.22" y="132.58" width="180.78" height="98.41" fill="#6C63FF"/><rect x="339.71" width="180.78" height="98.41" fill="#6C63FF"/><line x1="414" y1="354.5" x2="414" y2="354.5" fill="none" stroke="#bdbdbd" stroke-linecap="round" stroke-linejoin="round" stroke-width="10"/><path d="M557.82,384.22c6.13-21.36,10.12-55.49-9.32-90.72-24-43.51-2.42-85.9,9.85-104.36" transform="translate(-135 -52)" fill="none" stroke="#bdbdbd" stroke-linecap="round" stroke-linejoin="round" stroke-width="10" stroke-dasharray="0 24.01"/><line x1="430.5" y1="127.5" x2="430.5" y2="127.5" fill="none" stroke="#bdbdbd" stroke-linecap="round" stroke-linejoin="round" stroke-width="10"/></svg>