<svg width="26" height="61" viewBox="0 0 26 61" xmlns="http://www.w3.org/2000/svg" xmlns:xlink="http://www.w3.org/1999/xlink"><title>IceCream</title><defs><path d="M15.355.213A13.076 13.076 0 0 0 13 0C5.819 0 0 5.817 0 12.993v28A3.004 3.004 0 0 0 3.008 44h19.984A3.005 3.005 0 0 0 26 40.993v-28a12.98 12.98 0 0 0-.51-3.613A7.5 7.5 0 0 1 15.355.213z" id="a"/></defs><g fill="none" fill-rule="evenodd"><path fill="#FFBE97" d="M9 44h7v17H9z"/><mask id="b" fill="#fff"><use xlink:href="#a"/></mask><use fill="#FF7166" xlink:href="#a"/><g mask="url(#b)" fill="#FF928A"><path d="M7 0h5v44H7zm7 0h5v44h-5z"/></g></g></svg>