<svg width="52" height="73" viewBox="0 0 52 73" xmlns="http://www.w3.org/2000/svg" xmlns:xlink="http://www.w3.org/1999/xlink"><title>Juice</title><defs><ellipse id="a" cx="19.5" cy="26.5" rx="7.5" ry="7.5"/><mask id="b" x="0" y="0" width="15" height="15" fill="#fff"><use xlink:href="#a"/></mask></defs><g fill="none" fill-rule="evenodd"><path d="M23.5 68C42.215 68 47 55.479 47 42.5S36.479 19 23.5 19 0 29.521 0 42.5 4.785 68 23.5 68z" fill="#E59768"/><ellipse fill="#785037" cx="23.5" cy="29" rx="13.5" ry="8"/><path d="M46.969 41c.02.404.031.81.031 1.219 0 12.978-4.785 25.5-23.5 25.5S0 55.197 0 42.219c0-.409.01-.815.031-1.219C.468 53.32 5.643 64.719 23.5 64.719S46.532 53.319 46.969 41z" fill="#E1854E"/><path d="M36.896 30c.068-.328.104-.661.104-1 0-4.418-6.044-8-13.5-8S10 24.582 10 29c0 .339.036.672.104 1 .83-3.946 6.512-7 13.396-7 6.884 0 12.565 3.054 13.396 7z" fill="#9F7154"/><path d="M28.01 4.064l-.534-.124-7.152 33.22 5.67-.125L33.09 6.293 42.28 5 41.584.05 29.707 1.718a2.005 2.005 0 0 0-1.708 2.265l.011.08z" fill="#FF7166"/><g transform="translate(15 39)"><path d="M19.953 27.072s2.03-8.271-1.81-14.662S6.047 3.928 6.047 3.928 4.017 12.2 7.857 18.59s12.096 8.482 12.096 8.482z" fill="#52DE9D"/><path d="M17.454 27.046s8.517-.031 13.789-5.303 5.303-13.789 5.303-13.789-8.517.031-13.789 5.303-5.303 13.789-5.303 13.789z" fill="#4AC58C"/><use stroke="#FFF" mask="url(#b)" stroke-width="4" fill="#FFD668" xlink:href="#a"/></g></g></svg>