<svg width="63" height="70" viewBox="0 0 63 70" xmlns="http://www.w3.org/2000/svg" xmlns:xlink="http://www.w3.org/1999/xlink"><title>Palm</title><defs><path d="M15.438 28c10.526 0 10.01 0 14-14s0-14-14-14-10.653 7.096-14 14c-3.346 6.904 3.474 14 14 14z" id="a"/></defs><g fill="none" fill-rule="evenodd"><g transform="translate(30 42)"><mask id="b" fill="#fff"><use xlink:href="#a"/></mask><use fill="#FEE8C1" xlink:href="#a"/><path d="M-6.314 24.39s7.22-9.378 13.53-5.678c1.48.868 4.234 3.182 5.319 5.677 5.707 13.125 18.061-5.677 18.061-5.677" stroke="#6BC9F1" stroke-width="4" mask="url(#b)"/><ellipse fill="#5BBBE4" mask="url(#b)" cx="4.5" cy="26.5" rx="7.5" ry="7.5"/></g><path d="M33.184 32.688s12.12.703 12.12 21.757" stroke="#E59768" stroke-width="4" stroke-linecap="round"/><path d="M20.992 34.761c4.758-.366 9.952-1.026 9.952-1.026 1.087-.131 1.424-.943.72-1.787 0 0-6.317-8.948-15.65-8.948C6.68 23 .363 31.948.363 31.948c-.69.856-.37 1.657.735 1.789 0 0 1.608.204 3.854.448l1.878-2.16 1.045 2.46c2.832.273 5.962.515 8.139.515.388 0 .806-.008 1.248-.022l2.568-2.953 1.162 2.736z" fill="#52DE9D"/><path d="M42.559 31.49c-4.706.796-9.904 1.412-9.904 1.412-1.088.136-1.61-.57-1.132-1.56 0 0 3.965-10.21 13.021-12.468 9.056-2.258 17.35 4.896 17.35 4.896.877.663.76 1.519-.28 1.914 0 0-1.51.587-3.63 1.367l-2.346-1.642-.419 2.64c-2.681.95-5.66 1.942-7.772 2.469-.377.093-.785.187-1.217.28l-3.206-2.244-.465 2.936z" fill="#52DE9D"/><path d="M35.864 11.126c-.283-4.764-.852-9.968-.852-9.968-.113-1.09-.918-1.44-1.774-.752 0 0-9.057 6.16-9.22 15.492-.163 9.333 8.673 15.805 8.673 15.805.844.705 1.65.398 1.802-.703 0 0 .232-1.605.515-3.846l-2.127-1.916 2.478-1.002c.322-2.826.619-5.952.657-8.128.007-.388.006-.807 0-1.25l-2.909-2.618 2.757-1.114z" fill="#52DE9D"/><path d="M20.547 44.552c-2.188 4.482-4.477 9.937-4.477 9.937-.43 1.008.105 1.706 1.188 1.518 0 0 10.908-.997 15.574-9.08 4.667-8.083.076-18.028.076-18.028-.396-1.025-1.25-1.148-1.916-.258 0 0-1.081 1.423-2.518 3.39l.517 1.5-1.474-.18c-1.797 2.498-3.864 5.475-5.077 7.576-.25.433-.513.915-.786 1.433l.837 2.43-1.944-.238z" fill="#52DE9D"/></g></svg>