<svg width="81" height="57" viewBox="0 0 81 57" xmlns="http://www.w3.org/2000/svg" xmlns:xlink="http://www.w3.org/1999/xlink"><title>Shorts</title><defs><path d="M40.361 41.621L31.432 57S0 53.691 0 44.505C0 35.318 16.266 0 16.266 0S30.802 7.608 41 7.608v.049C51.194 7.647 65.28 4 65.28 4S81 34.552 81 43.646C81 52.74 45.095 56 45.095 56l-4.734-14.379z" id="a"/><filter x="-50%" y="-50%" width="200%" height="200%" filterUnits="objectBoundingBox" id="b"><feOffset dx="-2" dy="-1" in="SourceAlpha" result="shadowOffsetInner1"/><feComposite in="shadowOffsetInner1" in2="SourceAlpha" operator="arithmetic" k2="-1" k3="1" result="shadowInnerInner1"/><feColorMatrix values="0 0 0 0 0.921662415 0 0 0 0 0.737912705 0 0 0 0 0.244925677 0 0 0 1 0" in="shadowInnerInner1"/></filter></defs><g fill="none" fill-rule="evenodd"><mask id="c" fill="#fff"><use xlink:href="#a"/></mask><use fill="#FFD668" xlink:href="#a"/><use fill="#000" filter="url(#b)" xlink:href="#a"/><ellipse fill="#FF7166" mask="url(#c)" cx="44" cy=".5" rx="33" ry="11.5"/><path d="M35.606 9.93s-3.335-2.095-4.512 2.78c-1.177 4.875 5.635 9.507-1.788 10.749m10-13.529s3.336-2.095 4.512 2.78c1.177 4.875-4.677 2.932-1.647 6.34" stroke="#785037" stroke-width="2" stroke-linecap="round" stroke-linejoin="round"/><path d="M62.276 42.216l-2.42 2.398c-1.175 1.164-2.297.776-2.506-.863l-.431-3.38-3.029-1.56c-1.47-.758-1.448-1.945.047-2.65l3.08-1.455.55-3.362c.265-1.632 1.401-1.978 2.534-.775l2.335 2.48 3.367-.516c1.635-.252 2.315.722 1.52 2.17l-1.637 2.988 1.532 3.043c.744 1.477.029 2.424-1.595 2.116l-3.347-.634z" fill="#FF7166"/></g></svg>