<svg width="50" height="60" viewBox="0 0 50 60" xmlns="http://www.w3.org/2000/svg" xmlns:xlink="http://www.w3.org/1999/xlink"><title>Slippers</title><defs><path d="M13.888 58c8.805 0 5.158-13.1 6.674-25.435 1.142-9.287 4.29-18.198 4.29-20.447C24.852 6.882 19.964 0 13.888 0 7.813 0 1.125 10.845 1.125 16.08 1.125 19.012-5.612 58 13.888 58z" id="a"/><filter x="-50%" y="-50%" width="200%" height="200%" filterUnits="objectBoundingBox" id="b"><feOffset dx="-2" in="SourceAlpha" result="shadowOffsetInner1"/><feComposite in="shadowOffsetInner1" in2="SourceAlpha" operator="arithmetic" k2="-1" k3="1" result="shadowInnerInner1"/><feColorMatrix values="0 0 0 0 0.305666438 0 0 0 0 0.663368738 0 0 0 0 0.815582483 0 0 0 1 0" in="shadowInnerInner1"/></filter><linearGradient x1="50%" y1="50%" x2="50%" y2="100%" id="c"><stop stop-color="#6BC9F1" offset="0%"/><stop stop-color="#57BBE6" offset="100%"/></linearGradient><path d="M13.888 58c8.805 0 5.158-13.1 6.674-25.435 1.142-9.287 4.29-18.198 4.29-20.447C24.852 6.882 19.964 0 13.888 0 7.813 0 1.125 10.845 1.125 16.08 1.125 19.012-5.612 58 13.888 58z" id="d"/><filter x="-50%" y="-50%" width="200%" height="200%" filterUnits="objectBoundingBox" id="e"><feOffset dx="-2" in="SourceAlpha" result="shadowOffsetInner1"/><feComposite in="shadowOffsetInner1" in2="SourceAlpha" operator="arithmetic" k2="-1" k3="1" result="shadowInnerInner1"/><feColorMatrix values="0 0 0 0 0.305666438 0 0 0 0 0.663368738 0 0 0 0 0.815582483 0 0 0 1 0" in="shadowInnerInner1"/></filter></defs><g fill="none" fill-rule="evenodd"><use fill="#6BC9F1" xlink:href="#a"/><use fill="#000" filter="url(#b)" xlink:href="#a"/><path d="M11.5 56c3.038 0 4.5-2.462 4.5-5.5S14.538 45 11.5 45c-3.038 0-7.5.462-7.5 3.5S8.462 56 11.5 56z" fill="url(#c)"/><path d="M17.5 19c3.038 0 4.5-2.462 4.5-5.5S20.538 8 17.5 8c-3.038 0-7.5.462-7.5 3.5s4.462 7.5 7.5 7.5z" fill="url(#c)" transform="rotate(-126 16 13.5)"/><rect fill="#FF7166" transform="rotate(9 12 11.5)" x="11" y="5" width="2" height="13" rx="1"/><rect fill="#FF7166" transform="rotate(45 7 21.5)" x="6" y="15" width="2" height="13" rx="1"/><rect fill="#FF7166" transform="scale(-1 1) rotate(45 0 -14.713)" x="14" y="15" width="2" height="13" rx="1"/><g transform="scale(-1 1) rotate(-28 -1.978 121.243)"><use fill="#6BC9F1" xlink:href="#d"/><use fill="#000" filter="url(#e)" xlink:href="#d"/><path d="M11.5 56c3.038 0 4.5-2.462 4.5-5.5S14.538 45 11.5 45c-3.038 0-7.5.462-7.5 3.5S8.462 56 11.5 56z" fill="url(#c)"/><path d="M17.5 19c3.038 0 4.5-2.462 4.5-5.5S20.538 8 17.5 8c-3.038 0-7.5.462-7.5 3.5s4.462 7.5 7.5 7.5z" fill="url(#c)" transform="rotate(-126 16 13.5)"/><rect fill="#FF7166" transform="rotate(9 12 11.5)" x="11" y="5" width="2" height="13" rx="1"/><rect fill="#FF7166" transform="rotate(45 7 21.5)" x="6" y="15" width="2" height="13" rx="1"/><rect fill="#FF7166" transform="scale(-1 1) rotate(45 0 -14.713)" x="14" y="15" width="2" height="13" rx="1"/></g></g></svg>