<svg width="71" height="69" viewBox="0 0 71 69" xmlns="http://www.w3.org/2000/svg"><title>Sun</title><g fill="none" fill-rule="evenodd"><circle fill="#FFD668" cx="35.5" cy="35.5" r="18.5"/><path d="M53.67 34c.216 1.133.33 2.303.33 3.5C54 47.717 45.717 56 35.5 56S17 47.717 17 37.5c0-1.197.114-2.367.33-3.5 1.637 8.544 9.15 15 18.17 15 9.02 0 16.533-6.456 18.17-15z" fill="#FBCB4B"/><path d="M33.713 1.574c.987-1.974 2.59-1.969 3.574 0l3.926 7.852C42.2 11.4 41.206 13 39 13h-7c-2.21 0-3.197-1.605-2.213-3.574l3.926-7.852zm27.56 11.55c2.155-.475 3.159.774 2.249 2.777l-3.632 7.993c-.913 2.01-2.782 2.244-4.17.53l-4.405-5.44c-1.39-1.717-.765-3.496 1.384-3.97l8.574-1.89zm8.19 28.805c1.701 1.406 1.335 2.966-.804 3.482l-8.534 2.06c-2.146.517-3.48-.812-2.985-2.961l1.575-6.82c.497-2.153 2.283-2.755 3.98-1.353l6.768 5.592zM52.06 66.225c-.022 2.207-1.465 2.905-3.212 1.567l-6.972-5.337c-1.752-1.341-1.56-3.215.423-4.182l6.291-3.069c1.986-.968 3.578.041 3.556 2.242l-.086 8.78zm-29.91 1.567c-1.752 1.341-3.19.634-3.212-1.567l-.086-8.779c-.022-2.206 1.573-3.209 3.556-2.242l6.291 3.069c1.986.968 2.17 2.844.423 4.182l-6.972 5.337zM2.34 45.412c-2.145-.518-2.5-2.081-.804-3.483l6.768-5.592c1.701-1.406 3.484-.797 3.98 1.352l1.575 6.821c.497 2.153-.845 3.477-2.985 2.96L2.34 45.411zm5.137-29.51c-.912-2.01.1-3.252 2.25-2.778l8.573 1.89c2.155.476 2.772 2.255 1.384 3.97l-4.405 5.44c-1.39 1.716-3.26 1.474-4.17-.53l-3.632-7.993z" fill="#FFD668"/></g></svg>