<?xml version="1.0" encoding="iso-8859-1"?>
<!-- Generator: Adobe Illustrator 19.0.0, SVG Export Plug-In . SVG Version: 6.00 Build 0)  -->
<svg xmlns="http://www.w3.org/2000/svg" xmlns:xlink="http://www.w3.org/1999/xlink" version="1.1" id="Capa_1" x="0px" y="0px" viewBox="0 0 508 508" style="enable-background:new 0 0 508 508;" xml:space="preserve" width="512px" height="512px">
<g>
	<g>
		<path d="M373.3,90.1l-41-65.5H175.7l-41,65.5H0v114.7h24.6v278.6h458.8V204.8H508V90.1H373.3z M184.8,41h138.4l30.7,49.2H154.1    L184.8,41z M467.1,467H467H41V204.8h41v41h81.9v-41h180.3v41h81.9v-41h41V467z M98.3,229.4v-24.6h49.2v24.6H98.3z M360.5,229.4    v-24.6h49.2v24.6H360.5z M491.6,188.5H16.4v-81.9h475.2V188.5z" fill="#20d34a"/>
	</g>
</g>
<g>
	<g>
		<path d="M286.8,303.2V254h-65.5v49.2h-49.2v65.5h49.2v49.2h65.5v-49.2H336v-65.5H286.8z M319.5,352.3h-49.2v49.2h-32.8v-49.2    h-49.2v-32.8h49.2v-49.2h32.8v49.2h49.2V352.3z" fill="#20d34a"/>
	</g>
</g>
<g>
	<g>
		<rect x="245.8" y="139.3" width="16.4" height="16.4" fill="#20d34a"/>
	</g>
</g>
<g>
	<g>
		<rect x="213" y="139.3" width="16.4" height="16.4" fill="#20d34a"/>
	</g>
</g>
<g>
	<g>
		<rect x="278.6" y="139.3" width="16.4" height="16.4" fill="#20d34a"/>
	</g>
</g>
<g>
</g>
<g>
</g>
<g>
</g>
<g>
</g>
<g>
</g>
<g>
</g>
<g>
</g>
<g>
</g>
<g>
</g>
<g>
</g>
<g>
</g>
<g>
</g>
<g>
</g>
<g>
</g>
<g>
</g>
</svg>
