<?xml version="1.0" encoding="iso-8859-1"?>
<!-- Generator: Adobe Illustrator 19.0.0, SVG Export Plug-In . SVG Version: 6.00 Build 0)  -->
<svg xmlns="http://www.w3.org/2000/svg" xmlns:xlink="http://www.w3.org/1999/xlink" version="1.1" id="Capa_1" x="0px" y="0px" viewBox="0 0 508 508" style="enable-background:new 0 0 508 508;" xml:space="preserve" width="512px" height="512px">
<g>
	<g>
		<path d="M442.5,278.65v49.1h-16.4v-24.6H221.2v24.6h-70.3l-85.3-85.3v-94.9H0v344.1h65.5v-98.3h155.7v57.4H426v-57.4h16.4v98.3    H508v-213H442.5z M49.2,475.15H16.4v-311.3h32.8V475.15z M65.5,265.45l62.2,62.2H65.5V265.45z M221.2,376.85H65.5v-32.8h155.7    V376.85z M409.7,434.25H237.6v-114.7h172.1V434.25z M442.5,376.85h-16.4v-32.8h16.4V376.85z M491.6,475.15h-32.8v-180.2h32.8    V475.15z" fill="#20d34a"/>
	</g>
</g>
<g>
	<g>
		<path d="M303.2,16.35H188.5c-22.6,0-41,18.4-41,41v114.7c0,22.6,18.4,40.9,41,40.9h114.7c22.6,0,41-18.4,41-41V57.35    C344.2,34.75,325.8,16.35,303.2,16.35z M327.7,171.95c0,13.6-11,24.6-24.5,24.6H188.5c-13.6,0-24.6-11-24.6-24.6v-49.2h28.5    l27.9-34.8l50.1,83.5l29.2-48.7h28.1V171.95z M327.8,106.55h-37.4l-19.9,33.2l-48.2-80.3l-37.7,47.1H164v-49.2    c-0.1-13.6,10.9-24.6,24.5-24.6h114.7c13.6,0,24.6,11,24.6,24.6V106.55z" fill="#20d34a"/>
	</g>
</g>
<g>
</g>
<g>
</g>
<g>
</g>
<g>
</g>
<g>
</g>
<g>
</g>
<g>
</g>
<g>
</g>
<g>
</g>
<g>
</g>
<g>
</g>
<g>
</g>
<g>
</g>
<g>
</g>
<g>
</g>
</svg>
