<?xml version="1.0" encoding="iso-8859-1"?>
<!-- Generator: Adobe Illustrator 19.0.0, SVG Export Plug-In . SVG Version: 6.00 Build 0)  -->
<svg xmlns="http://www.w3.org/2000/svg" xmlns:xlink="http://www.w3.org/1999/xlink" version="1.1" id="Capa_1" x="0px" y="0px" viewBox="0 0 508.028 508.028" style="enable-background:new 0 0 508.028 508.028;" xml:space="preserve" width="512px" height="512px">
<g>
	<g>
		<path d="M360.614,0c-28.3,0-55.8,9.1-79.5,26.2c-16.4,11.9-37.7,11.9-54.1,0c-23.6-17.1-51.1-26.2-79.4-26.2    c-81.3,0-147.5,74.6-147.5,166.3c0,17.3,10.6,39.8,22.9,65.8c11.6,24.7,24.8,52.6,31.3,81c5.8,25.3,7.3,51.4,8.7,76.7    c2.1,37.4,4.1,72.6,19.7,100.7c7.2,13,20.2,19.5,33.7,17c14.4-2.7,25.1-14.7,27.4-30.6c8.3-58.2,28.1-113.3,58.6-164    c11.1-18.4,30.4-29.3,51.6-29.3s40.5,11,51.6,29.3c30.6,50.6,50.3,105.8,58.6,164c2.3,15.9,12.9,28.5,27.4,30.6    c16.3,2.4,27.5-5.8,33.7-17c15.6-28,17.6-63.3,19.7-100.7c1.4-25.3,2.9-51.4,8.7-76.7c6.5-28.4,19.7-56.4,31.3-81    c12.3-26,22.9-48.5,22.9-65.8C508.114,74.6,441.914,0,360.614,0z M470.414,225.2c-12,25.4-25.6,54.2-32.5,84.4    c-6.1,26.6-7.6,53.5-9.1,79.4c-2,35.4-3.9,68.9-17.7,93.6c-3.8,6.7-9.9,10-16.4,8.8c-7.3-1.4-12.9-7.9-14.2-16.8    c-8.6-60.4-29.1-117.6-60.8-170.1c-14.1-23.3-38.6-37.2-65.7-37.2c-27.1,0-51.6,13.9-65.7,37.2c-31.7,52.5-52.2,109.8-60.8,170.1    c-1.3,8.8-6.8,15.4-14.2,16.8c-6.5,1.2-12.7-2.1-16.4-8.8c-13.8-24.7-15.7-58.2-17.7-93.6c-1.5-25.9-3-52.8-9.1-79.4    c-6.9-30.1-20.5-59-32.5-84.4c-11.4-24.2-21.3-45.2-21.3-58.8c0-82.7,58.8-149.9,131.1-149.9c24.8,0,49,8,69.9,23.1    c21.9,15.9,51.4,15.9,73.3,0c20.9-15.1,45-23.1,69.9-23.1c72.3,0,131.1,67.3,131.1,149.9C491.714,180,481.814,200.9,470.414,225.2    z" fill="#20d34a"/>
	</g>
</g>
<g>
	<g>
		<path d="M385.214,49.2h-16.4c0,37.4-28.2,65.5-65.5,65.5v16.4c37.4,0,65.5,28.2,65.5,65.5h16.4c0-37.4,28.2-65.5,65.5-65.5v-16.4    C413.414,114.7,385.214,86.5,385.214,49.2z M377.014,159.7c-7.8-16.2-20.6-29-36.8-36.8c16.2-7.8,29-20.6,36.8-36.8    c7.8,16.2,20.6,29,36.8,36.8C397.614,130.7,384.814,143.5,377.014,159.7z" fill="#20d34a"/>
	</g>
</g>
<g>
	<g>
		<path d="M139.414,163.9h-16.4c0,23.7-17.2,41-41,41v16.4c23.7,0,41,17.2,41,41h16.4c0-23.7,17.2-41,41-41v-16.4    C156.614,204.8,139.414,187.6,139.414,163.9z M131.214,231.8c-4.6-7.7-11-14.1-18.8-18.8c7.7-4.6,14.1-11,18.8-18.8    c4.6,7.7,11,14.1,18.8,18.8C142.214,217.7,135.814,224.1,131.214,231.8z" fill="#20d34a"/>
	</g>
</g>
<g>
</g>
<g>
</g>
<g>
</g>
<g>
</g>
<g>
</g>
<g>
</g>
<g>
</g>
<g>
</g>
<g>
</g>
<g>
</g>
<g>
</g>
<g>
</g>
<g>
</g>
<g>
</g>
<g>
</g>
</svg>
