<?xml version="1.0" encoding="iso-8859-1"?>
<!-- Generator: Adobe Illustrator 19.0.0, SVG Export Plug-In . SVG Version: 6.00 Build 0)  -->
<svg xmlns="http://www.w3.org/2000/svg" xmlns:xlink="http://www.w3.org/1999/xlink" version="1.1" id="Capa_1" x="0px" y="0px" viewBox="0 0 508 508" style="enable-background:new 0 0 508 508;" xml:space="preserve" width="512px" height="512px">
<g>
	<g>
		<path d="M0,0v57.4h32.8v360.5c0,49.7,40.4,90.1,90.1,90.1c49.7,0,90.1-40.4,90.1-90.1V57.4h32.8V0H0z M196.6,417.9    c0,40.6-33,73.7-73.7,73.7s-73.7-33.1-73.7-73.7v-248l14.6-4.7c17.9-5.7,37.2-4.4,54.1,3.7c12.2,5.9,35,11.5,50.7,8.1l28-3.7    V417.9z M196.6,156.7l-30.2,4c-14.2,1.9-28.5-0.4-41.5-6.6c-20.8-10-44.3-11.6-66.2-4.6l-9.6,3.1V57.4h147.5V156.7z M229.4,41    h-213V16.4h213V41z" fill="#20d34a"/>
	</g>
</g>
<g>
	<g>
		<path d="M262.2,0v57.4H295v360.5c0,49.7,40.4,90.1,90.1,90.1s90.1-40.4,90.1-90.1V57.4H508V0H262.2z M458.8,417.9    c0,40.6-33,73.7-73.7,73.7c-40.7,0-73.7-33.1-73.7-73.7V254.1l14.6-4.7c17.9-5.7,37.2-4.4,54.1,3.7c12.2,5.9,30.8,10.4,50.7,8.1    l28-3.7V417.9z M311.3,236.9V57.4h147.5V241l-30.2,4c-14.2,1.9-28.5-0.4-41.5-6.6c-20.8-10-44.3-11.6-66.2-4.6L311.3,236.9z     M491.6,41h-213V16.4h213V41z" fill="#20d34a"/>
	</g>
</g>
<g>
	<g>
		<path d="M90.1,229.4c-13.6,0-24.6,11-24.6,24.6c0,13.6,11,24.6,24.6,24.6c13.6,0,24.6-11,24.6-24.6    C114.7,240.4,103.7,229.4,90.1,229.4z M90.1,262.2c-4.5,0-8.2-3.7-8.2-8.2s3.7-8.2,8.2-8.2s8.2,3.7,8.2,8.2S94.6,262.2,90.1,262.2    z" fill="#20d34a"/>
	</g>
</g>
<g>
	<g>
		<path d="M155.7,295c-13.6,0-24.6,11-24.6,24.6c0,13.6,11,24.6,24.6,24.6c13.6,0,24.6-11,24.6-24.6C180.3,306,169.2,295,155.7,295z     M155.7,327.7c-4.5,0-8.2-3.7-8.2-8.2s3.7-8.2,8.2-8.2s8.2,3.7,8.2,8.2C163.9,324.1,160.2,327.7,155.7,327.7z" fill="#20d34a"/>
	</g>
</g>
<g>
	<g>
		<path d="M122.9,385.1c-13.6,0-24.6,11-24.6,24.6c0,13.6,11,24.6,24.6,24.6c13.6,0,24.6-11,24.6-24.6    C147.5,396.1,136.5,385.1,122.9,385.1z M122.9,417.9c-4.5,0-8.2-3.7-8.2-8.2s3.7-8.2,8.2-8.2s8.2,3.7,8.2,8.2    C131.1,414.2,127.4,417.9,122.9,417.9z" fill="#20d34a"/>
	</g>
</g>
<g>
	<g>
		<path d="M360.5,294.9c-13.6,0-24.6,11-24.6,24.6c0,13.6,11,24.6,24.6,24.6c13.6,0,24.6-11,24.6-24.6    C385.1,305.9,374.1,294.9,360.5,294.9z M360.5,327.7c-4.5,0-8.2-3.7-8.2-8.2s3.7-8.2,8.2-8.2s8.2,3.7,8.2,8.2    C368.7,324.1,365,327.7,360.5,327.7z" fill="#20d34a"/>
	</g>
</g>
<g>
	<g>
		<path d="M393.3,385.1c-13.6,0-24.6,11-24.6,24.6c0,13.6,11,24.6,24.6,24.6c13.6,0,24.6-11,24.6-24.6    C417.9,396.1,406.8,385.1,393.3,385.1z M393.3,417.9c-4.5,0-8.2-3.7-8.2-8.2s3.7-8.2,8.2-8.2s8.2,3.7,8.2,8.2    C401.5,414.2,397.8,417.9,393.3,417.9z" fill="#20d34a"/>
	</g>
</g>
<g>
</g>
<g>
</g>
<g>
</g>
<g>
</g>
<g>
</g>
<g>
</g>
<g>
</g>
<g>
</g>
<g>
</g>
<g>
</g>
<g>
</g>
<g>
</g>
<g>
</g>
<g>
</g>
<g>
</g>
</svg>
