<?xml version="1.0" encoding="iso-8859-1"?>
<!-- Generator: Adobe Illustrator 19.0.0, SVG Export Plug-In . SVG Version: 6.00 Build 0)  -->
<svg xmlns="http://www.w3.org/2000/svg" xmlns:xlink="http://www.w3.org/1999/xlink" version="1.1" id="Capa_1" x="0px" y="0px" viewBox="0 0 508 508" style="enable-background:new 0 0 508 508;" xml:space="preserve" width="512px" height="512px">
<g>
	<g>
		<path d="M0,57.35v360.5h73.7v32.8h360.5v-32.8H508V57.35H0z M90.1,434.25v-16.4h327.7v16.4H90.1z M491.6,401.45H16.4V73.65h475.2    V401.45z" fill="#20d34a"/>
	</g>
</g>
<g>
	<g>
		<path d="M458.8,106.45H49.2v262.2h409.7v-262.2H458.8z M442.4,352.25H65.5v-98.3H139l40.8-72.7l73.7,147.5l74.2-131.8l31.9,57.1    h82.8V352.25z M442.5,237.65h-73.2l-41.5-74.3l-73.3,130.4l-73.7-147.5l-51.3,91.2h-64v-114.6h377V237.65z" fill="#20d34a"/>
	</g>
</g>
<g>
	<g>
		<rect x="278.6" y="376.85" width="16.4" height="16.4" fill="#20d34a"/>
	</g>
</g>
<g>
	<g>
		<rect x="245.8" y="376.85" width="16.4" height="16.4" fill="#20d34a"/>
	</g>
</g>
<g>
	<g>
		<rect x="213" y="376.85" width="16.4" height="16.4" fill="#20d34a"/>
	</g>
</g>
<g>
</g>
<g>
</g>
<g>
</g>
<g>
</g>
<g>
</g>
<g>
</g>
<g>
</g>
<g>
</g>
<g>
</g>
<g>
</g>
<g>
</g>
<g>
</g>
<g>
</g>
<g>
</g>
<g>
</g>
</svg>
