<?xml version="1.0" encoding="utf-8"?>
<!-- Generator: Adobe Illustrator 16.0.0, SVG Export Plug-In . SVG Version: 6.00 Build 0)  -->
<!DOCTYPE svg PUBLIC "-//W3C//DTD SVG 1.1//EN" "http://www.w3.org/Graphics/SVG/1.1/DTD/svg11.dtd">
<svg version="1.1" id="Layer_1" xmlns="http://www.w3.org/2000/svg" xmlns:xlink="http://www.w3.org/1999/xlink" x="0px" y="0px"
	 width="15px" height="15px" viewBox="0 0 15 15" enable-background="new 0 0 15 15" xml:space="preserve">
<g>
	<path fill="#452C78" d="M0.062,11.717c0-1.25,0.094-2.479,0.284-3.69C0.724,5.908,1.5,4.309,2.673,3.23
		c1.172-1.078,2.705-1.618,4.598-1.618L6.874,3.883c-0.984,0-1.741,0.265-2.271,0.795c-0.53,0.53-0.89,1.325-1.079,2.384
		L3.297,8.367h2.838l-0.852,4.881H0.119C0.081,12.908,0.062,12.396,0.062,11.717z M7.725,11.717c0-1.25,0.094-2.479,0.284-3.69
		c0.378-2.119,1.154-3.718,2.327-4.796c1.173-1.078,2.705-1.618,4.598-1.618l-0.397,2.271c-0.984,0-1.741,0.265-2.271,0.795
		c-0.53,0.53-0.89,1.325-1.078,2.384L10.96,8.367h2.839l-0.852,4.881H7.782C7.744,12.908,7.725,12.396,7.725,11.717z"/>
</g>
</svg>
