<svg xmlns="http://www.w3.org/2000/svg"><path d="M138.955 87.145c-.438-8.226-5.951-13.915-18.203-13.915-11.027 0-19.08 4.638-19.08 14.002 0 15.666 25.643 9.89 26.08 18.903.088 2.538-3.15 3.938-6.738 3.938-1.4 0-3.676-.35-4.812-1.05-1.227-.7-2.102-2.626-2.627-5.164h-13.127c.176 10.064 8.139 15.666 19.779 15.666 12.076 0 19.953-4.639 20.041-14.878.174-15.315-26.168-12.077-26.168-18.553 0-3.5 2.801-4.113 5.951-4.113 1.488 0 2.713.175 3.764.788 1.049.525 2.537 2.888 2.801 4.375h12.339v.001zm17.24 31.418v-14.002h17.94v-10.24h-17.94V85.57h20.303V74.368h-33.605v44.195h13.302zM47.5 95.372c2.801-1.838 6.126-4.114 6.126-9.627 0-8.752-7.526-11.377-17.503-11.377H16.257v44.195h20.304c11.464 0 19.516-3.15 19.516-12.952 0-6.126-3.763-9.014-8.577-10.239zM29.56 84.607h6.651c3.062 0 5.601.35 5.601 3.851 0 2.538-1.838 3.5-4.639 3.5H29.56v-7.351zm7.964 24.242H29.56v-8.488h6.213c4.638 0 7.526.087 7.526 3.938.001 3.325-2.275 4.55-5.775 4.55zm48.309-34.481H71.13l-15.753 44.195h13.39L70.692 112h15.315l1.838 6.563h13.827L85.833 74.368zm-12.428 28.443l4.901-16.278 4.988 16.278h-9.889z" fill-rule="evenodd" clip-rule="evenodd"/></svg>