<svg xmlns="http://www.w3.org/2000/svg" width="2500" height="2500" viewBox="0 0 192.756 192.756"><g fill-rule="evenodd" clip-rule="evenodd"><path d="M162.297 107.838c-5.453.084-5.453-3.057-5.453-3.057V102.4c-.055-1.799 1.689-2.602 1.689-2.602.885-.582 3.68-.525 3.68-.525 1.799-.111 1.676-1.357 1.676-1.357V96.27c.082-1.881-1.592-1.647-1.592-1.647-1.494.028-1.273 1.647-1.273 1.647 0 1.633-1.301 1.641-1.301 1.641h-3.025c-.305-5.564 5.971-5.169 5.971-5.169 5.451-.083 5.451 3.044 5.451 3.044v12.053h-5.823v-.001zM27.493 89.343l7.336 4.649v.333s-6.532-.111-6.864 5.314h-.945c-.332-5.425-6.864-5.314-6.864-5.314v-.333l7.337-4.649zm0 22.011l7.336-4.65v-.332s-6.532.111-6.864-5.314h-.945c-.332 5.426-6.864 5.314-6.864 5.314v.332l7.337 4.65z"/><path d="M40.304 78.438v22.64s-.332 11.402-13.395 11.623c0 0-10.185-.332-11.735-10.627 0 0-1.107-6.421 4.649-11.071 0 0-11.975.129-11.292 12.325 0 0 0 11.311 18.267 11.09 0 0 20.813 1.383 20.481-11.846V78.438h-6.975z"/><path d="M38.367 86.489c-.818.765-2.026 1.251-3.376 1.251-2.464 0-4.462-1.612-4.462-3.601 0-1.989 1.998-3.601 4.462-3.601 1.351 0 2.559.486 3.376 1.251v-2.567a7.632 7.632 0 0 0-3.432-.798c-3.718 0-6.732 2.559-6.732 5.715 0 3.156 3.014 5.714 6.732 5.714a7.62 7.62 0 0 0 3.432-.799v-2.565zm-19.824-.011c1.578 1.107 3.921 1.092 3.921 1.092 2.574-.11 2.297-1.301 2.297-1.301.077-1.073-3.681-1.217-3.681-1.217-3.653-.333-3.266-3.184-3.266-3.184.498-4.124 4.871-3.543 4.871-3.543 2.436.167 4.429 1.052 4.429 1.052l-.712 2.09c-1.578-1.107-3.922-1.092-3.922-1.092-2.574.111-2.297 1.301-2.297 1.301-.159 1.197 3.722 1.3 3.722 1.3 3.653.332 3.225 3.101 3.225 3.101-.498 4.124-4.871 3.543-4.871 3.543-2.436-.166-4.428-1.052-4.428-1.052l.712-2.09zm67.816 20.579h2.14V95.542s.111-3.487-3.432-3.487h-7.934v15.001h4.207V95.468a1.329 1.329 0 0 1 2.657 0v9.448s-.295 2.361 2.362 2.141zm40.592 0h2.141V95.542s.111-3.487-3.432-3.487h-7.936v15.001h4.207V95.468a1.33 1.33 0 0 1 2.658 0v9.448c.001 0-.294 2.361 2.362 2.141zm-53.951 0h2.14V95.542s.111-3.497-3.432-3.497h-3.875l-.073-7.361-3.986.009v22.364h4.207V95.468a1.329 1.329 0 0 1 2.657 0v9.448s-.295 2.361 2.362 2.141zm36.496.381s-5.979.406-6.088-3.912v-7.348c.109-4.318 6.088-3.912 6.088-3.912s5.979-.406 6.09 3.912v7.348c-.111 4.318-6.09 3.912-6.09 3.912zm-53.877 0s-5.978.406-6.089-3.912v-7.348c.111-4.318 6.089-3.912 6.089-3.912s5.978-.406 6.089 3.912v7.348c-.111 4.318-6.089 3.912-6.089 3.912zm34.523-5.405c-.305 5.562 5.97 5.16 5.97 5.16 5.453.084 5.453-3.043 5.453-3.043v-2.381c.055-1.799-1.689-2.602-1.689-2.602-.885-.582-3.68-.525-3.68-.525-1.799-.111-1.675-1.357-1.675-1.357V95.64c-.083-1.882 1.592-1.647 1.592-1.647 1.494.028 1.273 1.647 1.273 1.647 0 1.634 1.301 1.64 1.301 1.64h3.025c.305-5.563-5.97-5.169-5.97-5.169-5.452-.083-5.452 3.044-5.452 3.044v2.38c-.055 1.799 1.688 2.602 1.688 2.602.886.58 3.681.525 3.681.525 1.799.111 1.674 1.355 1.674 1.355v1.648c.084 1.881-1.591 1.646-1.591 1.646-1.495-.027-1.273-1.646-1.273-1.646 0-1.633-1.301-1.648-1.301-1.648l-3.026.016z"/><path d="M163.879 101.273c-.607.029-1.129.02-1.129.02-1.799.111-1.674 1.355-1.674 1.355v1.646c-.084 1.883 1.592 1.646 1.592 1.646 1.494-.027 1.211-1.646 1.211-1.646v-3.021zm-55.711-5.665v8.488a1.327 1.327 0 1 0 2.656 0v-8.488a1.328 1.328 0 1 0-2.656 0zm-53.877 0v8.488a1.328 1.328 0 0 0 2.658 0v-8.488a1.329 1.329 0 0 0-2.658 0z" fill="#fff"/><path d="M148.125 94.18c-.109-1.329-1.742-1.365-1.742-1.365h-2.66v11.66a1.327 1.327 0 1 1-2.654 0V94.18c-.111-1.329-1.715-1.365-1.715-1.365h-2.67v12.473s-.191 2.141 2.762 2.361h5.572c.775-.564.902-1.346.902-1.346s.129.781.902 1.346h8.344V92.814h-4.355v11.66c0 .734-.594 1.33-1.328 1.33s-1.357-.596-1.357-1.33V94.18h-.001zm30.473 5.744l4.834-7.042h-4.354l-2.752 3.936-2.008-2.75s-.85-1.187-2.031-1.187h-4.234l5.645 7.694-4.951 7.084h4.539l2.711-3.949 1.99 2.711s.85 1.238 2.029 1.238h4.236l-5.654-7.735z"/></g></svg>