<?xml version="1.0" encoding="iso-8859-1"?>
<!-- Generator: Adobe Illustrator 19.0.0, SVG Export Plug-In . SVG Version: 6.00 Build 0)  -->
<svg xmlns="http://www.w3.org/2000/svg" xmlns:xlink="http://www.w3.org/1999/xlink" version="1.1" id="Capa_1" x="0px" y="0px" viewBox="0 0 507.988 507.988" style="enable-background:new 0 0 507.988 507.988;" xml:space="preserve" width="512px" height="512px">
<g>
	<g>
		<path d="M229.4,266.302h16.4c0-31.6,25.7-57.4,57.4-57.4v-16.4C262.5,192.602,229.4,225.602,229.4,266.302z" fill="#20d34a"/>
	</g>
</g>
<g>
	<g>
		<path d="M496,401.202l-69.9-69.9l-11.6,11.6l-14.8-14.8c11.5-17.8,18.2-39,18.2-61.8c0-13-2.3-25.5-6.3-37.2    c9.6-19.3,14.5-37.1,14.5-52.9c0-76.8-54.4-139.3-121.2-139.3c-35.3,0-68.9,17.9-91.8,48.5c-22.9-30.6-56.5-48.5-91.8-48.5    c-66.9,0-121.3,62.5-121.3,139.3c0,101.4,213,255.9,213,255.9s32.8-23.7,67.4-53.4c36.9,7.1,66.7-4.5,84.5-15.9l14.8,14.8    l-11.6,11.6l69.9,69.9c8.3,9.9,36.9,21.1,57.9,0C512,443.202,512,417.202,496,401.202z M121.2,53.302c62.8,0,91.8,62.3,91.8,62.3    c21.8-42.2,58.4-62.3,91.8-62.3c57.8,0,104.8,55.1,104.8,122.9c0,9.9-2.5,21-7.2,33c-19.8-34.4-56.9-57.6-99.3-57.6    c-26.7,0-51.2,9.2-70.7,24.6h-49.5l-9,22.6l-16-64.1l-32.2,72.5l-23.6-109.9l-49.3,78.9H16.4    C16.4,108.402,63.4,53.302,121.2,53.302z M213,411.802c-28.6-21.4-176.4-135.1-194.7-219.2h43.6l32.7-52.2l25.6,119.6l33.3-75    l16.8,67l23.7-59.3h21.4c-16.8,20-27,45.7-27,73.7c0,48.6,30.4,90.2,73.2,106.8C239.6,391.702,221.3,405.602,213,411.802z     M303.1,364.602c-54.2,0-98.3-44.1-98.3-98.3s44.1-98.3,98.3-98.3s98.3,44.1,98.3,98.3S357.3,364.602,303.1,364.602z     M378.2,352.902c4.1-3.6,8-7.5,11.6-11.6l13.1,13.1l-11.6,11.6L378.2,352.902z M484.4,447.602c-9.6,9.6-25.2,9.6-34.8,0    l-58.4-58.3l34.8-34.8l58.4,58.4C494,422.402,494,438.002,484.4,447.602z" fill="#20d34a"/>
	</g>
</g>
<g>
	<g>
		<rect x="415.458" y="378.6" transform="matrix(0.7071 -0.7071 0.7071 0.7071 -149.422 412.8624)" width="16.4" height="16.4" fill="#20d34a"/>
	</g>
</g>
<g>
	<g>
		<rect x="438.692" y="401.771" transform="matrix(0.7071 -0.7071 0.7071 0.7071 -159.0011 436.0782)" width="16.4" height="16.4" fill="#20d34a"/>
	</g>
</g>
<g>
	<g>
		<rect x="461.908" y="424.955" transform="matrix(0.707 -0.7072 0.7072 0.707 -168.5917 459.3755)" width="16.4" height="16.4" fill="#20d34a"/>
	</g>
</g>
<g>
</g>
<g>
</g>
<g>
</g>
<g>
</g>
<g>
</g>
<g>
</g>
<g>
</g>
<g>
</g>
<g>
</g>
<g>
</g>
<g>
</g>
<g>
</g>
<g>
</g>
<g>
</g>
<g>
</g>
</svg>
