<?xml version="1.0" encoding="iso-8859-1"?>
<!-- Generator: Adobe Illustrator 19.0.0, SVG Export Plug-In . SVG Version: 6.00 Build 0)  -->
<svg xmlns="http://www.w3.org/2000/svg" xmlns:xlink="http://www.w3.org/1999/xlink" version="1.1" id="Capa_1" x="0px" y="0px" viewBox="0 0 508.1 508.1" style="enable-background:new 0 0 508.1 508.1;" xml:space="preserve" width="512px" height="512px">
<g>
	<g>
		<path d="M254.1,139.35c-63.2,0-114.7,51.4-114.7,114.7s51.5,114.7,114.7,114.7s114.7-51.5,114.7-114.7S317.4,139.35,254.1,139.35z     M254.1,352.35c-54.2,0-98.3-44.1-98.3-98.3c0-54.2,44.1-98.3,98.3-98.3s98.3,44.1,98.3,98.3    C352.4,308.25,308.4,352.35,254.1,352.35z" fill="#20d34a"/>
	</g>
</g>
<g>
	<g>
		<path d="M188.6,254.05H205c0-27.1,22-49.2,49.2-49.2v-16.4C218,188.55,188.6,217.95,188.6,254.05z" fill="#20d34a"/>
	</g>
</g>
<g>
	<g>
		<path d="M467.1,426.05c-8.3,0-16.1,2.5-22.6,6.8l-69.1-69.1c26.3-29.1,42.5-67.5,42.5-109.7c0-42.2-16.2-80.6-42.5-109.7    l34.2-34.2c10.3,7.9,23.2,12.6,37.1,12.6c33.8,0,61.4-27.5,61.4-61.3c0-33.8-27.5-61.4-61.4-61.4c-33.8,0-61.3,27.5-61.3,61.3    c0,14,4.7,26.8,12.6,37.1l-34.2,34.2c-29.1-26.3-67.5-42.5-109.7-42.5c-50.5,0-95.7,23-125.7,59l-52-47.9c3.5-6,5.6-12.9,5.6-20.3    c0-22.6-18.3-41-41-41c-22.6,0-41,18.3-41,41c0,22.6,18.3,41,41,41c9.3,0,17.7-3.2,24.6-8.4l52.8,48.7    c-17.7,26.2-28.1,57.8-28.1,91.8c0,90.3,73.5,163.8,163.8,163.8c42.2,0,80.6-16.2,109.7-42.5l69.1,69.1    c-4.3,6.5-6.8,14.2-6.8,22.6c0,22.6,18.4,41,41,41c22.6,0,41-18.4,41-41C508.1,444.45,489.7,426.05,467.1,426.05z M446.7,16.45    c24.8,0,45,20.2,45,45c0,24.8-20.2,45-45,45s-45-20.2-45-45C401.7,36.65,422,16.45,446.7,16.45z M41.1,105.55    c-13.6,0-24.6-11-24.6-24.6c0-13.6,11-24.6,24.6-24.6s24.6,11,24.6,24.6C65.7,94.55,54.6,105.55,41.1,105.55z M254.1,401.55    c-81.3,0-147.5-66.1-147.5-147.5s66.2-147.5,147.5-147.5s147.5,66.2,147.5,147.5S335.5,401.55,254.1,401.55z M467.1,491.65    c-13.6,0-24.6-11-24.6-24.6c0-13.6,11-24.6,24.6-24.6c13.6,0,24.6,11,24.6,24.6C491.7,480.65,480.7,491.65,467.1,491.65z" fill="#20d34a"/>
	</g>
</g>
<g>
</g>
<g>
</g>
<g>
</g>
<g>
</g>
<g>
</g>
<g>
</g>
<g>
</g>
<g>
</g>
<g>
</g>
<g>
</g>
<g>
</g>
<g>
</g>
<g>
</g>
<g>
</g>
<g>
</g>
</svg>
