<?xml version="1.0" encoding="iso-8859-1"?>
<!-- Generator: Adobe Illustrator 19.0.0, SVG Export Plug-In . SVG Version: 6.00 Build 0)  -->
<svg xmlns="http://www.w3.org/2000/svg" xmlns:xlink="http://www.w3.org/1999/xlink" version="1.1" id="Capa_1" x="0px" y="0px" viewBox="0 0 508 508" style="enable-background:new 0 0 508 508;" xml:space="preserve" width="512px" height="512px">
<g>
	<g>
		<path d="M295.8,41.75c-94.7,0-177.5,62.6-203.7,153H0v16.5h204c29.2,0,53,23.8,53,53c0,29-23.5,52.7-52.5,52.9H1.9v57.3h119.2    c39.7,57.6,104.2,91.8,174.7,91.8c117-0.1,212.2-95.3,212.2-212.3S412.8,41.75,295.8,41.75z M204,194.75h-40.3    c23.2-51.6,74.9-85.5,132.1-85.5c79.8,0,144.7,64.9,144.7,144.7c0,22.1-4.9,43.3-14.5,63.2h-54.7c15-12.7,24.6-31.7,24.6-52.9    c0-38.3-31.1-69.4-69.4-69.4c-26.4,0-49.5,14.9-61.2,36.7C253.5,209.55,230.4,194.75,204,194.75z M326.9,317.05h-1    c-29-0.3-52.5-23.9-52.5-52.9c0-29.2,23.8-53,53-53s53,23.8,53,53C379.4,293.15,355.9,316.85,326.9,317.05z M265.2,296.95    c4.1,7.7,9.7,14.5,16.4,20.2h-32.7C255.5,311.45,261,304.65,265.2,296.95z M18.3,357.85v-24.3h0.1h398.2    c-5.8,8.8-12.6,17-20.3,24.3H18.3z M375.9,374.35c-23.6,15.7-51.3,24.3-80.1,24.3c-28.8,0-56.5-8.6-80-24.3H375.9z M295.8,449.65    c-61.1,0-117.3-27.8-154.3-75.3h47.3c29.5,26.3,67.3,40.8,106.9,40.8c40.8,0,80.8-14.2,109.6-43c35.7-35.6,51.7-73.6,51.7-118.2    c0-88.9-72.3-161.2-161.2-161.2c-66.1,0-125.6,40.8-149.8,102h-36.6c25.5-80.9,100.6-136.5,186.4-136.5    c107.9,0,195.7,87.8,195.7,195.7S403.7,449.65,295.8,449.65z" fill="#20d34a"/>
	</g>
</g>
<g>
</g>
<g>
</g>
<g>
</g>
<g>
</g>
<g>
</g>
<g>
</g>
<g>
</g>
<g>
</g>
<g>
</g>
<g>
</g>
<g>
</g>
<g>
</g>
<g>
</g>
<g>
</g>
<g>
</g>
</svg>
