<?xml version="1.0" encoding="iso-8859-1"?>
<!-- Generator: Adobe Illustrator 19.0.0, SVG Export Plug-In . SVG Version: 6.00 Build 0)  -->
<svg xmlns="http://www.w3.org/2000/svg" xmlns:xlink="http://www.w3.org/1999/xlink" version="1.1" id="Layer_1" x="0px" y="0px" viewBox="0 0 512 512" style="enable-background:new 0 0 512 512;" xml:space="preserve" width="512px" height="512px">
<g>
	<g>
		<g>
			<path d="M162.133,256h34.133c4.719,0,8.533-3.823,8.533-8.533s-3.814-8.533-8.533-8.533h-34.133     c-4.719,0-8.533,3.823-8.533,8.533S157.414,256,162.133,256z" fill="#ffb606"/>
			<path d="M128,204.8c4.719,0,8.533-3.823,8.533-8.533s-3.814-8.533-8.533-8.533H93.867c-4.719,0-8.533,3.823-8.533,8.533v68.267     c0,4.71,3.814,8.533,8.533,8.533H128c4.719,0,8.533-3.823,8.533-8.533c0-4.71-3.814-8.533-8.533-8.533h-25.6v-17.067H128     c4.719,0,8.533-3.823,8.533-8.533s-3.814-8.533-8.533-8.533h-25.6V204.8H128z" fill="#ffb606"/>
			<path d="M256,409.6c-4.719,0-8.533,3.823-8.533,8.533v22.067l-57.233,57.233c-3.336,3.337-3.336,8.73,0,12.066     c1.664,1.664,3.849,2.5,6.033,2.5c2.185,0,4.369-0.836,6.033-2.5l59.733-59.733c1.596-1.604,2.5-3.772,2.5-6.033v-25.6     C264.533,413.423,260.719,409.6,256,409.6z" fill="#ffb606"/>
			<path d="M287.633,463.3c-3.337-3.337-8.73-3.337-12.066,0c-3.337,3.336-3.337,8.73,0,12.066L309.7,509.5     c1.664,1.664,3.849,2.5,6.033,2.5c2.185,0,4.369-0.836,6.033-2.5c3.337-3.336,3.337-8.73,0-12.066L287.633,463.3z" fill="#ffb606"/>
			<path d="M503.467,17.067H264.533V8.533C264.533,3.823,260.719,0,256,0s-8.533,3.823-8.533,8.533v8.533H8.533     C3.814,17.067,0,20.89,0,25.6v34.133c0,4.71,3.814,8.533,8.533,8.533h443.733c4.719,0,8.533-3.823,8.533-8.533     s-3.814-8.533-8.533-8.533h-435.2V34.133h477.867V51.2H486.4c-4.719,0-8.533,3.823-8.533,8.533v290.133     c0,14.114-11.486,25.6-25.6,25.6H59.733c-14.114,0-25.6-11.486-25.6-25.6v-256c0-4.71-3.814-8.533-8.533-8.533     s-8.533,3.823-8.533,8.533v256c0,23.526,19.14,42.667,42.667,42.667h392.533c23.526,0,42.667-19.14,42.667-42.667v-281.6h8.533     c4.719,0,8.533-3.823,8.533-8.533V25.6C512,20.89,508.186,17.067,503.467,17.067z" fill="#ffb606"/>
			<path d="M426.667,196.267c0-14.114-11.486-25.6-25.6-25.6c-14.114,0-25.6,11.486-25.6,25.6c0,4.71,3.814,8.533,8.533,8.533     c4.719,0,8.533-3.823,8.533-8.533c0-4.702,3.823-8.533,8.533-8.533s8.533,3.831,8.533,8.508     c-0.205,2.645-6.861,9.762-13.653,14.532l-17.067,12.8c-2.935,2.21-4.139,6.042-2.97,9.523c1.152,3.49,4.412,5.837,8.09,5.837     h34.133c4.719,0,8.533-3.823,8.533-8.533s-3.814-8.533-8.533-8.533h-8.516C416.145,216.704,426.667,206.754,426.667,196.267z" fill="#ffb606"/>
			<path d="M332.8,204.8c4.71,0,8.533,3.831,8.533,8.533c0,4.71,3.814,8.533,8.533,8.533s8.533-3.823,8.533-8.533     c0-14.114-11.486-25.6-25.6-25.6c-14.114,0-25.6,11.486-25.6,25.6v34.133c0,14.114,11.486,25.6,25.6,25.6     c14.114,0,25.6-11.486,25.6-25.6c0-4.71-3.814-8.533-8.533-8.533s-8.533,3.823-8.533,8.533c0,4.702-3.823,8.533-8.533,8.533     c-4.71,0-8.533-3.831-8.533-8.533v-34.133C324.267,208.631,328.09,204.8,332.8,204.8z" fill="#ffb606"/>
			<path d="M281.6,273.067c4.719,0,8.533-3.823,8.533-8.533v-68.267c0-3.678-2.347-6.929-5.837-8.098     c-3.49-1.152-7.313,0.051-9.523,2.978L256,216.183l-18.773-25.037c-2.202-2.935-6.025-4.139-9.523-2.978     c-3.49,1.169-5.837,4.42-5.837,8.098v68.267c0,4.71,3.814,8.533,8.533,8.533s8.533-3.823,8.533-8.533v-42.667l10.24,13.653     c3.217,4.301,10.436,4.301,13.653,0l10.24-13.653v42.667C273.067,269.244,276.881,273.067,281.6,273.067z" fill="#ffb606"/>
			<path d="M162.133,221.867h34.133c4.719,0,8.533-3.823,8.533-8.533c0-4.71-3.814-8.533-8.533-8.533h-34.133     c-4.719,0-8.533,3.823-8.533,8.533C153.6,218.044,157.414,221.867,162.133,221.867z" fill="#ffb606"/>
		</g>
	</g>
</g>
<g>
</g>
<g>
</g>
<g>
</g>
<g>
</g>
<g>
</g>
<g>
</g>
<g>
</g>
<g>
</g>
<g>
</g>
<g>
</g>
<g>
</g>
<g>
</g>
<g>
</g>
<g>
</g>
<g>
</g>
</svg>
