<?xml version="1.0" encoding="utf-8"?>
<svg xmlns="http://www.w3.org/2000/svg" xmlns:xlink="http://www.w3.org/1999/xlink" version="1.1" viewBox="0 0 129 129" enable-background="new 0 0 129 129" width="512px" height="512px">
  <g>
    <g>
      <path d="m64.5,6.4c-25.5,0-46.3,20.8-46.3,46.4-3.55271e-15,3.1 0.3,6.2 0.9,9.2 0,0.2 0.1,0.4 0.1,0.7 5.1,22.9 41,57.3 42.5,58.7 0.8,0.8 1.8,1.1 2.8,1.1 1,0 2-0.4 2.8-1.1 1.5-1.5 37.2-35.8 42.3-58.2 0-0.2 0.1-0.4 0.1-0.6 0.7-3.2 1-6.5 1-9.8 0.1-25.6-20.7-46.4-46.2-46.4zm37.2,54.7c0,0.2 0,0.1 0,0.3-3.8,16.6-28.7,42.8-37.2,51.3-8.5-8.5-33.5-34.7-37.3-51.7 0-0.2 0-0.3-0.1-0.5-0.5-2.6-0.8-5.2-0.8-7.8 0-21 17.1-38.2 38.1-38.2 21,0 38.2,17.1 38.2,38.2-1.42109e-14,2.9-0.3,5.7-0.9,8.4z" fill="#ffb606"/>
      <path d="m64.5,32.5c-8.6,0-15.5,7-15.5,15.5s7,15.5 15.5,15.5 15.5-6.9 15.5-15.5-6.9-15.5-15.5-15.5zm0,22.9c-4.1,0-7.4-3.3-7.4-7.4s3.3-7.4 7.4-7.4c4.1,0 7.4,3.3 7.4,7.4s-3.3,7.4-7.4,7.4z" fill="#ffb606"/>
    </g>
  </g>
</svg>
