<?xml version="1.0" encoding="UTF-8"?>
<svg width="608px" height="21px" viewBox="0 0 608 21" version="1.1" xmlns="http://www.w3.org/2000/svg" xmlns:xlink="http://www.w3.org/1999/xlink">
    <!-- Generator: Sketch 47.1 (45422) - http://www.bohemiancoding.com/sketch -->
    <title>Line</title>
    <desc>Created with Sketch.</desc>
    <defs></defs>
    <g id="Page-1" stroke="none" stroke-width="1" fill="none" fill-rule="evenodd" stroke-linecap="square">
        <path d="M-5.68434189e-14,0.5 C25.25,0.5 25.25,20.5 50.5,20.5 C75.75,20.5 75.75,0.5 101,0.5 C126.25,0.5 126.25,20.5 151.5,20.5 C176.75,20.5 176.75,0.5 202,0.5 C227.25,0.5 227.25,20.5 252.5,20.5 C277.75,20.5 277.62451,0.5 303,0.5 C328.37549,0.5 328.75,20.5 354,20.5 C379.25,20.5 379.25,0.5 404.5,0.5 C429.75,0.5 429.75,20.5 455,20.5 C480.25,20.5 480.25,0.5 505.5,0.5 C530.75,0.5 530.75,20.5 556,20.5 C581.25,20.5 582.25,0.5 607.5,0.5" id="Line" stroke="#D5D5D5"></path>
    </g>
</svg>