<?xml version="1.0" standalone="no"?>
<!DOCTYPE svg PUBLIC "-//W3C//DTD SVG 20010904//EN"
 "http://www.w3.org/TR/2001/REC-SVG-20010904/DTD/svg10.dtd">
<svg version="1.0" xmlns="http://www.w3.org/2000/svg"
 width="1024.000000pt" height="1024.000000pt" viewBox="0 0 1024.000000 1024.000000"
 preserveAspectRatio="xMidYMid meet">
<metadata>
Created by potrace 1.11, written by Peter Selinger 2001-2013
</metadata>
<g transform="translate(0.000000,1024.000000) scale(0.100000,-0.100000)"
fill="#000000" stroke="none">
<path d="M858 10225 c-375 -63 -675 -320 -804 -687 -57 -162 -54 114 -54
-4423 0 -3649 2 -4181 15 -4255 39 -224 138 -411 297 -566 141 -137 313 -231
501 -271 78 -17 297 -18 4307 -18 4010 0 4229 1 4307 18 413 89 730 424 798
842 22 136 22 8374 0 8510 -37 227 -141 423 -311 586 -146 140 -330 230 -539
264 -78 13 -643 15 -4265 14 -3363 -1 -4190 -4 -4252 -14z m5144 -880 c703
-71 1292 -251 1834 -560 86 -49 372 -236 428 -280 19 -14 19 -17 3 -93 -71
-327 -250 -613 -514 -819 l-83 -64 -58 44 c-71 55 -260 178 -367 239 -437 249
-940 406 -1430 448 -174 14 -482 12 -617 -4 -371 -46 -713 -193 -988 -422
-158 -131 -327 -320 -433 -484 -289 -447 -448 -1041 -498 -1865 -15 -245 -6
-874 15 -1085 96 -948 362 -1601 816 -1998 297 -260 671 -416 1120 -468 202
-23 725 -15 985 16 301 35 595 90 798 151 l67 20 0 762 c0 691 12 1285 26
1329 5 16 -36 17 -603 20 -667 4 -651 3 -790 68 -262 122 -331 464 -192 946
l21 71 282 7 c154 3 607 6 1006 6 594 0 741 -2 815 -15 278 -45 471 -173 568
-376 53 -109 74 -188 87 -325 6 -59 10 -741 10 -1667 l0 -1568 -48 -20 c-92
-40 -460 -158 -662 -213 -684 -186 -1456 -286 -2209 -286 -643 0 -1171 110
-1631 340 -498 249 -870 588 -1145 1045 -320 531 -531 1175 -624 1905 -61 476
-70 1143 -21 1630 66 648 223 1220 476 1730 161 324 315 547 534 774 406 419
877 725 1390 901 278 95 597 158 890 175 182 11 554 3 742 -15z"/>
</g>
</svg>
