<?xml version="1.0" encoding="utf-8"?>
<svg xmlns="http://www.w3.org/2000/svg" xmlns:xlink="http://www.w3.org/1999/xlink" version="1.1" viewBox="0 0 129 129" enable-background="new 0 0 129 129" width="512px" height="512px">
  <g>
    <path d="m6.5,110.9c0,0.1 0,0.2 0.1,0.4 0,0.1 0.1,0.3 0.1,0.4 0,0.1 0.1,0.2 0.1,0.4 0.1,0.1 0.1,0.2 0.2,0.4 0.1,0.1 0.1,0.2 0.2,0.3 0.1,0.1 0.2,0.2 0.2,0.3 0.1,0.1 0.2,0.2 0.3,0.3 0,0 0.1,0.1 0.1,0.1 0,0 0.1,0 0.1,0.1 0.3,0.3 0.7,0.5 1.1,0.6 0.1,0 0.1,0 0.2,0.1 0.4,0.1 0.8,0.2 1.2,0.2l0,0h107.9l0,0c0.4,0 0.8-0.1 1.2-0.2 0.1,0 0.1,0 0.2-0.1 0.4-0.2 0.8-0.4 1.1-0.6 0,0 0.1,0 0.1-0.1 0,0 0.1-0.1 0.1-0.1 0.1-0.1 0.2-0.2 0.3-0.3 0.1-0.1 0.2-0.2 0.2-0.3 0.1-0.1 0.1-0.2 0.2-0.3 0.1-0.1 0.1-0.2 0.2-0.4 0.1-0.1 0.1-0.2 0.1-0.4 0-0.1 0.1-0.3 0.1-0.4 0-0.1 0.1-0.2 0.1-0.4 0-0.1 0-0.3 0-0.4 0-0.1 0-0.1 0-0.2v-91.6c0-2.3-1.8-4.1-4.1-4.1h-107.6c-2.3,0-4.1,1.8-4.1,4.1v91.6c0,0.1 0,0.1 0,0.2 0.1,0.1 0.1,0.2 0.1,0.4zm12.8-4.7l30.3-36.2 12.6,8.8c0.7,0.5 1.5,0.7 2.3,0.7 0.8,0 1.6-0.2 2.3-0.7l12.6-8.8 30.3,36.2h-90.4zm95.1-7.2l-28.3-33.7 28.2-19.7v53.4zm-99.7-76.2h99.7v12.9l-49.8,34.7-49.9-34.7v-12.9zm-0,22.8l28.2,19.7-28.2,33.7v-53.4z" fill="#ffb606"/>
  </g>
</svg>
