<?xml version="1.0" encoding="iso-8859-1"?>
<!-- Generator: Adobe Illustrator 19.0.0, SVG Export Plug-In . SVG Version: 6.00 Build 0)  -->
<svg xmlns="http://www.w3.org/2000/svg" xmlns:xlink="http://www.w3.org/1999/xlink" version="1.1" id="Layer_1" x="0px" y="0px" viewBox="0 0 511.996 511.996" style="enable-background:new 0 0 511.996 511.996;" xml:space="preserve" width="512px" height="512px">
<g>
	<g>
		<g>
			<path d="M58.631,42.594l196.267,25.6c0.367,0.043,0.734,0.068,1.101,0.068s0.734-0.026,1.101-0.068l186.633-24.346v29.628     c-5.35,6.016-17.067,21.026-17.067,37.453c0,18.782,15.309,25.6,25.6,25.6s25.6-6.818,25.6-25.6     c0-16.427-11.716-31.437-17.067-37.453V34.129c0-1.126-0.239-2.193-0.64-3.183c-0.145-0.35-0.393-0.623-0.58-0.947     c-0.333-0.597-0.666-1.186-1.126-1.681c-0.299-0.316-0.657-0.529-0.998-0.785c-0.486-0.393-0.964-0.768-1.527-1.041     c-0.418-0.205-0.862-0.29-1.314-0.418c-0.418-0.128-0.794-0.35-1.246-0.41l-196.267-25.6c-0.734-0.085-1.468-0.085-2.202,0     l-196.267,25.6c-4.25,0.555-7.432,4.181-7.432,8.465C51.198,38.413,54.381,42.04,58.631,42.594z M460.798,110.929     c0,6.81-4.617,8.405-8.533,8.533c-3.917-0.128-8.533-1.724-8.533-8.533c0-7.083,4.352-14.985,8.533-20.813     C456.446,95.945,460.798,103.847,460.798,110.929z M255.998,17.131l130.295,16.998L255.998,51.128L125.703,34.129L255.998,17.131     z" fill="#ffb606"/>
			<path d="M307.198,255.996c17.237,0,31.394-12.894,33.664-29.525l31.189-23.381c3.772-2.825,4.54-8.175,1.707-11.947     c-2.825-3.772-8.175-4.548-11.947-1.707l-21.751,16.316c-3.251-10.402-12.86-18.022-24.329-18.022h-34.133     c-14.114,0-25.6,11.486-25.6,25.6c0-14.114-11.486-25.6-25.6-25.6h-34.133c-11.469,0-21.077,7.62-24.329,18.022l-21.751-16.316     c-3.763-2.825-9.122-2.057-11.947,1.707c-2.833,3.772-2.065,9.122,1.707,11.947l31.189,23.381     c2.27,16.631,16.418,29.525,33.664,29.525h17.067c18.825,0,34.133-15.309,34.133-34.133c0,18.825,15.309,34.133,34.133,34.133     H307.198z M238.931,221.863c0,9.412-7.663,17.067-17.067,17.067h-17.067c-9.412,0-17.067-7.654-17.067-17.067v-8.533     c0-4.702,3.823-8.533,8.533-8.533h34.133c4.71,0,8.533,3.831,8.533,8.533V221.863z M273.065,221.863v-8.533     c0-4.702,3.823-8.533,8.533-8.533h34.133c4.71,0,8.533,3.831,8.533,8.533v8.533c0,9.412-7.654,17.067-17.067,17.067h-17.067     C280.719,238.929,273.065,231.275,273.065,221.863z" fill="#ffb606"/>
			<path d="M392.182,433.105c-0.162-0.606-0.418-1.152-0.7-1.715c-0.162-0.299-0.196-0.64-0.384-0.93     c-0.094-0.128-0.23-0.196-0.324-0.324c-0.358-0.469-0.802-0.853-1.263-1.246c-0.41-0.375-0.811-0.742-1.297-1.016     c-0.145-0.094-0.23-0.23-0.393-0.316l-34.133-17.058c-2.748-1.374-6.008-1.169-8.55,0.529l-51.209,34.133     c-2.372,1.579-3.797,4.25-3.797,7.1v30.259c-5.077,4.062-17.544,12.407-34.133,12.407c-16.427,0-29.013-8.388-34.133-12.433     v-30.234c0-2.85-1.425-5.521-3.797-7.1l-51.2-34.133c-2.543-1.698-5.803-1.903-8.55-0.529l-34.133,17.058     c-0.154,0.077-0.239,0.213-0.375,0.299c-0.512,0.29-0.939,0.674-1.374,1.075c-0.427,0.376-0.853,0.734-1.186,1.178     c-0.102,0.137-0.256,0.213-0.35,0.35c-0.205,0.307-0.239,0.657-0.401,0.981c-0.265,0.538-0.521,1.058-0.674,1.638     c-0.137,0.538-0.171,1.05-0.205,1.596c-0.034,0.538-0.06,1.058,0.009,1.604c0.068,0.597,0.265,1.143,0.461,1.707     c0.119,0.341,0.111,0.7,0.273,1.024c0.077,0.154,0.222,0.247,0.307,0.393c0.282,0.495,0.666,0.913,1.058,1.348     c0.384,0.427,0.742,0.853,1.186,1.195c0.137,0.102,0.213,0.256,0.35,0.35l51.2,34.133c1.459,0.973,3.106,1.434,4.727,1.434     c2.756,0,5.47-1.331,7.108-3.797c2.62-3.925,1.562-9.225-2.364-11.836l-38.972-25.975l16.555-8.277l43.281,28.851v29.568     c0,2.261,0.896,4.437,2.5,6.033c0.802,0.802,19.9,19.567,48.7,19.567s47.898-18.765,48.7-19.567c1.596-1.596,2.5-3.772,2.5-6.033     v-29.568l43.29-28.851l16.546,8.269l-38.972,25.984c-3.925,2.611-4.983,7.91-2.364,11.836c1.638,2.466,4.352,3.797,7.108,3.797     c1.621,0,3.268-0.461,4.727-1.434l51.2-34.133c0.137-0.094,0.205-0.239,0.333-0.333c0.478-0.358,0.853-0.802,1.254-1.254     c0.358-0.427,0.725-0.811,0.998-1.289c0.085-0.154,0.239-0.247,0.316-0.41c0.179-0.35,0.179-0.725,0.299-1.084     c0.179-0.538,0.367-1.05,0.435-1.613c0.077-0.58,0.051-1.126,0.009-1.698C392.344,434.104,392.318,433.617,392.182,433.105z" fill="#ffb606"/>
			<path d="M427.271,404.237c1.34,3.328,4.54,5.359,7.927,5.359c1.058,0,2.125-0.196,3.166-0.614     c4.378-1.741,6.502-6.707,4.762-11.085c-0.171-0.41-16.461-41.719-16.461-82.167v-68.267c0-72.704-37.265-92.169-38.852-92.962     c-2.637-1.323-5.786-1.195-8.294,0.367c-2.517,1.562-4.053,4.301-4.053,7.262v34.133c0,32.273-24.695,98.569-33.237,115.652     c-7.654,15.317-48.154,63.548-86.229,63.548s-78.575-48.23-86.238-63.548c-8.533-17.084-33.229-83.379-33.229-115.652v-34.133     c0-2.961-1.536-5.7-4.053-7.262s-5.658-1.69-8.294-0.367c-1.587,0.794-38.852,20.258-38.852,92.962v68.267     c0,40.448-16.29,81.758-16.461,82.167c-1.741,4.378,0.384,9.344,4.762,11.085c4.361,1.741,9.344-0.375,11.093-4.745     c0.717-1.809,17.672-44.698,17.672-88.508v-68.267c0-34.603,9.02-54.707,17.067-65.766v14.566     c0,36.625,26.871,106.965,35.029,123.281c10.385,20.77,55.834,72.986,101.504,72.986s91.119-52.216,101.495-72.986     c8.166-16.316,35.038-86.656,35.038-123.281v-14.549c8.064,11.068,17.067,31.164,17.067,65.749v68.267     C409.598,359.539,426.554,402.428,427.271,404.237z" fill="#ffb606"/>
			<path d="M275.667,309.602c-0.273,0.247-6.707,6.127-19.669,6.127c-12.774,0-19.209-5.709-19.652-6.118     c-3.319-3.251-8.67-3.226-11.981,0.085c-3.337,3.337-3.337,8.73,0,12.066c1.126,1.126,11.605,11.034,31.633,11.034     s30.507-9.907,31.633-11.034c3.294-3.294,3.285-8.567,0.051-11.913C284.431,306.505,279.072,306.411,275.667,309.602z" fill="#ffb606"/>
			<path d="M511.554,500.766c-0.751-2.27-19.371-55.851-91.358-73.847c-4.574-1.161-9.199,1.638-10.342,6.204     c-1.143,4.574,1.638,9.207,6.212,10.351c62.524,15.633,78.66,60.809,79.309,62.686c1.186,3.576,4.514,5.837,8.09,5.837     c0.887,0,1.801-0.137,2.697-0.435C510.633,510.067,513.048,505.238,511.554,500.766z" fill="#ffb606"/>
			<path d="M392.531,127.996V68.263c0-4.71-3.814-8.533-8.533-8.533s-8.533,3.823-8.533,8.533v54.212     c-14.114,5.982-58.778,22.588-119.467,22.588s-105.353-16.606-119.467-22.588V68.263c0-4.71-3.814-8.533-8.533-8.533     s-8.533,3.823-8.533,8.533v59.733c0,3.234,1.826,6.187,4.719,7.637c2.167,1.075,53.897,26.496,131.814,26.496     s129.647-25.421,131.814-26.496C390.705,134.183,392.531,131.23,392.531,127.996z" fill="#ffb606"/>
			<path d="M91.8,426.919c-71.987,17.997-90.607,71.578-91.358,73.847c-1.493,4.471,0.922,9.301,5.393,10.795     c0.896,0.299,1.801,0.435,2.697,0.435c3.575,0,6.903-2.261,8.09-5.837c0.162-0.469,16.316-46.942,79.309-62.686     c4.574-1.143,7.356-5.777,6.212-10.351C100.999,428.557,96.365,425.758,91.8,426.919z" fill="#ffb606"/>
		</g>
	</g>
</g>
<g>
</g>
<g>
</g>
<g>
</g>
<g>
</g>
<g>
</g>
<g>
</g>
<g>
</g>
<g>
</g>
<g>
</g>
<g>
</g>
<g>
</g>
<g>
</g>
<g>
</g>
<g>
</g>
<g>
</g>
</svg>
