<?xml version="1.0" encoding="utf-8"?>
<svg xmlns="http://www.w3.org/2000/svg" xmlns:xlink="http://www.w3.org/1999/xlink" version="1.1" viewBox="0 0 129 129" enable-background="new 0 0 129 129" width="512px" height="512px">
  <g>
    <path d="m36.9,114.3l54,8.2c0.2,0 0.4,0 0.6,0 1,0 1.9-0.3 2.7-1 0.9-0.8 1.4-1.9 1.4-3.1v-99.7c0-2-1.5-3.7-3.5-4l-54-8.2c-1.2-0.2-2.4,0.2-3.3,0.9-0.9,0.8-1.4,1.9-1.4,3.1v99.7c-1.42109e-14,2.1 1.5,3.8 3.5,4.1zm4.7-99l45.8,6.9v91.5l-45.8-6.9v-91.5z" fill="#ffb606"/>
  </g>
</svg>
