<svg width="248" height="153" viewBox="0 0 248 153" xmlns="http://www.w3.org/2000/svg" xmlns:xlink="http://www.w3.org/1999/xlink"><title>Features</title><defs><path d="M6.92 6.003L4.659 3.176 0 9h18L11.33.157 6.92 6.003zM6.718 2.45c.935 0 1.694-.773 1.694-1.726C8.412-.227 7.653-1 6.718-1 5.782-1 5.024-.227 5.024.725c0 .953.758 1.726 1.694 1.726z" id="a"/><mask id="e" x="0" y="0" width="18" height="8.843" fill="#fff"><use xlink:href="#a"/></mask><path d="M6.92 6.003L4.659 3.176 0 9h18L11.33.157 6.92 6.003zM6.718 2.45c.935 0 1.694-.773 1.694-1.726C8.412-.227 7.653-1 6.718-1 5.782-1 5.024-.227 5.024.725c0 .953.758 1.726 1.694 1.726z" id="b"/><mask id="f" x="0" y="0" width="18" height="8.843" fill="#fff"><use xlink:href="#b"/></mask><path d="M6.92 6.003L4.659 3.176 0 9h18L11.33.157 6.92 6.003zM6.718 2.45c.935 0 1.694-.773 1.694-1.726C8.412-.227 7.653-1 6.718-1 5.782-1 5.024-.227 5.024.725c0 .953.758 1.726 1.694 1.726z" id="c"/><mask id="g" x="0" y="0" width="18" height="8.843" fill="#fff"><use xlink:href="#c"/></mask><path d="M6.92 6.003L4.659 3.176 0 9h18L11.33.157 6.92 6.003zM6.718 2.45c.935 0 1.694-.773 1.694-1.726C8.412-.227 7.653-1 6.718-1 5.782-1 5.024-.227 5.024.725c0 .953.758 1.726 1.694 1.726z" id="d"/><mask id="h" x="0" y="0" width="18" height="8.843" fill="#fff"><use xlink:href="#d"/></mask></defs><g fill="none" fill-rule="evenodd"><path fill="#C800FF" opacity=".588" d="M0 0h248v153H0z"/><path fill="#FFF" d="M39 25h48v42H39z"/><use mask="url(#e)" xlink:href="#a" transform="translate(54 43)" stroke="#555" stroke-width=".8" fill="#EAE6D5"/><rect fill="#FFF" x="161" y="75" width="48" height="5" rx="2"/><rect fill="#FFF" x="100" y="75" width="48" height="5" rx="2"/><rect fill="#FFF" x="39" y="75" width="48" height="5" rx="2"/><rect fill="#7ED321" x="103" y="120" width="45" height="9" rx="2"/><rect fill="#FFF" x="166" y="84" width="38" height="5" rx="2"/><rect fill="#FFF" x="105" y="84" width="38" height="5" rx="2"/><rect fill="#FFF" x="44" y="84" width="38" height="5" rx="2"/><rect fill="#FFF" x="169" y="93" width="32" height="5" rx="2"/><rect fill="#FFF" x="108" y="93" width="32" height="5" rx="2"/><rect fill="#FFF" x="47" y="93" width="32" height="5" rx="2"/><path fill="#FFF" d="M100 25h48v42h-48z"/><use mask="url(#f)" xlink:href="#b" transform="translate(115 43)" stroke="#555" stroke-width=".8" fill="#EAE6D5"/><path fill="#FFF" d="M161 25h48v42h-48z"/><use mask="url(#g)" xlink:href="#c" transform="translate(115 43)" stroke="#555" stroke-width=".8" fill="#EAE6D5"/><use mask="url(#h)" xlink:href="#d" transform="translate(176 43)" stroke="#555" stroke-width=".8" fill="#EAE6D5"/></g></svg>