<?xml version="1.0" encoding="utf-8"?>
<!-- Generator: Adobe Illustrator 17.0.0, SVG Export Plug-In . SVG Version: 6.00 Build 0)  -->
<!DOCTYPE svg PUBLIC "-//W3C//DTD SVG 1.1//EN" "http://www.w3.org/Graphics/SVG/1.1/DTD/svg11.dtd">
<svg version="1.1" id="Layer_1" xmlns="http://www.w3.org/2000/svg" xmlns:xlink="http://www.w3.org/1999/xlink" x="0px" y="0px"
	 width="221px" height="55px" viewBox="0 0 221 55" enable-background="new 0 0 221 55" xml:space="preserve">
<text transform="matrix(1 0 0 1 -2.0997 53.3805)" display="none"><tspan x="0" y="0" display="inline" font-family="'Metropolis-Bold'" font-size="80" letter-spacing="-4">co</tspan><tspan x="86.558" y="0" display="inline" font-family="'Metropolis-Bold'" font-size="80" letter-spacing="-4">u</tspan><tspan x="131.438" y="0" display="inline" font-family="'Metropolis-Bold'" font-size="80" letter-spacing="-4">n</tspan><tspan x="176.158" y="0" display="inline" font-family="'Metropolis-Bold'" font-size="80" letter-spacing="-3">t</tspan><tspan x="204.397" y="0" display="inline" font-family="'Metropolis-Bold'" font-size="80" letter-spacing="-3">.</tspan></text>
<g>
	<path fill="#FFFFFF" d="M23.341,44.5c-6.16,0-11.28-5.439-11.28-11.92c0-6.32,5.12-11.681,11.2-11.681c3.2,0,6.48,1.52,8.561,3.84
		l7.76-6.64c-4-4.32-9.521-7.04-16.241-7.04C11.1,11.06,0.7,20.899,0.7,32.66s10.32,21.681,22.56,21.681
		c6.88,0,12.48-2.8,16.561-7.28l-7.76-6.561C29.901,42.9,26.541,44.5,23.341,44.5z"/>
	<path fill="#FFFFFF" d="M62.301,11.06c-12.32,0-22.64,9.84-22.64,21.601s10.32,21.681,22.64,21.681
		c12.24,0,22.48-9.92,22.48-21.681S74.541,11.06,62.301,11.06z M62.301,44.5c-6.24,0-11.44-5.439-11.44-11.84
		s5.2-11.761,11.44-11.761c6.16,0,11.36,5.36,11.36,11.761S68.461,44.5,62.301,44.5z"/>
	<path fill="#FFFFFF" d="M116.14,36.74l-0.08-0.24c0,4.48-3.76,8-8.64,8c-4.641,0-7.841-3.52-7.841-8.64V12.02h-11.28v26.32
		c0,9.36,6.4,16.001,15.36,16.001c5.36,0,10.001-2.4,12.481-6.16v5.2h11.681V12.02H116.14V36.74z"/>
	<path fill="#FFFFFF" d="M157.501,11.06c-5.36,0-10.001,2.4-12.48,6.16v-5.2H133.34v41.361h11.681V28.66l0.08,0.24
		c0-4.48,3.76-8.001,8.64-8.001c4.641,0,7.841,3.521,7.841,8.641v23.841h11.28V27.06C172.861,17.7,166.461,11.06,157.501,11.06z"/>
	<path fill="#FFFFFF" d="M196.06,44.5c-2.16,0-3.921-1.92-3.921-4.64V21.459h8.961v-9.44h-8.961V0.659h-11.2v11.36h-5.68v9.44h5.68
		V41.7c0,7.44,5.12,12.641,12.4,12.641c3.36,0,7.12-1.44,9.521-3.601l-2.8-7.6C199.26,43.94,197.66,44.5,196.06,44.5z"/>
	<path fill="#FFFFFF" d="M213.179,39.78c-4.16,0-7.44,3.36-7.44,7.12c0,4.08,3.28,7.44,7.44,7.44c3.92,0,7.12-3.36,7.12-7.44
		C220.3,43.141,217.099,39.78,213.179,39.78z"/>
</g>
</svg>
