<?xml version="1.0" encoding="iso-8859-1"?>
<!-- Generator: Adobe Illustrator 18.0.0, SVG Export Plug-In . SVG Version: 6.00 Build 0)  -->
<!DOCTYPE svg PUBLIC "-//W3C//DTD SVG 1.1//EN" "http://www.w3.org/Graphics/SVG/1.1/DTD/svg11.dtd">
<svg version="1.1" id="Capa_1" xmlns="http://www.w3.org/2000/svg" xmlns:xlink="http://www.w3.org/1999/xlink" x="0px" y="0px"
	 viewBox="0 0 494.672 494.672" style="enable-background:new 0 0 494.672 494.672;" xml:space="preserve">
<path id="XMLID_133_" d="M481.76,216.177L290.118,24.535c-17.197-17.215-45.12-17.215-62.315,0
	c-17.215,17.206-17.215,45.111,0,62.317l116.405,116.414H44.069C19.728,203.267,0,222.993,0,247.336
	c0,24.34,19.728,44.07,44.069,44.07h300.138L227.802,407.819c-17.215,17.207-17.215,45.111,0,62.316
	c8.597,8.608,19.882,12.913,31.157,12.913c11.276,0,22.56-4.305,31.159-12.913l191.643-191.64
	C498.976,261.288,498.976,233.384,481.76,216.177z"/>
<g>
</g>
<g>
</g>
<g>
</g>
<g>
</g>
<g>
</g>
<g>
</g>
<g>
</g>
<g>
</g>
<g>
</g>
<g>
</g>
<g>
</g>
<g>
</g>
<g>
</g>
<g>
</g>
<g>
</g>
</svg>
