<?xml version="1.0" standalone="no"?>
<!DOCTYPE svg PUBLIC "-//W3C//DTD SVG 1.1//EN" "http://www.w3.org/Graphics/SVG/1.1/DTD/svg11.dtd" >
<svg xmlns="http://www.w3.org/2000/svg">
<metadata>Generated by IcoMoon</metadata>
<defs>
<font id="icomoon" horiz-adv-x="1024">
<font-face units-per-em="1024" ascent="960" descent="-64" />
<missing-glyph horiz-adv-x="1024" />
<glyph unicode="&#x20;" horiz-adv-x="512" d="" />
<glyph unicode="&#xe900;" glyph-name="clock-1" d="M445.883 594.948v199.962h-33.058v-199.962c-32.252-6.652-57.852-32.050-64.302-64.302h-133.846v-33.058h133.846c7.66-37.694 41.121-66.117 80.831-66.117 45.556 0 82.646 37.090 82.646 82.646 0 39.912-28.422 73.172-66.117 80.831zM429.354 464.529c-27.414 0-49.587 22.173-49.587 49.587s22.173 49.587 49.587 49.587c27.414 0 49.587-22.173 49.587-49.587s-22.173-49.587-49.587-49.587zM858.91 416.957v394.482c0 81.839-66.721 148.561-148.762 148.561h-561.587c-81.839 0-148.561-66.721-148.561-148.561v-594.646c0-82.041 66.721-148.561 148.561-148.561h408.592c41.726-78.614 124.17-132.233 219.112-132.233 136.668 0 247.735 111.068 247.735 247.735 0 107.641-69.14 199.156-165.090 233.222zM543.244 101.090h-97.361v82.646h-33.058v-82.646h-264.265c-63.698 0-115.704 51.805-115.704 115.704v280.794h66.117v33.058h-65.915v280.794c0 63.698 51.805 115.704 115.704 115.704h264.265v-82.646h33.058v82.646h264.265c63.698 0 115.704-51.805 115.704-115.704v-280.794h-66.117v-33.058h66.117v-71.156c-15.924 3.225-32.655 5.039-49.587 5.039-136.668 0-247.735-111.068-247.735-247.735 0-29.027 5.241-56.643 14.513-82.646zM776.265-30.942c-118.324 0-214.677 96.353-214.677 214.677s96.353 214.677 214.677 214.677 214.677-96.353 214.677-214.677-96.353-214.677-214.677-214.677zM412.825 348.825h33.058v-33.058h-33.058v33.058zM478.942 348.825h33.058v-33.058h-33.058v33.058zM346.91 348.825h33.058v-33.058h-33.058v33.058zM825.852 233.121v99.175h-99.175v-99.175h-99.175v-99.175h99.175v-99.175h99.175v99.175h99.175v99.175h-99.175zM891.969 167.206h-99.175v-99.175h-33.058v99.175h-99.175v33.058h99.175v99.175h33.058v-99.175h99.175v-33.058z" />
<glyph unicode="&#xe901;" glyph-name="medicine-2" d="M359.089 893.883h33.058v-99.175h-33.058v99.175zM458.264 893.883h33.058v-99.175h-33.058v99.175zM557.439 893.883h33.058v-99.175h-33.058v99.175zM260.116 893.883h33.058v-99.175h-33.058v99.175zM160.941 893.883h33.058v-99.175h-33.058v99.175zM210.529 315.969v65.915h-33.058v-65.915h-66.117v-33.058h66.117v-66.117h33.058v66.117h66.117v33.058zM959.178 269.808c-21.165 23.181-49.587 37.896-79.824 45.556-29.43 40.113-84.661 66.318-140.498 66.318v198.35c0 45.556-37.090 82.646-82.646 82.646h-16.529v66.117h16.529c27.414 0 49.587 22.173 49.587 49.587v132.031c0 27.414-22.173 49.587-49.587 49.587h-561.386c-27.213 0-49.386-22.173-49.386-49.587v-132.031c0-27.414 22.173-49.587 49.587-49.587h16.529v-66.117h-16.731c-45.556 0-82.646-37.090-82.646-82.646v-561.386c0-45.556 37.090-82.646 82.646-82.646h561.587c39.71 0 72.97 28.22 80.831 65.512 26.809-24.189 139.087-62.085 221.934 20.964 43.742 43.54 92.523 145.739 0 247.332zM860.406 285.934c17.739-24.995 53.417-96.957-5.241-178.394l-208.831 208.831c126.589 85.266 209.235-23.584 214.072-30.438zM94.825 761.852c-9.071 0-16.529 7.458-16.529 16.529v132.031c0 9.071 7.458 16.529 16.529 16.529h561.587c9.071 0 16.529-7.458 16.529-16.529v-132.031c0-9.071-7.458-16.529-16.529-16.529h-561.587zM606.825 728.794v-66.117h-462.413v66.117h462.413zM45.439 414.942h297.323v-231.206h-297.323v231.206zM656.412-30.942h-561.587c-27.414 0-49.587 22.173-49.587 49.587v132.031h330.381v297.323h-330.18v132.031c0 27.414 22.173 49.587 49.587 49.587h561.587c27.414 0 49.587-22.173 49.587-49.587v-201.373c-35.074-6.45-68.535-22.98-95.345-49.991-90.306-90.306-51.2-206.816 0-257.008 45.959-44.951 95.345-49.991 95.345-49.991 1.209-28.422-22.375-52.611-49.789-52.611zM634.037 95.244c-32.655 32.655-73.776 115.099-11.087 197.946l208.831-208.831c-58.255-46.765-143.924-43.137-197.745 10.885zM935.392 45.455c-65.713-65.109-147.351-34.872-167.71-23.786 36.283 5.644 71.357 22.173 99.578 49.991 34.469 34.066 53.619 79.622 53.82 128.202 0.202 23.584-4.233 46.564-12.699 67.729 10.079-6.047 19.956-12.901 28.22-21.569 77.808-83.25 25.802-173.757-1.209-200.567z" />
<glyph unicode="&#xe902;" glyph-name="chat" d="M461.002 515.124c-4.838 5.644-11.49 10.683-19.351 15.32 15.924 2.217 27.817 7.861 35.679 16.731 8.063 8.869 11.893 19.956 11.893 33.663 0 10.683-2.62 20.157-7.861 28.422s-16.328 24.391-63.093 22.173h-76.8v-180.813h36.485v75.389c0 0 28.22 3.225 36.687-9.474 2.822-4.233 45.556-65.915 45.556-65.915h43.742c0 0-37.694 59.061-42.935 64.504zM378.154 554.835v45.757c0 0 52.208-0.202 55.030-0.605 16.932-2.62 18.545-15.723 18.545-21.77 0-5.443-1.411-16.126-13.909-21.165-5.443-2.217-59.666-2.217-59.666-2.217zM620.649 444.976l56.239 87.685h-42.331l-35.477-58.054-36.283 58.054h-42.532l55.836-86.274-61.682-94.337h43.742l40.113 62.488 40.113-62.488h43.943zM873.424 960h-722.847c-81.638 0-147.956-66.318-147.956-147.956v-558.564c0-81.436 66.318-147.956 147.956-147.956h167.509l193.915-169.524 193.915 169.726h167.509c81.436 0 147.956 66.318 147.956 147.956v558.362c0 81.638-66.318 147.956-147.956 147.956zM988.523 253.48c0-63.496-51.603-115.099-115.099-115.099h-179.805l-181.619-158.639-181.619 158.841h-179.805c-63.496 0-115.099 51.603-115.099 115.099v558.362c0 63.496 51.603 115.099 115.099 115.099h722.847c63.496 0 115.099-51.603 115.099-115.099v-558.564zM807.71 828.573h-591.42c-45.354 0-82.243-36.888-82.243-82.243v-427.137c0-45.354 36.888-82.243 82.243-82.243h591.42c45.354 0 82.243 36.888 82.243 82.243v427.137c0 45.354-36.888 82.243-82.243 82.243zM857.096 319.194c0-27.213-22.173-49.386-49.386-49.386h-591.42c-27.213 0-49.386 22.173-49.386 49.386v427.137c0 27.213 22.173 49.386 49.386 49.386h591.42c27.213 0 49.386-22.173 49.386-49.386v-427.137zM495.471 730.003h32.857v-32.857h-32.857v32.857zM561.386 730.003h32.857v-32.857h-32.857v32.857zM429.757 730.003h32.857v-32.857h-32.857v32.857z" />
<glyph unicode="&#xe903;" glyph-name="blood-sample-2" d="M957.883 431.471v198.148h33.058v33.058h-297.323v-33.058h33.058v-198.148h-99.175v198.148h33.058v33.058h-297.121v-33.058h33.058v-198.148h-99.175v198.148h33.058v33.058h-297.323v-33.058h33.058v-198.148h-66.117v-462.413h148.561v-33.058h33.058v33.058h660.561v-33.058h33.058v33.058h148.762v462.413h-66.117zM759.735 629.619h165.090v-330.381h-165.090v330.381zM759.534 266.381h165.291v-82.646c0-45.556-37.090-82.646-82.646-82.646s-82.646 37.090-82.646 82.646v82.646zM429.354 629.619h165.291v-264.265h-165.291v264.265zM429.354 332.296h165.291v-148.561c0-45.556-37.090-82.646-82.646-82.646s-82.646 37.090-82.646 82.646v148.561zM99.175 629.619h165.090v-330.381h-165.090v330.381zM98.973 266.381h165.291v-82.646c0-45.556-37.090-82.646-82.646-82.646s-82.646 37.090-82.646 82.646v82.646zM991.748 2.117h-958.69v396.296h33.058v-214.677c0-63.698 51.805-115.704 115.704-115.704s115.704 51.805 115.704 115.704v214.677h99.175v-214.677c0-63.698 51.805-115.704 115.704-115.704s115.704 51.805 115.704 115.704v214.677h99.175v-214.677c0-63.698 51.805-115.704 115.704-115.704s115.704 51.805 115.704 115.704v214.677h33.058v-396.296zM214.677 927.143c-45.556 0-82.646-37.090-82.646-82.646s37.090-82.646 82.646-82.646c45.556 0 82.646 37.090 82.646 82.646s-37.090 82.646-82.646 82.646zM214.677 794.709c-27.414 0-49.587 22.173-49.587 49.587s22.375 49.587 49.587 49.587c27.414 0 49.587-22.173 49.587-49.587s-22.173-49.587-49.587-49.587zM454.148 877.354c-31.849 0-57.852-26.003-57.852-57.852s26.003-57.65 57.852-57.65c31.849 0 57.852 26.003 57.852 57.852s-26.003 57.65-57.852 57.65zM454.148 794.709c-13.707 0-24.794 11.288-24.794 24.995 0 13.506 11.087 24.592 24.794 24.592s24.794-11.087 24.794-24.794-11.087-24.794-24.794-24.794zM668.825 960c-31.849 0-57.852-26.003-57.852-57.852s26.003-57.852 57.852-57.852 57.852 26.003 57.852 57.852-26.003 57.852-57.852 57.852zM668.825 877.354c-13.707 0-24.794 11.087-24.794 24.794s11.288 24.794 24.794 24.794c13.707 0 24.794-11.087 24.794-24.794s-11.087-24.794-24.794-24.794zM900.031 910.614c-50.192 0-90.91-40.718-90.91-90.91s40.92-90.91 90.91-90.91 90.91 40.718 90.91 90.91c0 50.192-40.718 90.91-90.91 90.91zM900.031 761.65c-31.849 0-57.852 26.003-57.852 57.852s26.003 57.852 57.852 57.852 57.852-26.003 57.852-57.852-26.003-57.852-57.852-57.852z" />
<glyph unicode="&#xe904;" glyph-name="blood-donation-3" d="M380.946 542.337c-117.518 0-213.065-95.546-213.065-213.065s95.546-213.065 213.065-213.065 213.065 95.546 213.065 213.065c0 117.518-95.546 213.065-213.065 213.065zM380.946 149.065c-99.376 0-180.208 80.831-180.208 180.208s80.831 180.208 180.208 180.208 180.208-80.831 180.208-180.208-80.831-180.208-180.208-180.208zM397.274 345.6v98.369h-32.857v-98.369h-98.369v-32.655h98.369v-98.369h32.857v98.369h98.369v32.655zM757.689 960c0 0-111.471-123.565-183.836-239.068-86.879 121.348-193.109 239.068-193.109 239.068s-376.743-418.671-376.743-630.728c0-216.894 169.121-393.272 376.743-393.272 181.417 0 333.405 134.652 369.083 313.046 84.863-4.435 263.055 56.643 270.11 273.134 4.636 146.545-262.249 437.82-262.249 437.82zM380.745-31.143c-189.682 0-344.088 161.663-344.088 360.416 0 178.192 281.6 510.186 344.088 581.543 62.488-71.357 344.088-403.351 344.088-581.543 0.202-198.753-154.205-360.416-344.088-360.416zM754.867 281.701c1.814 15.521 2.822 31.446 2.822 47.572 0 100.586-78.816 241.083-163.276 362.633 56.643 93.128 133.644 184.844 163.276 218.91 48.983-56.441 229.392-272.126 229.392-388.636 0-132.636-104.617-243.704-232.214-240.479zM364.417 804.586h32.857v-32.857h-32.857v32.857zM364.417 738.872h32.857v-32.857h-32.857v32.857zM364.417 673.361h32.857v-32.857h-32.857v32.857z" />
<glyph unicode="&#xe905;" glyph-name="cardiogram-8" d="M1024 183.836v660.561h-1024v-660.561h280.794v-99.175h-49.587v-33.058h561.587v33.058h-49.587v99.175h280.794zM33.058 811.54h957.883v-231.206h-208.428l-43.339-86.677-162.469 178.595-143.723-191.496-119.332 272.529-77.002-173.153h-203.591v231.408zM33.058 547.074h225.361l55.231 124.17 111.874-255.798 153.6 204.8 167.912-184.643 55.836 111.471h188.069v-198.148h-957.883v198.148zM710.148 84.661h-396.296v99.175h396.296v-99.175zM33.058 216.894v99.175h957.883v-99.175h-957.883zM495.471 283.011h33.058v-33.058h-33.058v33.058zM561.587 283.011h33.058v-33.058h-33.058v33.058zM429.354 283.011h33.058v-33.058h-33.058v33.058z" />
<glyph unicode="&#xe906;" glyph-name="calendar-3" d="M412.825 860.825h33.058v-33.058h-33.058v33.058zM478.942 860.825h33.058v-33.058h-33.058v33.058zM346.91 860.825h33.058v-33.058h-33.058v33.058zM858.91 416.957v543.043h-858.91v-825.852h533.569c22.98-112.882 123.162-198.148 242.696-198.148 136.668 0 247.735 111.068 247.735 247.735 0 107.641-69.14 199.156-165.090 233.222zM33.058 926.942h792.794v-132.031h-132.031v98.973h-115.704v-99.175h-297.323v99.175h-115.704v-99.175h-132.031v132.233zM660.561 860.825v-115.704h-49.587v115.704h49.587zM247.735 860.825v-115.704h-49.587v115.704h49.587zM529.335 167.206h-496.277v594.646h132.031v-49.587h115.704v49.587h297.323v-49.587h115.704v49.587h132.031v-335.219c-15.924 3.225-32.655 5.039-49.587 5.039v231.005h-693.619v-445.883h448.302c-2.419-8.869-3.225-41.726-1.613-49.587zM115.704 249.852v379.767h627.704v-200.567c-99.175-13.304-179.603-85.065-205.606-179.2h-422.098zM776.265-30.942c-118.324 0-214.677 96.353-214.677 214.677s96.353 214.677 214.677 214.677 214.677-96.353 214.677-214.677-96.353-214.677-214.677-214.677zM842.381 249.65v82.646h-132.031v-82.646h-82.646v-132.031h82.646v-82.646h132.031v82.646h82.646v132.031h-82.646zM891.969 150.677h-82.646v-82.646h-66.117v82.646h-82.646v66.117h82.646v82.646h66.117v-82.646h82.646v-66.117zM247.735 580.031h33.058v-33.058h-33.058v33.058zM330.381 580.031h33.058v-33.058h-33.058v33.058zM412.825 580.031h33.058v-33.058h-33.058v33.058zM495.471 580.031h33.058v-33.058h-33.058v33.058zM578.117 580.031h33.058v-33.058h-33.058v33.058zM660.561 580.031h33.058v-33.058h-33.058v33.058zM165.090 497.587h33.058v-33.058h-33.058v33.058zM247.735 497.587h33.058v-33.058h-33.058v33.058zM330.381 497.587h33.058v-33.058h-33.058v33.058zM412.825 497.587h33.058v-33.058h-33.058v33.058zM495.471 497.587h33.058v-33.058h-33.058v33.058zM578.117 497.587h33.058v-33.058h-33.058v33.058zM660.561 497.587h33.058v-33.058h-33.058v33.058zM165.090 414.942h33.058v-33.058h-33.058v33.058zM247.735 414.942h33.058v-33.058h-33.058v33.058zM330.381 414.942h33.058v-33.058h-33.058v33.058zM412.825 414.942h33.058v-33.058h-33.058v33.058zM495.471 414.942h33.058v-33.058h-33.058v33.058zM578.117 414.942h33.058v-33.058h-33.058v33.058zM165.090 332.296h33.058v-33.058h-33.058v33.058zM247.735 332.296h33.058v-33.058h-33.058v33.058zM330.381 332.296h33.058v-33.058h-33.058v33.058zM412.825 332.296h33.058v-33.058h-33.058v33.058zM495.471 332.296h33.058v-33.058h-33.058v33.058z" />
<glyph unicode="&#xe907;" glyph-name="ambulance-6" d="M742.768 745.147h-462.14c-45.529 0-82.597-37.068-82.597-82.597v-214.55h627.333v214.55c0 45.529-37.068 82.597-82.597 82.597zM495.178 481.039h-264.109v181.512c0 27.398 22.16 49.558 49.558 49.558h214.55v-231.070zM792.326 481.039v0h-264.109v231.070h214.55c27.398 0 49.558-22.16 49.558-49.558v-181.512zM528.217 216.93v66.078h-33.039v-66.078h-66.078v-33.039h66.078v-66.078h33.039v66.078h66.078v33.039zM495.178 381.922h33.039v-33.039h-33.039v33.039zM561.256 381.922h33.039v-33.039h-33.039v33.039zM429.101 381.922h33.039v-33.039h-33.039v33.039zM280.628 283.008c-45.529 0-82.597-37.068-82.597-82.597s37.068-82.597 82.597-82.597c45.529 0 82.597 37.068 82.597 82.597s-37.068 82.597-82.597 82.597zM280.628 150.853c-27.398 0-49.558 22.16-49.558 49.558s22.16 49.558 49.558 49.558c27.398 0 49.558-22.16 49.558-49.558s-22.362-49.558-49.558-49.558zM742.768 283.008c-45.529 0-82.597-37.068-82.597-82.597s37.068-82.597 82.597-82.597c45.529 0 82.597 37.068 82.597 82.597s-37.068 82.597-82.597 82.597zM742.768 150.853c-27.398 0-49.558 22.16-49.558 49.558s22.16 49.558 49.558 49.558c27.398 0 49.558-22.16 49.558-49.558s-22.16-49.558-49.558-49.558zM973.837 679.070h-50.364c-8.461 92.468-86.223 164.992-180.706 164.992h-164.992v49.558c0 36.464-29.614 66.078-66.078 66.078s-66.078-29.614-66.078-66.078v-49.558h-164.992c-94.483 0-172.446-72.726-180.706-164.992h-50.364c-27.398 0-49.558-22.16-49.558-49.558v-131.954c0-27.398 22.16-49.558 49.558-49.558h49.558v-412.582h99.116v-57.818c0-22.765 18.534-41.298 41.298-41.298h82.597c22.765 0 41.298 18.534 41.298 41.298v57.818h297.147v-57.818c0-22.765 18.534-41.298 41.298-41.298h82.597c22.765 0 41.298 18.534 41.298 41.298v57.818h99.116v412.582h49.558c27.398 0 49.558 22.16 49.558 49.558v131.954c-0.604 27.398-22.765 49.558-50.163 49.558zM99.116 481.039h-49.558c-9.066 0-16.519 7.454-16.519 16.519v131.954c0 9.066 7.454 16.519 16.519 16.519h49.558v-164.992zM478.659 893.62v0c0 18.131 14.706 33.039 33.039 33.039 18.131 0 33.039-14.706 33.039-33.039v-49.558h-66.078v49.558zM330.186-22.399c0-4.633-3.626-8.26-8.26-8.26h-82.597c-4.633 0-8.26 3.626-8.26 8.26v57.818h99.116v-57.818zM792.326-22.399c0-4.633-3.626-8.26-8.26-8.26h-82.597c-4.633 0-8.26 3.626-8.26 8.26v57.818h99.116v-57.818zM131.954 68.256v594.295c0 81.993 66.682 148.473 148.473 148.473h462.14c81.993 0 148.473-66.682 148.473-148.473v-594.295h-759.086zM990.357 497.558c0-9.066-7.454-16.519-16.519-16.519h-49.558v164.992h49.558c9.066 0 16.519-7.454 16.519-16.519v-131.954z" />
<glyph unicode="&#xe908;" glyph-name="cardiogram-7" d="M908.117 959.899h-792.436c-63.887 0-115.681-51.795-115.681-115.681v-528.425c0-63.685 51.795-115.681 115.681-115.681h792.638c63.685 0 115.681 51.795 115.681 115.681v528.425c-0.202 63.887-51.996 115.681-115.883 115.681zM990.948 315.994h-0.202c0-45.547-37.082-82.629-82.629-82.629h-792.436c-45.547 0-82.629 37.082-82.629 82.629v528.224c0 45.547 37.082 82.629 82.629 82.629h792.638c45.547 0 82.629-37.082 82.629-82.629v-528.224zM99.155 860.744v-561.275h825.689v561.275h-825.689zM891.793 332.52h-759.787v231.161h124.347l81.219 121.727 49.981-282.955 132.409 214.836 32.85-181.18 168.483 269.452 42.524-141.881h127.975v-231.161zM891.793 596.733h-103.388l-56.43 188.234-161.833-258.973-33.253 181.986-131.804-214.232-49.175 278.32-117.092-175.537h-106.814v231.362h759.787v-231.161zM0 167.262v-231.161h1023.798v231.161h-1023.798zM990.747-30.847h-957.695v165.057h957.695v-165.057zM82.629 68.106h445.796v-33.052h-445.796v33.052zM908.117 68.106h33.052v-33.052h-33.052v33.052zM842.215 68.106h33.052v-33.052h-33.052v33.052zM776.112 68.106h33.052v-33.052h-33.052v33.052z" />
<glyph unicode="&#xe909;" glyph-name="mortar-2" d="M991.605 665.111c27.617 23.787 54.63 86.279 3.83 136.877-20.159 20.159-82.449 53.622-136.877-3.83l-311.653-349.35h-546.905v-16.53c0-110.066 42.736-213.279 120.146-291.091 66.12-66.322 150.787-107.244 242.307-117.727v-85.271h296.534v85.271c91.52 10.684 176.187 51.405 242.307 117.727 77.409 77.812 120.146 181.226 120.146 291.091v16.53h-272.344l242.509 216.303zM883.151 776.185c15.321 17.74 55.638 36.084 89.101 2.621 33.867-33.867 13.708-78.619-2.621-89.101l-270.126-240.896h-108.454l292.099 327.377zM625.927-28.751h-230.615v49.792c4.838-0.202 225.576-0.202 230.615 0v-49.792zM987.775 415.748c-4.032-94.947-42.736-183.645-110.066-251.379-71.16-71.563-165.906-110.873-266.699-110.873h-200.982c-100.793 0-195.338 39.309-266.699 110.873-67.33 67.733-106.035 156.431-110.066 251.379h954.513zM494.089 333.501h32.859v-32.859h-32.859v32.859zM560.008 333.501h32.859v-32.859h-32.859v32.859zM428.17 333.501h32.859v-32.859h-32.859v32.859zM526.948 957.21c0 0-147.36 17.135-214.085-131.838-66.322 148.571-214.085 131.838-214.085 131.838s-16.127-199.974 197.757-229.809v-85.271h32.859v85.271c212.674 28.424 197.555 229.809 197.555 229.809zM132.644 923.343c86.078-8.063 154.819-76.805 162.882-162.882-86.078 8.063-154.819 76.805-162.882 162.882zM330.199 760.26c8.265 86.279 77.006 155.020 163.084 163.084-8.265-86.078-77.006-154.819-163.084-163.084z" />
<glyph unicode="&#xe90a;" glyph-name="atoms" d="M1023.375 447.955c0 71.153-78.611 133.235-202.171 171.936 47.167 152.989 51.399 286.628-20.56 328.15-70.548 40.716-181.41-26.607-288.643-140.29-107.233 113.683-218.095 181.007-288.643 140.29-71.959-41.523-67.726-174.96-20.56-328.15-123.56-38.902-202.171-100.783-202.171-171.936s78.611-133.235 202.171-171.936c-47.167-152.989-51.399-286.628 20.56-328.15 14.11-8.264 98.163-59.261 288.643 140.29 184.635-198.543 274.534-148.353 288.643-140.29 71.959 41.523 67.726 174.96 20.56 328.15 123.56 38.701 202.171 100.783 202.171 171.936zM784.114 919.419c51.601-29.832 49.182-146.539 5.039-290.256-46.965 12.497-99.372 21.971-155.811 27.413-31.243 45.151-64.703 88.085-98.969 126.584 172.946 182.216 240.874 141.298 249.741 136.259zM366.268 275.414c-43.337 5.442-84.053 13.303-121.343 22.979 12.296 36.080 27.010 73.37 43.941 111.265 12.495-25.801 59.863-110.862 77.402-134.243zM244.923 597.517c37.088 9.675 78.006 17.536 121.343 22.979-15.319-20.963-66.719-110.458-77.402-134.243-16.93 37.894-31.644 75.184-43.941 111.265zM306.806 447.955c13.102 32.654 82.038 152.183 102.194 176.975 35.073 5.845 174.758 6.047 206.202 0 19.955-25.196 89.092-143.918 102.194-176.975-12.9-32.452-82.038-151.175-102.194-176.975-34.468-6.047-173.952-5.845-206.202 0-20.761 26.204-89.498 145.128-102.194 176.975zM735.135 409.657c16.932-37.894 31.646-75.184 43.941-111.265-37.088-9.675-78.006-17.536-121.343-22.979 15.115 20.963 66.918 110.257 77.402 134.243zM657.732 620.294c43.337-5.442 84.053-13.303 121.343-22.979-12.296-36.080-27.010-73.37-43.941-111.265-10.481 23.583-62.080 113.079-77.402 134.243zM511.999 758.569c26.405-29.832 53.012-63.090 78.611-98.566-31.444 3.225-137.065 3.023-157.222 0 25.601 35.476 52.208 68.533 78.611 98.566zM239.884 919.419c56.035 37.894 166.292-47.771 249.741-136.259-34.065-38.499-67.525-81.433-98.969-126.584-56.439-5.644-108.846-14.916-155.811-27.413-44.345 143.717-44.544 256.796 5.039 290.256zM33.48 447.955c0 55.834 70.75 106.83 179.596 140.492 15.722-46.159 35.073-93.527 57.245-140.492-22.172-46.763-41.523-94.333-57.245-140.492-108.644 33.662-179.596 84.456-179.596 140.492zM239.884-23.509c-51.601 29.832-49.182 146.539-5.039 290.256 46.965-12.497 99.372-21.769 155.811-27.413 31.243-45.151 64.703-88.085 98.969-126.584-100.985-107.435-198.944-165.688-249.741-136.259zM433.388 235.907c25.397-3.225 131.421-3.427 157.222 0-25.599-35.476-52.004-68.533-78.611-98.364-26.403 29.832-52.81 62.889-78.611 98.364zM784.114-23.509c-50.996-29.429-148.756 29.026-249.741 136.259 34.266 38.499 67.726 81.433 98.969 126.584 56.439 5.644 108.846 14.916 155.811 27.413 44.345-143.717 46.765-260.424-5.039-290.256zM810.922 307.463c-15.722 46.159-35.073 93.527-57.245 140.492 22.172 46.763 41.523 94.333 57.245 140.492 108.644-33.662 179.596-84.456 179.596-140.492s-70.949-106.83-179.596-140.492zM511.999 546.924c-54.625 0-98.969-44.345-98.969-98.969s44.345-98.969 98.969-98.969c54.625 0 98.969 44.345 98.969 98.969 0.002 54.625-44.343 98.969-98.969 98.969zM511.999 381.841c-36.484 0-65.912 29.63-65.912 65.912 0 36.484 29.63 65.912 65.912 65.912s65.912-29.63 65.912-65.912-29.427-65.912-65.912-65.912z" />
<glyph unicode="&#xe90b;" glyph-name="calendar-2" d="M412.825 860.825h33.058v-33.058h-33.058v33.058zM478.942 860.825h33.058v-33.058h-33.058v33.058zM346.91 860.825h33.058v-33.058h-33.058v33.058zM231.206 646.35v-99.175h99.175v99.175h-99.175zM297.323 580.031h-33.058v33.058h33.058v-33.058zM379.767 646.35v-99.175h99.175v99.175h-99.175zM445.883 580.031h-33.058v33.058h33.058v-33.058zM528.328 646.148v-99.175h99.175v99.175h-99.175zM594.646 580.031h-33.058v33.058h33.058v-33.058zM677.090 646.148v-99.175h99.175v99.175h-99.175zM743.206 580.031h-33.058v33.058h33.058v-33.058zM82.646 481.058v-99.175h99.175v99.175h-99.175zM148.762 414.942h-33.058v33.058h33.058v-33.058zM231.206 481.058v-99.175h99.175v99.175h-99.175zM297.323 414.942h-33.058v33.058h33.058v-33.058zM379.767 481.058v-99.175h99.175v99.175h-99.175zM445.883 414.942h-33.058v33.058h33.058v-33.058zM512 481.058v-99.175h99.175v99.175h-99.175zM578.117 414.942h-33.058v33.058h33.058v-33.058zM82.646 315.969v-99.175h99.175v99.175h-99.175zM148.762 249.852h-33.058v33.058h33.058v-33.058zM231.206 315.969v-99.175h99.175v99.175h-99.175zM297.323 249.852h-33.058v33.058h33.058v-33.058zM379.767 315.969v-99.175h99.175v99.175h-99.175zM445.883 249.852h-33.058v33.058h33.058v-33.058zM858.91 416.957v543.043h-858.91v-825.852h533.569c22.98-112.882 123.162-198.148 242.696-198.148 136.668 0 247.735 111.068 247.735 247.735 0 107.641-69.14 199.156-165.090 233.222zM33.058 926.942h792.794v-132.031h-132.031v98.973h-115.704v-99.175h-297.323v99.175h-115.704v-99.175h-132.031v132.233zM660.561 860.825v-132.031h-49.587v132.031h49.587zM247.735 860.825v-132.031h-49.587v132.031h49.587zM529.537 167.408h-496.479v594.444h132.233v-66.117h115.704v66.117h297.323v-66.117h115.704v66.117h132.031v-335.219c-242.898 33.865-304.378-181.82-296.517-259.225zM776.265-30.942c-118.324 0-214.677 96.353-214.677 214.677s96.353 214.677 214.677 214.677 214.677-96.353 214.677-214.677-96.353-214.677-214.677-214.677zM842.381 249.65v82.646h-132.031v-82.646h-82.646v-132.031h82.646v-82.646h132.031v82.646h82.646v132.031h-82.646zM891.767 150.677h-82.646v-82.646h-66.117v82.646h-82.646v66.117h82.646v82.646h66.117v-82.646h82.646v-66.117z" />
<glyph unicode="&#xe90c;" glyph-name="blood-donation-2" d="M941.77 824.586c-53.208 53.208-123.95 82.432-199.127 82.432-146.523 0-230.568-114.074-230.568-114.074s-82.633 113.873-230.568 113.873c-75.176 0-145.919-29.224-199.127-82.432-109.842-109.842-109.842-288.411 0-398.051l429.694-437.353 429.694 437.151c109.641 110.046 109.641 288.613 0 398.455zM918.189 449.712l-406.113-413.167-406.113 413.369c-96.742 96.742-96.742 254.35 0 351.293 46.96 46.96 109.237 72.758 175.546 72.758 140.275 0 230.568-127.78 230.568-127.78s91.703 127.78 230.568 127.78c66.308 0 128.787-25.798 175.546-72.758 96.943-96.941 96.943-254.549 0-351.495zM579.593 526.1v115.888h-132.415v-115.888h-115.888v-132.415h115.888v-115.888h132.415v115.888h115.888v132.415h-115.888zM662.428 426.738h-115.888v-115.888h-66.308v115.888h-115.888v66.308h115.888v115.888h66.308v-115.888h115.888v-66.308zM99.311 623.444h33.053c0 83.238 67.719 150.957 150.957 150.957v33.053c-101.377 0-184.011-82.43-184.011-184.011z" />
<glyph unicode="&#xe90d;" glyph-name="clinic-history-8" d="M650.986 960h-518.854v-1024h759.735v783.118l-240.882 240.882zM660.661 903.559l174.765-174.765h-174.765v174.765zM858.809-30.942h-693.619v957.883h462.413v-231.206h231.206v-726.677zM759.836 68.031h33.058v-33.058h-33.058v33.058zM231.307 167.206h561.587v-33.058h-561.587v33.058zM231.307 266.381h561.587v-33.058h-561.587v33.058zM231.307 365.354h561.587v-33.058h-561.587v33.058zM693.72 68.031h33.058v-33.058h-33.058v33.058zM627.805 68.031h33.058v-33.058h-33.058v33.058zM351.446 677.997c-5.241 5.443-11.691 10.683-19.754 15.32 15.924 2.217 28.019 7.861 35.88 16.731 8.063 8.869 12.094 20.157 12.094 33.865 0 10.683-2.62 20.359-7.861 28.624s-16.529 24.391-63.496 22.375h-77.203v-181.619h36.687v75.792h0.202c0 0 28.422 3.225 36.888-9.676 2.822-4.233 45.757-66.318 45.757-66.318h43.943c0 0-37.896 59.465-43.137 64.907zM268.195 717.909v46.161c3.409-0.014 52.313-0.216 55.231-0.605 16.932-2.62 18.746-15.723 18.746-21.972 0-5.443-1.411-16.126-13.909-21.367-5.443-2.217-60.069-2.217-60.069-2.217zM511.899 607.446l56.441 88.29h-42.532l-35.679-58.457-36.485 58.457h-42.734l56.239-86.879-62.085-94.74h43.943l40.315 62.69 40.315-62.69h44.346z" />
<glyph unicode="&#xe90e;" glyph-name="blood-donation-1" d="M200.769 221.43v50.394c0 28.825-21.367 52.409-49.184 56.441v123.767c0 40.718-33.058 73.776-73.776 73.776s-73.776-33.058-73.776-73.776v-309.82l147.553-147.553v-58.658h32.857v72.365l-147.553 147.351v296.315c0 22.576 18.343 40.92 40.92 40.92s40.92-18.343 40.92-40.92v-128.605c-19.351-9.272-32.857-28.825-32.857-51.603v-73.776h32.857v73.776c0 13.506 11.087 24.592 24.592 24.592s24.592-11.087 24.592-24.592v-64.101l114.696-114.696v-157.027h32.857v170.734l-114.696 114.696zM946.192 525.808c-40.718 0-73.776-33.058-73.776-73.776v-123.767c-27.817-4.031-49.184-27.616-49.184-56.441v-50.595l-114.696-114.696v-170.532h32.857v157.027l114.696 114.696v64.101c0 13.506 11.087 24.592 24.592 24.592s24.592-11.087 24.592-24.592v-73.776h32.857v73.776c0 22.778-13.506 42.331-32.857 51.603v128.605c0 22.576 18.343 40.92 40.92 40.92s40.92-18.343 40.92-40.92v-296.315l-147.553-147.553v-72.164h32.857v58.658l147.553 147.553v309.82c0 40.718-33.058 73.776-73.776 73.776zM512 960c0 0-262.249-287.849-262.249-434.192 0-144.529 117.518-262.249 262.249-262.249s262.249 117.518 262.249 262.249c0 147.351-262.249 434.192-262.249 434.192zM512 296.416c-126.387 0-229.392 103.005-229.392 229.392 0 111.068 180.208 327.761 229.392 384.806 49.184-57.046 229.392-273.739 229.392-384.806 0-126.387-103.005-229.392-229.392-229.392zM364.447 525.808h-32.857c0-99.376 80.831-180.208 180.208-180.208v32.857c-81.033 0-147.351 66.117-147.351 147.351zM495.672 181.72h32.857v-32.857h-32.857v32.857zM561.184 181.72h32.857v-32.857h-32.857v32.857zM430.161 181.72h32.857v-32.857h-32.857v32.857z" />
<glyph unicode="&#xe90f;" glyph-name="doctor-1" d="M675.679 479.446c0.202 0.605 84.057 111.068 84.057 232.819 0 136.668-111.068 247.735-247.735 247.735s-247.735-111.068-247.735-247.735c0-125.178 83.855-232.416 84.057-232.819-168.718-74.986-265.676-256.202-232.214-439.836l18.746-103.609h754.293l18.746 103.609c33.461 183.635-63.496 364.85-232.214 439.836zM512 926.942c86.879 0 161.663-51.805 195.326-126.186-73.172-56.239-166.299 7.055-166.299 7.055-58.457 34.066-131.83 31.043-187.061-7.861l-49.991-35.074c23.786 92.926 107.843 162.066 208.025 162.066zM297.323 712.265c0 2.62 0.202 5.241 0.403 7.861l75.389 53.014c44.75 31.446 104.214 34.066 151.383 6.45 0 0 97.764-70.551 194.318-10.683 4.838-17.94 7.861-36.888 7.861-56.441 0-117.317-96.151-297.323-214.677-297.323s-214.677 179.805-214.677 297.121zM875.439 45.455l-13.909-76.397h-699.061l-13.909 76.397c-31.244 171.742 62.085 341.065 222.539 407.181 39.509-42.331 87.685-70.753 141.102-70.753s101.594 28.422 141.102 70.753c160.050-66.117 253.38-235.439 222.135-407.181zM726.677 249.852v66.117h-99.175v-66.117h-66.117v-99.175h66.117v-66.117h99.175v66.117h66.117v99.175h-66.117zM759.735 183.735h-66.117v-66.117h-33.058v66.117h-65.915v33.058h66.117v66.117h33.058v-66.117h65.915v-33.058z" />
<glyph unicode="&#xe910;" glyph-name="molecules" d="M874.431 354.066l36.485 136.265-99.578 99.578 31.849 118.728 172.75 58.86-10.885 32.050-171.54-58.255-99.175 99.175-135.458-36.283-100.586 100.586-155.213-41.524-36.888-137.676-118.728-31.849-164.283 152.995-23.181-24.794 163.679-152.391-36.485-135.861 100.384-100.384-36.283-135.458 99.578-99.578-58.457-197.342 32.454-9.676 58.658 197.946 118.123 31.647 86.677-86.677-35.276-109.858 32.252-10.28 36.082 112.68 135.055 36.283 36.485 135.861 117.518 31.446 149.569-149.77 23.987 23.987-149.569 149.569zM606.74 771.326l117.317 31.446 86.072-85.871-31.446-117.317-117.317-31.446-85.871 85.871 31.244 117.317zM636.976 544.151l-31.446-117.317-117.317-31.446-85.871 85.871 31.446 117.317 117.317 31.446 85.871-85.871zM370.696 835.628l117.317 31.446 85.871-85.871-31.244-117.518-117.317-31.446-85.871 85.871 31.244 117.518zM165.090 543.748l31.446 117.317 117.317 31.446 85.871-85.871-31.446-117.317-117.317-31.446-85.871 85.871zM432.378 253.48l-117.317-31.446-85.871 85.871 31.446 117.317 117.317 31.446 85.871-85.871-31.446-117.317zM668.825 190.387l-117.317-31.446-85.871 85.871 31.446 117.317 117.115 31.446 86.072-86.072-31.446-117.115zM841.575 362.935l-117.115-31.446-86.072 86.072 31.446 117.115 117.317 31.446 85.871-85.871-31.446-117.317z" />
<glyph unicode="&#xe911;" glyph-name="scale-1" d="M862.337 662.677h95.546v33.058h-429.354v100.787c37.694 7.66 66.117 40.92 66.117 80.831 0 45.556-37.090 82.646-82.646 82.646s-82.646-37.090-82.646-82.646c0-39.912 28.422-73.172 66.117-80.831v-100.787h-429.354v-33.058h95.546c-31.043-45.959-161.663-244.51-161.663-330.381 0-100.183 81.436-181.619 181.619-181.619s181.619 81.436 181.619 181.619c0 85.871-130.62 284.422-161.663 330.381h293.896v-644.031h-198.148v-82.646h33.058v49.587h363.439v-49.587h33.058v82.646h-198.148v644.031h293.694c-31.043-45.959-161.663-244.51-161.663-330.381 0-100.183 81.436-181.619 181.619-181.619s181.619 81.436 181.619 181.619c0 85.871-130.62 284.422-161.663 330.381zM181.619 183.735c-70.551 0-129.814 49.587-144.731 115.704h289.663c-15.118-66.117-74.18-115.704-144.932-115.704zM330.18 332.296h-297.121c0 64.302 97.159 223.546 148.561 300.951 51.402-77.203 148.561-236.447 148.561-300.951zM462.413 877.354c0 27.414 22.173 49.587 49.587 49.587s49.587-22.173 49.587-49.587-22.173-49.587-49.587-49.587c-27.414 0-49.587 22.375-49.587 49.587zM842.381 633.247c51.402-77.203 148.561-236.447 148.561-300.951h-297.323c0 64.302 97.361 223.748 148.762 300.951zM842.381 183.735c-70.551 0-129.814 49.587-144.731 115.704h289.663c-15.32-66.117-74.381-115.704-144.932-115.704z" />
<glyph unicode="&#xe912;" glyph-name="skull" d="M512.101 960c-264.115 0-479.036-214.921-479.036-479.036v-132.057c0-100.202 81.452-181.655 181.655-181.655v-49.597c0-100.202 81.452-181.655 181.655-181.655h231.252c100.202 0 181.655 81.452 181.655 181.655v49.597c100.202 0 181.655 81.452 181.655 181.655v132.057c0.202 264.115-214.719 479.036-478.834 479.036zM627.828-31.137h-231.453c-76.412 0-139.517 57.863-147.783 132.057h526.617c-8.065-74.194-71.17-132.057-147.38-132.057zM809.482 200.115h-33.065v-66.13h-49.597v49.597h-33.065v-49.597h-66.13v49.597h-32.863v-49.597h-66.13v49.597h-33.065v-49.597h-66.13v49.597h-33.065v-49.597h-66.13v49.597h-33.065v-49.597h-49.597v66.13h-33.065c-82.057 0-148.59 66.734-148.59 148.59v132.057c0 245.97 200.002 445.971 445.971 445.971s445.971-200.002 445.971-445.971v-132.057h0.202c0-82.057-66.734-148.59-148.59-148.59zM693.755 712.216c-63.71 0-115.727-51.815-115.727-115.727 0-63.71 51.815-115.727 115.727-115.727s115.727 51.815 115.727 115.727-51.815 115.727-115.727 115.727zM693.755 514.029c-45.565 0-82.662 37.097-82.662 82.662s37.097 82.662 82.662 82.662c45.565 0 82.662-37.097 82.662-82.662s-37.097-82.662-82.662-82.662zM512.101 497.496c-46.371 0-82.662-50.807-82.662-115.727s36.291-115.727 82.662-115.727 82.662 50.807 82.662 115.727c0 64.92-36.291 115.727-82.662 115.727zM512.101 299.309c-26.815 0-49.597 37.904-49.597 82.662s22.782 82.662 49.597 82.662c26.815 0 49.597-37.904 49.597-82.662 0-44.96-22.782-82.662-49.597-82.662zM330.446 712.216c-63.71 0-115.727-51.815-115.727-115.727 0-63.71 51.815-115.727 115.727-115.727s115.727 51.815 115.727 115.727c-0.202 63.912-52.017 115.727-115.727 115.727zM330.446 514.029c-45.565 0-82.662 37.097-82.662 82.662s37.097 82.662 82.662 82.662c45.565 0 82.662-37.097 82.662-82.662s-37.097-82.662-82.662-82.662z" />
<glyph unicode="&#xe913;" glyph-name="hospital-bed-1" d="M891.969 398.312v-98.973h-33.058v49.587h-413.027v-49.587h-141.707l-171.943 171.943v191.294h-132.233v-693.619h132.031v198.148h313.852v-115.704h412.825v115.704h33.058v-198.148h132.233v429.354h-132.031zM99.175 2.217h-66.117v627.502h66.117v-627.502zM132.031 424.92l125.38-125.38h-125.38v125.38zM445.883 200.365h-313.852v66.117h313.852v-66.117zM825.852 84.661h-346.91v231.206h346.91v-231.206zM891.969 200.365h-33.058v66.117h33.058v-66.117zM990.942 2.217h-66.117v363.238h66.117v-363.238zM611.175 927.043h-231.206c-45.556 0-82.646-37.090-82.646-82.646v-231.206c0-45.556 37.090-82.444 82.646-82.444h231.206c45.556 0 82.646 37.090 82.646 82.646v231.005c0 45.556-37.090 82.646-82.646 82.646zM660.561 613.392c0-27.414-22.173-49.587-49.386-49.587h-231.206c-27.414 0-49.587 22.173-49.587 49.587v99.175h57.449l56.239 70.148 100.989-168.315 58.86 98.167h56.643v-99.175zM660.762 745.222h-75.389l-40.113-66.923-97.159 161.865-75.994-94.942h-41.524v99.175c-0.202 27.414 21.972 49.587 49.386 49.587h231.206c27.414 0 49.587-22.173 49.587-49.587v-99.175z" />
<glyph unicode="&#xe914;" glyph-name="hospital-9" d="M1022.992 795.112v164.888h-1021.984v-164.888h214.274v-65.915h-131.83v-793.197h857.096v793.197h-131.83v65.915h214.274zM907.49 696.34v-727.282h-790.98v727.282h98.973v-65.915h131.83v65.915h329.575v-65.915h131.83v65.915h98.772zM248.34 663.282v131.83h65.915v-131.83h-65.915zM676.687 729.197h-329.575v65.915h329.575v-65.915zM709.745 663.282v131.83h65.915v-131.83h-65.915zM34.066 827.969v98.973h955.868v-98.973h-955.868zM165.896 580.838v-560.378h692.208v560.378h-692.208zM825.046 53.518h-626.293v494.463h626.293v-494.463zM583.761 482.066v-142.715h-143.521v142.715h-73.172v-362.633h73.172v158.639h143.521v-158.639h73.172v362.633zM495.471 894.085h33.058v-33.058h-33.058v33.058zM561.386 894.085h33.058v-33.058h-33.058v33.058zM429.556 894.085h33.058v-33.058h-33.058v33.058z" />
<glyph unicode="&#xe915;" glyph-name="fish" d="M511.698 875.758c-22.572 12.294-30.23 41.315-17.332 63.685l-28.618 16.324c-31.843-57.438 11.286-98.148 29.626-108.627 11.689-6.651 35.672-32.246 14.914-67.716l26.804-19.146c38.292 57.438-3.023 103.388-25.393 115.48zM698.722 814.895c-22.572 12.294-30.23 41.315-17.332 63.685l-28.618 16.324c-31.843-57.438 11.286-97.946 29.626-108.627 11.689-6.651 35.672-32.246 14.914-67.716l26.804-19.146c38.292 57.438-3.023 103.388-25.393 115.48zM341.401 814.895c-22.572 12.294-30.23 41.315-17.332 63.685l-28.618 16.324c-32.044-57.438 11.084-97.946 29.626-108.627 11.689-6.651 35.672-32.246 14.914-67.716l26.804-19.146c38.292 57.438-3.023 103.388-25.393 115.48zM793.645 501.709c-157.197 122.735-373.243 150.345-557.043 65.096-105.604-48.973-176.948-130.796-176.948-130.796s72.956-84.040 176.746-131.199c71.948-32.85 148.531-49.376 224.913-49.376 119.107 0 236.804 39.501 332.533 114.27l180.575-74.366v280.738l-180.777-74.366zM237.811 341.086c-48.57 24.184-92.908 55.825-131.804 94.52 38.695 38.896 83.234 70.336 131.804 94.52 17.332-28.416 26.603-60.864 26.603-94.52s-9.069-65.902-26.603-94.52zM267.84 327.583c19.347 32.85 29.424 69.731 29.424 108.224s-10.077 75.374-29.424 108.224c187.226 78.196 406.295 36.075 550.796-108.224-144.501-144.299-363.569-186.42-550.796-108.224zM941.169 344.915l-118.704 48.772c0.202 0 0.202 0.202 0.202 0.403 6.651 6.046 42.927 41.718 42.927 41.718s-42.121 41.113-43.129 41.919l118.704 48.973v-181.785zM181.785 452.333h33.052v-33.052h-33.052v33.052zM0 171.595v-106.007l125.355-125.355h773.29l125.355 125.355v106.007h-1024zM990.747 79.291l-106.007-106.007h-745.882l-105.806 106.007v59.251h957.695v-59.251zM495.373 72.439h33.052v-33.052h-33.052v33.052zM561.477 72.439h33.052v-33.052h-33.052v33.052zM429.27 72.439h33.052v-33.052h-33.052v33.052z" />
<glyph unicode="&#xe916;" glyph-name="knife" d="M998.602 916.079c-16.328 16.328-67.931 49.184-122.557 0l-876.044-876.044 25.398-8.466c36.283-12.094 73.575-17.94 110.866-17.94 77.203 0 153.197 25.6 216.29 74.986l382.589 326.148-57.65 57.449 321.109 321.31c33.865 33.865 33.865 88.894 0 122.557zM975.219 816.904l-344.693-344.693 55.635-55.635-354.772-302.362c-76.598-60.069-175.572-81.235-269.102-58.658l837.14 837.14c20.157 20.157 55.433 20.157 75.792 0 20.964-20.964 20.964-54.828 0-75.792zM1024 46.687h-662.778v-33.058h91.112l44.75-59.666 26.608 19.956-29.833 39.71h107.641l44.75-59.666 26.406 19.956-29.833 39.71h107.843l44.75-59.666 26.406 19.956-29.833 39.71h107.843l44.548-59.666 26.608 19.956-29.833 39.71h82.847zM907.287 846.906l23.376 23.376 23.376-23.376-23.376-23.376-23.376 23.376zM860.402 800.181l23.376 23.376 23.376-23.376-23.376-23.376-23.376 23.376zM813.536 753.173l23.376 23.376 23.376-23.376-23.376-23.376-23.376 23.376z" />
<glyph unicode="&#xe917;" glyph-name="spermatozoon" d="M908.341 235.715c-47.15 5.843-83.621 44.531-86.845 91.883 0 0 3.224 83.42-80.599 121.503l-78.382 33.65c50.777 78.584 5.239 221.244-112.838 339.321-127.548 127.951-284.715 171.071-357.456 98.331s-29.62-229.908 98.331-357.657c59.643-59.643 128.757-103.166 194.646-122.51 24.583-7.254 102.562-26.195 154.75 16.724l88.457-37.881c64.681-30.023 60.651-93.495 60.651-93.495 4.231-63.069 52.792-114.652 115.659-122.51 46.344-5.843 81.808-42.314 86.442-88.659l32.844 3.224c-6.649 61.658-54.001 110.219-115.659 118.077zM624.834 487.788c-27.001-27.202-73.546-32.844-130.57-16.12-60.651 17.732-124.727 58.434-180.541 114.249-111.025 111.025-155.959 253.483-98.331 311.111 66.696 66.696 223.259-10.276 311.111-98.129 111.025-111.025 155.959-253.483 98.331-311.111zM554.915 34.218c-32.441 4.030-57.427 30.628-59.643 63.27 0 0 3.022 63.27-61.658 92.689l-52.792 22.568c33.852 60.046 0 163.817-85.838 249.453-44.128 44.128-95.51 76.569-144.272 90.875-52.188 15.314-96.316 8.664-123.719-18.941-27.605-27.605-34.255-71.531-18.941-123.719 14.306-48.762 46.546-100.144 90.875-144.272s95.51-76.569 144.272-90.875c18.336-5.44 75.561-19.747 114.652 11.485l62.867-27.001c42.717-19.747 41.71-64.681 41.71-64.681 3.224-48.359 40.501-87.853 88.457-93.696 31.837-4.030 56.218-29.016 59.442-61.054l32.844 3.224c-4.836 47.553-41.105 84.83-88.256 90.674zM343.544 217.379c-18.538-18.538-50.777-22.366-91.077-10.478-43.523 12.896-89.868 42.113-130.369 82.412-40.299 40.299-69.718 86.644-82.412 130.369-11.888 40.098-8.060 72.539 10.478 91.077 28.008 28.008 75.763 15.112 91.278 10.478 43.523-12.896 89.868-42.113 130.167-82.412 79.591-79.591 112.435-180.944 71.934-221.445z" />
<glyph unicode="&#xe918;" glyph-name="printer" d="M941.354 530.646h-115.704v429.354h-627.502v-429.354h-115.502c-45.556 0-82.646-37.090-82.646-82.646v-429.354c0-45.556 37.090-82.646 82.646-82.646h858.709c45.556 0 82.646 37.090 82.646 82.646v429.354c0 45.556-37.090 82.646-82.646 82.646zM231.206 926.942h561.587v-396.296h-561.587v396.296zM792.794-30.942h-561.587v198.148h561.587v-198.148zM990.942 18.646c0-27.414-22.173-49.587-49.587-49.587h-115.704v231.206h-627.502v-231.206h-115.502c-27.414 0-49.587 22.173-49.587 49.587v429.354c0 27.414 22.173 49.587 49.587 49.587h858.709c27.414 0 49.587-22.173 49.587-49.587v-429.354zM858.91 398.413h33.058v-33.058h-33.058v33.058zM792.794 398.413h33.058v-33.058h-33.058v33.058zM726.677 398.413h33.058v-33.058h-33.058v33.058zM512 877.354c-82.041 0-148.561-66.721-148.561-148.561s66.721-148.561 148.561-148.561c81.839 0 148.561 66.721 148.561 148.561s-66.52 148.561-148.561 148.561zM512 613.090c-63.698 0-115.704 51.805-115.704 115.704s51.805 115.704 115.704 115.704 115.704-51.805 115.704-115.704-52.006-115.704-115.704-115.704zM528.529 745.323v66.117h-33.058v-66.117h-66.117v-33.058h66.117v-66.117h33.058v66.117h66.117v33.058z" />
<glyph unicode="&#xe919;" glyph-name="bones" d="M988.105 813.023c-19.953 21.162-47.565 32.852-76.184 35.069-2.217 28.619-13.907 56.433-35.069 76.184-70.138 65.099-146.524 26.201-171.717 0-33.86-35.472-44.945-86.060-27.007-130.803l-511.724-511.724c-44.743 17.938-96.137 7.86-130.803-27.007-47.363-47.363-47.363-124.354 0-171.717 20.558-20.558 47.565-32.852 76.184-35.069 2.217-28.619 14.108-56.231 35.069-76.184 64.696-61.471 140.074-31.643 171.717 0 34.666 34.666 44.945 86.060 27.007 130.803l511.724 511.724c44.743-17.938 96.137-7.86 130.803 27.007 25.798 25.798 65.704 101.982 0 171.717zM964.725 664.686c-27.41-27.41-73.564-36.48-114.075-10.279l-544.979-545.18c0 0 40.712-62.882-10.279-114.075-34.464-34.464-90.494-34.464-124.958 0-35.472 35.472-24.387 86.866-24.387 86.866s-50.789-11.488-86.866 24.387c-34.464 34.464-34.464 90.494 0 124.958 51.394 51.394 114.075 10.279 114.075 10.279l544.979 545.18c0 0-40.712 63.084 10.279 114.075 16.728 16.728 76.184 48.774 124.958 0 36.48-36.48 24.387-86.866 24.387-86.866s51.999 10.279 86.866-24.387c47.363-47.363 20.961-103.997 0-124.958zM453.405 638.888l23.379 23.379-131.408 131.408c17.938 44.743 7.86 96.137-27.007 130.803-47.363 47.363-124.354 47.363-171.717 0-20.155-20.759-32.449-47.766-34.666-76.386-28.619-2.217-55.627-14.511-76.184-35.069-47.363-47.363-47.363-124.354 0-171.717 34.666-34.666 85.858-44.945 130.601-27.007l131.408-131.408 23.379 23.379-147.934 147.934c0 0-60.262-40.712-114.075 10.279-35.472 33.457-34.464 90.494 0 124.958 35.069 35.472 86.665 24.589 86.665 24.589s-11.488 50.991 24.387 86.866c34.464 34.464 91.099 35.069 124.958 0 51.999-53.41 10.279-114.075 10.279-114.075l147.934-147.934zM988.105 254.742c-34.867 34.867-86.060 44.945-130.803 27.007l-131.408 131.408-23.379-23.379 147.934-147.934c0 0 63.084 40.712 114.075-10.279 16.728-16.728 49.782-71.75 0-124.958-34.263-36.883-86.866-24.387-86.866-24.387s11.69-50.789-24.387-86.866c-51.394-51.394-109.036-17.333-124.958 0-50.789 54.619-10.279 114.075-10.279 114.075l-147.934 147.934-23.379-23.379 131.408-131.408c-17.938-44.743-7.86-95.936 27.007-130.803 26.806-26.806 99.765-63.89 171.717 0 21.565 19.348 32.852 47.565 35.069 76.184 28.619 2.217 56.634 13.705 76.184 35.069 67.518 73.564 22.976 148.741 0 171.717zM441.941 401.439l23.372 23.372 23.372-23.372-23.372-23.372-23.372 23.372zM488.474 448.055l23.372 23.372 23.372-23.372-23.372-23.372-23.372 23.372zM535.148 494.55l23.372 23.372 23.372-23.372-23.372-23.372-23.372 23.372z" />
<glyph unicode="&#xe91a;" glyph-name="stomach" d="M909.518 443.364c-46.967 132.031-181.82 213.871-320.504 194.721-17.134-2.217-32.454 5.039-41.524 19.553s-8.668 31.647 1.008 45.959l103.005 151.584-78.614 104.819c0 0-230.602-133.241-220.523-432.781l4.838-109.455c2.217-52.409-31.043-100.183-81.033-116.107-46.362-14.715-82.646-51.2-97.159-97.562l-84.661-268.094h144.529l37.291 91.515c29.228 55.433 77.203 45.959 95.143 38.098l92.523-41.726c205.606-87.887 350.539 64.504 350.539 64.504 180.409 161.26 95.143 354.973 95.143 354.973zM793.814 113.991c0 0-133.644-139.893-316.472-60.271l-92.523 41.726c-24.794 14.312-105.222 21.165-138.885-55.635l-28.825-71.156h-78.009l70.753 225.562c11.288 36.082 39.71 64.706 75.792 76.195 64.101 20.359 106.835 81.638 104.013 148.762l-4.838 109.455c-6.652 151.584 60.674 294.501 180.813 385.814l45.354-60.271-89.902-132.233c-16.932-24.794-17.537-56.038-1.814-81.638 15.924-25.6 44.145-38.904 73.978-34.671 123.364 16.932 243.502-55.836 285.228-173.354 0 0 79.824-167.912-84.661-318.287zM492.459 362.734c-27.213 0-49.184-22.173-49.184-49.184s22.173-49.184 49.184-49.184c27.011 0 49.184 22.173 49.184 49.184s-21.972 49.184-49.184 49.184zM492.459 297.222c-9.071 0-16.328 7.458-16.328 16.328 0 9.071 7.458 16.328 16.328 16.328s16.328-7.458 16.328-16.328c0.202-9.071-7.257-16.328-16.328-16.328zM656.743 200.668c-27.213 0-49.184-22.173-49.184-49.184s22.173-49.184 49.184-49.184c27.011 0 49.184 22.173 49.184 49.184s-22.173 49.184-49.184 49.184zM656.743 135.156c-9.071 0-16.328 7.458-16.328 16.328 0 9.071 7.458 16.328 16.328 16.328s16.328-7.458 16.328-16.328c0-9.071-7.458-16.328-16.328-16.328zM705.927 475.414c-43.943 0-79.824-35.88-79.824-79.824s35.88-79.824 79.824-79.824 79.824 35.88 79.824 79.824c0 43.943-35.88 79.824-79.824 79.824zM705.927 348.825c-25.802 0-46.967 20.964-46.967 46.967 0 25.802 20.964 46.967 46.967 46.967 25.802 0 46.967-20.964 46.967-46.967s-21.165-46.967-46.967-46.967z" />
<glyph unicode="&#xe91b;" glyph-name="cardiogram-6" d="M891.969 580.031c-23.786 0-46.362-6.249-66.117-17.739v216.088h-825.852v-561.587h247.735v-66.117h-49.587v-33.058h429.354v33.058h-49.587v66.117h140.498c30.841-31.647 74.18-71.962 74.18-71.962s231.408 209.638 231.408 303.169c0 72.769-59.263 132.031-132.031 132.031zM545.058 150.677h-264.265v66.117h264.265v-66.117zM33.058 249.852v495.471h759.735v-210.041c-13.707 15.723-30.639 27.414-49.587 35.074v125.38h-660.561v-396.296h561.184c14.11-17.134 29.027-33.865 43.54-49.587h-654.312zM617.424 332.094h-501.72v148.964h74.986l52.813 79.219 67.931-187.061 66.318 132.636 48.176-128.806 62.287 103.811h77.606c-2.822-10.482-4.435-21.569-4.435-33.058 0-30.438 23.987-72.567 56.038-115.704zM469.669 514.117l-36.687-61.279-50.797 135.458-65.915-131.628-64.101 176.176-79.219-118.929h-57.247v148.561h594.646v-83.452c-5.644 0.605-82.646 12.498-131.024-64.907h-109.657zM792.794 189.783c-81.033 76.598-198.148 205.808-198.148 258.217 0 54.627 44.548 99.175 99.175 99.175 70.551 0 99.175-71.962 99.175-71.962s27.213 71.962 99.175 71.962c54.627 0 99.175-44.548 99.175-99.175-0.403-52.409-117.518-181.619-198.551-258.217z" />
<glyph unicode="&#xe91c;" glyph-name="stretcher-1" d="M1024 563.603v165.090h-346.91v82.646h-330.18v-82.646h-346.91v-165.090h132.031v-282.205c-46.765-7.861-82.646-48.58-82.646-97.562 0-54.627 44.548-99.175 99.175-99.175s99.175 44.548 99.175 99.175c0 48.983-35.88 89.701-82.646 97.562v150.173h693.619v-150.173c-46.765-7.861-82.646-48.58-82.646-97.562 0-54.627 44.548-99.175 99.175-99.175s99.175 44.548 99.175 99.175c0 48.983-35.88 89.701-82.646 97.562v282.205h132.233zM379.969 778.28h264.265v-49.587h-264.265v49.587zM214.677 183.635c0-36.485-29.631-66.117-66.117-66.117s-65.915 29.631-65.915 66.117c0 36.485 29.631 66.117 66.117 66.117s65.915-29.631 65.915-66.117zM165.090 464.428v99.175h693.619v-99.175h-693.619zM941.354 183.635c0-36.485-29.631-66.117-66.117-66.117s-66.117 29.631-66.117 66.117 29.631 66.117 66.117 66.117 66.117-29.631 66.117-66.117zM33.058 596.46v99.175h957.883v-99.175h-957.883zM495.471 348.724h33.058v-33.058h-33.058v33.058zM561.587 348.724h33.058v-33.058h-33.058v33.058zM429.354 348.724h33.058v-33.058h-33.058v33.058z" />
<glyph unicode="&#xe91d;" glyph-name="clinic-history-7" d="M908.195 719.118l-240.882 240.882h-386.62v-165.090h-165.090v-858.91h627.704v165.090h165.090v618.028h-0.202zM676.989 903.559v0l174.765-174.765h-174.765v174.765zM710.047-30.942h-561.587v792.794h330.381v-231.206h231.206v-561.587zM511.899 563.704v174.765l174.765-174.765h-174.765zM875.339 134.148h-132.233v419.88l-240.882 240.882h-188.472v132.031h330.381v-231.206h231.206v-561.587zM363.137 646.35v66.117h-99.175v-66.117h-66.117v-99.175h66.117v-66.117h99.376v66.117h65.915v99.175h-66.117zM396.397 580.031h-66.117v-66.117h-33.058v66.117h-66.117v33.058h66.117v66.117h33.058v-66.117h66.117v-33.058zM198.047 365.354h462.413v-33.058h-462.413v33.058zM198.047 233.323h462.413v-33.058h-462.413v33.058zM627.603 84.561h33.058v-33.058h-33.058v33.058zM561.487 84.561h33.058v-33.058h-33.058v33.058zM495.37 84.561h33.058v-33.058h-33.058v33.058z" />
<glyph unicode="&#xe91e;" glyph-name="scanner" d="M596.258 875.843c-190.891 0-357.795-126.186-410.608-308.409h-185.65v-33.26h411.213c58.86 0 106.835-47.975 106.835-106.835 0-58.457-47.37-106.23-105.827-106.633h-408.391v-115.502h240.277c80.025-116.107 210.041-185.046 352.151-185.046 235.843 0.202 427.742 192.101 427.742 427.943s-191.899 427.742-427.742 427.742zM411.213 567.433h-81.235c46.765 104.013 150.98 172.346 266.28 172.346 160.857 0 291.679-130.822 291.679-291.679 0-44.548-9.877-87.282-29.228-127.395h-110.261c30.236 25.6 49.587 63.899 49.587 106.633 0 77.203-62.69 139.893-139.893 139.893-53.216 0-99.78-30.035-123.364-73.978-23.786 44.346-70.35 74.18-123.565 74.18zM658.948 320.907h-2.016c-58.457 0.605-105.827 48.176-105.827 106.633 0 58.86 47.975 106.835 106.835 106.835s106.835-47.975 106.835-106.835c0-58.457-47.37-106.23-105.827-106.633zM534.576 361.424c8.265-15.521 19.553-29.228 33.058-40.718h-65.915c13.304 11.49 24.391 25.197 32.857 40.718zM36.888 238.665v48.983h802.872c-11.691-17.739-25.398-34.268-40.92-48.983h-761.953zM757.72 205.405c-47.572-31.647-103.408-48.983-161.461-48.983s-113.89 17.335-161.26 48.983h322.721zM596.258 53.619c-123.162 0-236.447 56.038-311.030 151.786h95.345c59.465-53.014 135.66-82.243 215.483-82.243 82.243 0 162.872 28.624 220.926 86.677 71.962 71.761 104.214 148.359 104.214 238.261 0 179.2-145.739 324.939-324.939 324.939-133.241 0-253.178-82.243-301.959-205.606h-73.776c51.402 163.074 202.784 275.15 375.735 275.15 217.499 0 394.482-176.983 394.482-394.482s-176.983-394.482-394.482-394.482z" />
<glyph unicode="&#xe91f;" glyph-name="laptop-3" d="M974.221 216.94v627.379h-924.643v-627.379h-49.578v-89.482l75.777-75.777h872.446l75.777 75.777v89.482h-49.779zM82.629 811.469h858.54v-594.529h-297.063v-33.052h-264.213v33.052h-297.264v594.529zM990.948 141.163h-0.202l-56.43-56.43h-844.835l-56.43 56.43v42.725h313.79v-33.052h330.316v33.052h313.79v-42.725zM495.373 134.311h33.052v-33.052h-33.052v33.052zM561.477 134.311h33.052v-33.052h-33.052v33.052zM429.27 134.311h33.052v-33.052h-33.052v33.052zM908.117 778.417h-792.436v-528.425h792.638v528.425h-0.202zM148.531 283.043v462.322h726.534v-462.322h-726.534zM561.477 563.782v115.681h-99.155v-115.681h-115.681v-99.155h115.681v-115.681h99.155v115.681h115.681v99.155h-115.681zM644.308 497.678h-115.681v-115.681h-33.052v115.681h-115.681v33.052h115.681v115.681h33.052v-115.681h115.681v-33.052z" />
<glyph unicode="&#xe920;" glyph-name="scale" d="M875.54 960h-726.879c-81.839 0-148.561-66.721-148.561-148.561v-726.677c0-82.041 66.721-148.762 148.561-148.762h726.677c82.041 0 148.561 66.721 148.561 148.561v726.879c0.202 81.839-66.52 148.561-148.359 148.561zM990.841 84.762c0.202-63.899-51.603-115.704-115.301-115.704h-726.879c-63.698 0-115.704 51.805-115.704 115.704v462.413h957.883v-462.413zM991.043 580.031h-957.883v231.408c0 63.698 51.805 115.502 115.502 115.502h726.677c63.698 0 115.704-51.805 115.704-115.704v-231.206zM512.101 877.354c-127.597 0-237.052-104.819-231.206-247.735h165.090c-4.838 54.022 29.631 82.646 66.117 82.646s72.365-29.631 66.117-82.646h165.090c12.094 137.877-103.609 247.735-231.206 247.735zM609.865 662.677c-7.861 46.765-48.781 82.646-97.764 82.646s-89.902-35.679-97.764-82.646h-99.78c3.427 42.331 20.359 80.63 46.362 111.269l22.576-22.576 23.383 23.383-22.576 22.576c30.639 26.003 68.939 42.734 111.269 46.362v-32.252h33.058v32.252c42.331-3.427 80.63-20.359 111.269-46.161l-22.778-22.778 23.383-23.383 22.778 22.576c26.003-30.639 42.935-68.939 46.362-111.269h-99.78zM495.572 414.942h33.058v-379.969h-33.058v379.969zM495.572 481.058h33.058v-33.058h-33.058v33.058zM561.688 481.058h33.058v-33.058h-33.058v33.058zM429.455 481.058h33.058v-33.058h-33.058v33.058z" />
<glyph unicode="&#xe921;" glyph-name="folder" d="M325.745 860.825l-33.058 99.175h-292.687v-1024h1024v924.825h-698.255zM33.058 926.942h235.843l33.058-99.175h688.983v-132.031h-957.883v231.206zM990.942-30.942h-957.883v693.619h957.883v-693.619zM924.825 596.561h-825.65v-561.587h825.852v561.587h-0.202zM891.767 68.233h-759.735v495.471h759.735v-495.471zM561.587 365.354v99.175h-99.175v-99.175h-99.175v-99.175h99.175v-98.973h99.175v99.175h99.175v98.973h-99.175zM627.704 299.439h-99.175v-99.175h-33.058v99.175h-99.175v33.058h99.175v99.175h33.058v-99.175h99.175v-33.058zM495.471 778.381h33.058v-33.058h-33.058v33.058zM561.587 778.381h33.058v-33.058h-33.058v33.058zM429.354 778.381h33.058v-33.058h-33.058v33.058z" />
<glyph unicode="&#xe922;" glyph-name="clinic-history-6" d="M439.131 960l-306.998-306.998v-717.002h759.735v1024h-452.737zM429.455 903.559v-240.882h-240.882l240.882 240.882zM165.191-30.942v660.561h297.323v297.323h396.296v-957.883h-693.619zM561.688 893.883v-264.265h198.148v264.265h-198.148zM726.778 662.677h-132.031v198.148h132.031v-198.148zM578.217 448v115.704h-132.031v-115.704h-115.704v-132.031h115.704v-115.704h132.031v115.704h115.704v132.031h-115.704zM660.661 348.825h-115.704v-115.704h-66.117v115.704h-115.704v66.117h115.704v115.704h66.117v-115.704h115.704v-66.117zM330.482 150.677h363.439v-33.058h-363.439v33.058zM495.572 68.031h33.058v-33.058h-33.058v33.058zM561.688 68.031h33.058v-33.058h-33.058v33.058zM429.455 68.031h33.058v-33.058h-33.058v33.058z" />
<glyph unicode="&#xe923;" glyph-name="hospital-8" d="M907.288-31.143v592.025l42.129-25.197 63.698 114.091-501.115 310.224-501.115-310.022 63.698-114.293 42.129 25.197v-592.025h-115.301v-32.857h1021.178v32.857h-115.301zM86.879 581.443l-31.849 57.046 456.97 282.809 456.97-282.809-31.849-57.046-425.121 253.984-425.121-253.984zM874.23-31.143h-724.46v611.78l362.23 216.29 362.23-216.491v-611.578zM281.398 512.504v-461.203h461.203v461.203h-461.203zM709.543 84.157h-395.087v395.288h395.087v-395.288zM577.915 347.817v82.243h-131.83v-82.444h-82.444v-131.83h82.444v-82.243h131.83v82.444h82.444v131.83h-82.444zM627.301 248.844h-82.444v-82.444h-65.915v82.444h-82.444v65.915h82.444v82.444h65.915v-82.444h82.444v-65.915z" />
<glyph unicode="&#xe924;" glyph-name="tablets" d="M792.794 960h-561.587c-27.414 0-49.587-22.173-49.587-49.587v-924.825c0-27.414 22.173-49.587 49.587-49.587h561.587c27.414 0 49.587 22.173 49.587 49.587v924.825c0 27.414-22.375 49.587-49.587 49.587zM809.323-14.413c0-9.071-7.458-16.529-16.529-16.529h-561.587c-9.071 0-16.529 7.458-16.529 16.529v924.825c0 9.071 7.458 16.529 16.529 16.529h561.587c9.071 0 16.529-7.458 16.529-16.529v-924.825zM429.354 844.296h-99.175c-27.414 0-49.587-22.173-49.587-49.587v-99.175c0-27.414 22.173-49.587 49.587-49.587h99.175c27.414 0 49.587 22.173 49.587 49.587v99.376c0 27.213-22.173 49.386-49.587 49.386zM445.883 695.735c0-9.071-7.458-16.529-16.529-16.529h-99.175c-9.071 0-16.529 7.458-16.529 16.529v99.175c0 9.071 7.458 16.529 16.529 16.529h99.175c9.071 0 16.529-7.458 16.529-16.529v-99.175zM693.619 844.296h-98.973c-27.414 0-49.587-22.173-49.587-49.587v-99.175c0-27.414 22.173-49.587 49.587-49.587h99.175c27.414 0 49.587 22.173 49.587 49.587v99.376c-0.202 27.213-22.375 49.386-49.789 49.386zM710.35 695.735h-0.202c0-9.071-7.458-16.529-16.529-16.529h-98.973c-9.071 0-16.529 7.458-16.529 16.529v99.175c0 9.071 7.458 16.529 16.529 16.529h99.175c9.071 0 16.529-7.458 16.529-16.529v-99.175zM429.354 547.175h-99.175c-27.414 0-49.587-22.173-49.587-49.587v-99.175c0-27.414 22.173-49.587 49.587-49.587h99.175c27.414 0 49.587 22.173 49.587 49.587v99.175c0 27.213-22.173 49.587-49.587 49.587zM445.883 398.413c0-9.071-7.458-16.529-16.529-16.529h-99.175c-9.071 0-16.529 7.458-16.529 16.529v99.175c0 9.071 7.458 16.529 16.529 16.529h99.175c9.071 0 16.529-7.458 16.529-16.529v-99.175zM693.619 547.175h-98.973c-27.414 0-49.587-22.173-49.587-49.587v-99.175c0-27.414 22.173-49.587 49.587-49.587h99.175c27.414 0 49.587 22.173 49.587 49.587v99.175c-0.202 27.213-22.375 49.587-49.789 49.587zM710.35 398.413h-0.202c0-9.071-7.458-16.529-16.529-16.529h-98.973c-9.071 0-16.529 7.458-16.529 16.529v99.175c0 9.071 7.458 16.529 16.529 16.529h99.175c9.071 0 16.529-7.458 16.529-16.529v-99.175zM429.354 249.852h-99.175c-27.414 0-49.587-22.173-49.587-49.587v-99.175c0-27.414 22.173-49.587 49.587-49.587h99.175c27.414 0 49.587 22.173 49.587 49.587v99.175c0 27.414-22.173 49.587-49.587 49.587zM445.883 101.090c0-9.071-7.458-16.529-16.529-16.529h-99.175c-9.071 0-16.529 7.458-16.529 16.529v99.175c0 9.071 7.458 16.529 16.529 16.529h99.175c9.071 0 16.529-7.458 16.529-16.529v-99.175zM693.619 249.852h-98.973c-27.414 0-49.587-22.173-49.587-49.587v-99.175c0-27.414 22.173-49.587 49.587-49.587h99.175c27.414 0 49.587 22.173 49.587 49.587v99.175c-0.202 27.414-22.375 49.587-49.789 49.587zM710.35 101.090h-0.202c0-9.071-7.458-16.529-16.529-16.529h-98.973c-9.071 0-16.529 7.458-16.529 16.529v99.175c0 9.071 7.458 16.529 16.529 16.529h99.175c9.071 0 16.529-7.458 16.529-16.529v-99.175z" />
<glyph unicode="&#xe925;" glyph-name="medicine-book-1" d="M264.313 134.311h611.055v710.008c0 63.685-51.795 115.681-115.681 115.681h-495.373c-63.685 0-115.681-51.795-115.681-115.681v-792.638c0-63.685 51.795-115.681 115.681-115.681h611.055v33.052h-611.055c-45.547 0-82.629 37.082-82.629 82.629s37.082 82.629 82.629 82.629zM181.684 844.319c0 45.547 37.082 82.629 82.629 82.629h495.373c45.547 0 82.629-37.082 82.629-82.629v-676.957h-578.003c-32.246 0-61.468-13.301-82.629-34.866v711.822zM264.313 68.207h578.003v-33.052h-578.003v33.052zM297.365 827.793v-429.27h429.27v429.27h-429.27zM693.785 431.575h-363.368v363.368h363.368v-363.368zM561.578 662.736v82.629h-99.155v-82.629h-82.629v-99.155h82.629v-82.629h99.155v82.629h82.629v99.155h-82.629zM611.155 596.632h-82.629v-82.629h-33.052v82.629h-82.629v33.052h82.629v82.629h33.052v-82.629h82.629v-33.052zM495.474 299.569h33.052v-33.052h-33.052v33.052zM561.578 299.569h33.052v-33.052h-33.052v33.052zM429.371 299.569h33.052v-33.052h-33.052v33.052z" />
<glyph unicode="&#xe926;" glyph-name="emergency-call-1" d="M679.374 640.17v116.32h-132.851v-116.32h-116.32v-132.851h116.32v-116.32h132.851v116.32h116.32v132.851h-116.32zM762.431 540.582h-116.32v-116.32h-66.325v116.32h-116.32v66.325h116.32v116.32h66.325v-116.32h116.32v-66.325zM879.154 140.82l-129.222 129.222c-19.353 19.353-51.003 19.353-70.357 0l-58.664-58.664c-19.353-19.353-51.003-19.353-70.357 0l-282.031 281.628c-19.353 19.353-19.353 51.003 0 70.357l58.664 58.664c9.475 9.475 27.215 40.319 0 70.357l-129.222 129.222c-18.748 18.748-51.608 18.748-70.357 0l-35.279-35.077c-59.47-59.47-92.33-138.697-92.33-222.964s32.86-163.493 92.33-223.165l305.214-305.214c61.486-61.486 142.326-92.33 223.165-92.33s161.679 30.844 223.165 92.33l35.279 35.279c19.353 19.353 19.353 51.003 0 70.357zM151.196 798.422c10.281 9.072 20.159 3.226 23.587 0l129.222-129.222c9.273-10.080 3.226-20.361 0-23.385l-35.279-35.279-152.809 152.607 35.279 35.279zM620.71-24.084c-75.396 0-146.358 29.433-199.579 82.654l-305.214 305.416c-53.221 53.221-82.654 124.182-82.654 199.579 0 64.107 21.369 124.989 60.68 174.581l151.196-151.196c-32.457-32.457-32.457-85.073 0-117.328l281.829-281.829c32.457-32.457 85.073-32.457 117.328 0l151.196-151.196c-49.592-39.109-110.474-60.68-174.783-60.68zM855.568 93.849l-35.077-35.279-152.607 152.607 35.279 35.279c6.451 6.451 16.934 6.451 23.385 0l129.222-129.222c6.249-6.451 6.249-16.934-0.202-23.385zM350.668 223.035l23.52 23.52 23.52-23.52-23.52-23.52-23.52 23.52zM303.765 269.967l23.52 23.52 23.52-23.52-23.52-23.52-23.52 23.52zM256.725 316.963l23.524 23.517 23.517-23.524-23.524-23.517-23.517 23.524zM893.064 822.21c-174.581 174.581-458.628 174.581-633.209 0l23.385-23.385c161.679 161.679 424.76 161.679 586.439 0s161.679-424.76 0-586.439l23.385-23.385c174.581 174.581 174.581 458.628 0 633.209z" />
<glyph unicode="&#xe927;" glyph-name="placeholder" d="M512 827.767c-127.395 0-231.206-103.609-231.206-231.206s103.609-231.206 231.206-231.206 231.206 103.811 231.206 231.206c0 127.597-103.811 231.206-231.206 231.206zM512 398.413c-109.254 0-198.148 88.894-198.148 198.148s88.894 198.148 198.148 198.148 198.148-88.894 198.148-198.148-88.894-198.148-198.148-198.148zM512 960c-200.365 0-363.439-163.074-363.439-363.439 0-231.206 363.439-584.769 363.439-584.769s363.439 358.4 363.439 584.97c0 200.164-163.074 363.238-363.439 363.238zM512 58.759c-60.069 62.488-330.381 354.167-330.381 537.802 0 182.224 148.157 330.381 330.381 330.381s330.381-148.157 330.381-330.381c0-183.635-270.312-475.313-330.381-537.802zM670.841 121.65l-20.157-26.205c12.094-9.474 26.608-24.592 26.608-43.943 0-44.75-75.591-82.646-165.090-82.646s-165.090 37.896-165.090 82.646c0 19.351 14.513 34.469 26.608 43.943l-20.157 26.205c-25.802-19.956-39.509-44.145-39.509-69.946 0-64.907 87.080-115.704 198.148-115.704s198.148 50.797 198.148 115.704c-0.202 25.802-13.707 49.991-39.509 69.946zM561.587 646.35v82.646h-99.175v-82.646h-82.646v-99.175h82.646v-82.646h99.175v82.646h82.646v99.175h-82.646zM611.175 580.031h-82.646v-82.646h-33.058v82.646h-82.646v33.058h82.646v82.646h33.058v-82.646h82.646v-33.058zM495.471 315.969h33.058v-33.058h-33.058v33.058zM495.471 249.852h33.058v-33.058h-33.058v33.058zM495.471 183.735h33.058v-33.058h-33.058v33.058z" />
<glyph unicode="&#xe928;" glyph-name="helicopter" d="M998.803 545.26l25.197 25.197-23.786 23.786-25.197-25.197c-8.869 5.846-18.746 10.079-29.631 12.296v35.477h-33.663v-35.477c-10.683-2.217-20.762-6.45-29.631-12.296l-25.197 25.197-23.786-23.786 20.964-20.964h-313.852v50.595c0 46.564-37.896 84.46-84.46 84.46h-50.595v33.663h253.178v33.663h-540.22v-33.663h253.178v-33.663h-50.595c-176.781-0.202-320.706-143.924-320.706-320.907v-33.663c0-46.564 37.896-84.46 84.46-84.46h50.595v-67.528h-29.833c-22.173 0-44.145 5.241-63.899 15.118l-15.118-30.236c24.391-12.296 51.805-18.746 79.017-18.746h295.912c27.213 0 54.627 6.45 79.017 18.746l-15.118 30.236c-19.553-9.877-41.726-15.118-63.899-15.118h-29.833v67.528h50.595c65.109 0 118.123 53.014 118.123 118.123v19.956l309.417 60.271-16.731-16.731 23.786-23.786 25.197 25.197c8.869-5.846 18.746-10.079 29.631-12.296v-35.477h34.066v35.477c10.683 2.217 20.762 6.45 29.631 12.296l25.197-25.197 23.786 23.786-25.197 25.197c8.869 13.304 27.414 52.006 0 92.926zM270.11 645.846v-214.677h-227.981c26.608 109.657 116.107 194.721 227.981 214.677zM337.638 177.991h-168.718v67.528h168.718v-67.528zM506.557 363.641c0-46.564-37.896-84.46-84.46-84.46h-337.638c-28.019 0-50.595 22.778-50.595 50.595 0 0 0.806 56.441 2.217 67.528h267.893v252.573c5.644 0.403 151.987 0.806 151.987 0.806 28.019 0 50.595-22.778 50.595-50.595v-236.447zM540.22 417.865v97.764h305.587c-3.83-20.561-0.403-31.244 1.209-37.896l-306.797-59.868zM928.454 448.101c-28.019 0-50.595 22.778-50.595 50.595 0 28.019 22.778 50.595 50.595 50.595s50.595-22.778 50.595-50.595c0-27.817-22.576-50.595-50.595-50.595zM422.098 549.291v50.797h-33.865v-50.797h-50.595v-33.663h50.595v-50.595h33.865v50.595h50.595v33.663z" />
<glyph unicode="&#xe929;" glyph-name="hospital-7" d="M941.354-30.942v759.735h-297.323v231.206h-264.063v-231.206h-297.323v-759.735h-82.646v-33.058h1024v33.058h-82.646zM412.825 926.942h198.148v-198.148h-198.148v198.148zM610.973-30.942h-198.148v297.323h198.148v-297.323zM908.498-30.942h-264.466v330.381h-264.063v-330.381h-264.265v726.677h792.794v-726.677zM528.529 844.296v49.587h-33.058v-49.587h-49.587v-32.857h49.587v-49.587h33.058v49.587h49.587v32.857zM181.619 249.65v-132.031h132.031v132.031h-132.031zM280.794 150.677h-66.117v66.117h66.117v-66.117zM710.35 249.852v-132.031h132.031v132.031h-132.031zM809.323 150.677h-66.117v66.117h66.117v-66.117zM181.619 613.090v-132.031h132.031v132.031h-132.031zM280.794 513.915h-66.117v66.117h66.117v-66.117zM446.085 613.090v-132.031h132.031v132.031h-132.031zM545.058 514.117h-66.117v66.117h66.117v-66.117zM710.35 613.090v-132.031h132.031v132.031h-132.031zM809.323 514.117h-66.117v66.117h66.117v-66.117zM495.471 398.413h33.058v-33.058h-33.058v33.058zM561.587 398.413h33.058v-33.058h-33.058v33.058zM429.354 398.413h33.058v-33.058h-33.058v33.058z" />
<glyph unicode="&#xe92a;" glyph-name="dropper-1" d="M615.885 669.892l-36.685-17.536 14.109-29.831 36.685 17.536zM480.031 604.787l-41.119-19.753 14.311-29.63 41.119 19.753zM550.175 638.65l-41.119-19.753 14.311-29.63 41.119 19.753zM1009.336 839.203c-26.808 57.849-95.541 83.044-153.39 56.236l-104.813-48.577-34.669 74.78c-15.319 33.056-54.624 47.569-87.68 32.25-15.924-7.458-53.414-37.088-32.049-87.68l23.784-51.399-375.512-179.996c-178.787-86.874-223.131-220.51-223.131-220.51l29.831-64.299c0 0 149.56-50.794 312.826 28.017l375.311 179.794 23.583-50.996c27.413-53.011 78.811-36.483 87.68-32.049 45.956 22.978 41.119 70.547 32.049 87.68l-34.669 74.78 104.813 48.577c57.647 26.81 82.843 95.543 56.035 153.39zM350.426 407.86c-88.285-40.917-188.059-51.6-275.335-30.033l-16.931 36.281c36.685 74.377 101.588 138.676 180.802 180.399l162.258-162.258-50.794-24.389zM433.067 447.568l-162.863 162.662 364.225 174.554 91.308-197.129-292.67-140.086zM853.125 548.349c10.481-23.381-8.063-39.91-16.125-43.739-16.528-7.659-36.080-0.403-43.739 16.125l-166.491 359.387c-9.272 26.002 8.063 40.111 16.125 43.739 16.528 7.659 36.080 0.403 43.739-16.125l166.491-359.387zM939.394 715.647l-104.813-48.577-69.539 149.762 104.813 48.577c41.32 19.149 90.502 1.209 109.65-40.111s1.008-90.502-40.111-109.65zM138.381 308.892c0 0-134.443-161.654-134.443-238.651 0.202-73.974 60.469-134.241 134.443-134.241s134.443 60.267 134.443 134.443c0 76.191-134.443 238.449-134.443 238.449zM138.381-30.944c-55.833 0-101.386 45.553-101.386 101.386 0 42.933 64.5 136.66 101.386 185.237 36.886-48.577 101.386-142.304 101.386-185.237 0-56.035-45.553-101.386-101.386-101.386z" />
<glyph unicode="&#xe92b;" glyph-name="dumbbell" d="M1024 745.726l-214.274 214.274-59.465-59.465-59.666 59.465-119.131-119.131 95.345-95.345-452.535-452.334-95.345 95.345-118.929-119.131 59.465-59.465-59.465-59.666 214.274-214.274 59.465 59.465 59.465-59.465 119.131 119.131-119.131 119.131 452.535 452.535 119.131-119.131 119.131 119.131-59.465 59.465 59.465 59.465zM809.726 912.428l166.702-166.702-35.679-35.679-166.702 166.702 35.679 35.679zM214.274-16.428l-166.702 166.702 35.88 35.679 166.702-166.702-35.88-35.679zM404.762 55.131l-71.357-71.357-285.631 285.631 71.357 71.357 285.631-285.631zM309.619 198.047l-71.357 71.357 452.535 452.535 71.156-71.559-452.334-452.334zM976.428 626.595l-71.357-71.357-285.833 285.631 71.357 71.357 285.833-285.631zM476.277 459.774l23.803 23.803 23.803-23.803-23.803-23.803-23.803 23.803zM523.923 507.596l23.803 23.803 23.803-23.803-23.803-23.803-23.803 23.803zM428.718 412.284l23.803 23.803 23.803-23.803-23.803-23.803-23.803 23.803z" />
<glyph unicode="&#xe92c;" glyph-name="molecule" d="M512.101 679.161c-127.37 0-231.161-103.589-231.161-231.161s103.791-231.161 231.161-231.161 231.161 103.791 231.161 231.161-103.589 231.161-231.161 231.161zM512.101 249.891c-109.232 0-198.109 88.877-198.109 198.109s88.877 198.109 198.109 198.109 198.109-88.877 198.109-198.109c0-109.232-88.675-198.109-198.109-198.109zM380.095 448h33.052c0 54.616 44.338 99.155 99.155 99.155v33.052c-72.956-0.202-132.207-59.453-132.207-132.207zM941.371 101.36c-16.727 0-32.447-5.038-45.547-13.704l-139.261 139.261c53.004 58.647 85.652 136.036 85.652 221.084s-32.649 162.437-85.652 221.084l68.925 68.925c20.758-15.921 46.756-25.393 74.77-25.393 68.119 0 123.743 55.422 123.743 123.541s-55.422 123.743-123.743 123.743c-68.119 0-123.541-55.422-123.541-123.541 0-28.215 9.472-54.011 25.393-74.77l-68.925-68.925c-58.647 53.004-136.036 85.652-221.084 85.652-101.775 0-192.869-46.353-253.33-118.906l-104.798 96.535c7.054 12.092 11.286 25.998 11.286 40.912 0 45.547-36.881 82.629-82.629 82.629-45.547 0-82.629-36.881-82.629-82.629 0-45.547 36.881-82.629 82.629-82.629 18.743 0 35.672 6.449 49.578 16.929l106.411-98.148c-35.672-52.802-56.631-116.487-56.631-185.009 0-181.986 148.128-330.115 330.115-330.115 85.048 0 162.437 32.649 221.084 85.652l139.261-139.261c-8.666-13.1-13.704-28.618-13.704-45.547 0-45.547 37.082-82.629 82.629-82.629s82.629 37.082 82.629 82.629c0 45.547-37.082 82.629-82.629 82.629zM900.257 926.847c49.981 0 90.691-40.71 90.691-90.691s-40.71-90.691-90.691-90.691-90.691 40.71-90.691 90.691c0 49.981 40.912 90.691 90.691 90.691zM82.831 747.28c-27.409 0-49.578 22.169-49.578 49.578s22.169 49.578 49.578 49.578 49.578-22.169 49.578-49.578c0-27.409-22.37-49.578-49.578-49.578zM512.101 150.736c-163.848 0-297.264 133.215-297.264 297.264s133.416 297.264 297.264 297.264 297.264-133.416 297.264-297.264-133.215-297.264-297.264-297.264zM941.371-30.847c-27.409 0-49.578 22.169-49.578 49.578s22.169 49.578 49.578 49.578c27.409 0 49.578-22.169 49.578-49.578s-22.169-49.578-49.578-49.578z" />
<glyph unicode="&#xe92d;" glyph-name="cardiogram-5" d="M0 844.397v-726.677h148.561v-66.117h726.677v66.117h148.762v726.677h-1024zM181.619 84.661v33.058h660.561v-33.058h-660.561zM990.942 150.778h-957.883v660.762h957.883v-660.762zM924.825 745.424h-825.65v-528.529h825.852v528.529h-0.202zM891.767 249.953h-759.735v198.148h148.157l82.243 146.545 148.561-297.323 149.569 265.676 64.302-115.099h166.904v-197.946zM891.969 480.957h-147.553l-83.654 149.77-147.754-262.854-148.561 297.323-103.408-183.836h-129.008v231.005h759.937v-231.408zM561.587 200.365h33.058v-33.058h-33.058v33.058zM495.471 200.365h33.058v-33.058h-33.058v33.058zM429.354 200.365h33.058v-33.058h-33.058v33.058z" />
<glyph unicode="&#xe92e;" glyph-name="head" d="M565.518 960c-236.85 0-429.354-192.706-429.354-429.354v-13.304l-107.036-267.49h107.036v-99.175c0-45.556 37.090-82.646 82.646-82.646h49.386v-132.031h512v20.359c0 105.222 40.315 210.646 113.285 297.121 65.31 77.203 101.392 175.773 101.392 276.964 0.202 236.85-192.504 429.556-429.354 429.556zM598.778-31.143h-297.524v132.031h-82.444v0.202c-27.414 0-49.587 22.173-49.587 49.587v16.529h313.852c63.698 0 115.704-51.805 115.704-115.704v-82.646zM868.485 274.847c-75.187-88.894-117.921-197.14-120.945-305.789h-115.704v82.646c0 82.041-66.721 148.561-148.561 148.561h-314.054v82.646h-91.313l91.313 227.981v19.754c0 218.507 177.789 396.296 396.296 396.296s396.498-177.789 396.498-396.296c0-93.732-33.26-184.441-93.531-255.798zM532.46 827.364v-33.058c163.679 0 296.718-133.039 296.718-296.718h33.058c0 181.82-147.956 329.776-329.776 329.776z" />
<glyph unicode="&#xe92f;" glyph-name="lungs" d="M691.076 663.24c-35.079 0-63.707-28.224-63.707-62.699v-50.602l-49.393 69.15v340.911h-131.849v-340.911l-49.393-69.15v50.602c0 34.676-28.628 62.699-63.707 62.699-195.354 0-331.839-151.606-331.839-368.934v-295.551c-2.218-27.821 30.442-79.835 90.722-56.852l81.045 37.498c61.691 28.426 87.294 40.321 154.428 34.273 17.943-1.613 64.916 6.653 69.352 62.497v268.737l115.317 158.662 115.317-158.662v-268.536c2.822-55.844 51.61-64.11 69.352-62.497 67.134 5.846 92.738-5.846 154.428-34.273l81.045-37.498c63.505-23.789 90.722 27.62 90.722 56.852v295.551c0.202 217.127-136.284 368.733-331.839 368.733zM363.874 397.93c0 0-118.543-25.805-204.023 47.578l-20.564-25.805c101.003-84.27 224.586-55.038 224.586-55.038v-164.71c0 0-113.906-26.813-204.023 47.578l-20.564-25.805c103.423-85.48 224.586-55.038 224.586-55.038v-90.722c-2.016-26.007-24.797-30.039-33.668-29.434-76.004 6.855-107.858-7.863-171.161-37.095l-81.045-37.498c-32.458-10.887-43.748 16.733-43.748 27.015v295.551c0 197.773 122.978 335.871 298.978 335.871 16.935 0 30.644-13.306 30.644-29.837v-202.611zM627.571 400.954l-115.519 158.46-115.317-158.662v92.334l82.456 115.317v318.533h65.924v-318.332l82.456-115.317v-92.334zM946.104-28.26l-81.045 37.498c-63.303 29.232-95.157 43.95-171.161 37.095-8.669-0.806-33.466 3.83-33.466 29.636v90.722c0 0 121.164-28.023 224.586 55.038l-20.564 25.805c-90.318-74.996-204.023-47.578-204.023-47.578v164.71c0 0 122.575-28.829 224.586 55.038l-20.564 25.805c-100.802-75.803-204.023-47.578-204.023-47.578v202.611c0 16.531 13.709 29.837 30.644 29.837 176 0 298.978-138.098 298.978-335.871v-295.752c0-11.693-12.499-37.7-43.95-27.015z" />
<glyph unicode="&#xe930;" glyph-name="glasses" d="M979.049 794.709c-4.233 41.726-38.904 73.172-81.033 73.172-64.504 0-87.887-74.986-87.887-74.986l29.43-14.715c0 0 16.731 56.844 58.255 56.844 24.995 0 45.757-18.746 48.176-43.339l42.331-533.165h-15.924c-8.466 110.463-100.787 197.745-213.266 197.745-109.455 0-199.962-82.646-212.46-188.674-22.375 7.861-46.765 7.861-69.14 0-12.699 106.23-103.005 188.674-212.46 188.674-112.479 0-204.8-87.282-213.266-197.745h-15.924l41.928 532.964c2.419 24.794 23.181 43.54 48.176 43.54 41.524 0 58.255-56.844 58.255-56.844l29.43 14.715c-20.561 58.054-56.643 75.187-87.685 75.187-41.928 0-76.8-31.446-81.033-73.575l-44.951-568.844h51.603c8.466-110.463 100.787-197.745 213.266-197.745 114.696 0 208.428 90.709 213.669 204.397 20.964 10.885 45.959 10.885 66.923 0 5.241-113.487 98.973-204.397 213.669-204.397 112.479 0 204.8 87.282 213.266 197.745h51.603l-44.951 569.046zM264.869 60.976c-99.981 0-181.216 81.235-181.216 181.216s81.235 181.216 181.216 181.216c99.981 0 181.216-81.235 181.216-181.216s-81.235-181.216-181.216-181.216zM759.131 60.976c-99.981 0-181.216 81.235-181.216 181.216s81.235 181.216 181.216 181.216c99.981 0 181.216-81.235 181.216-181.216s-81.436-181.216-181.216-181.216zM138.002 286.758l82.383 82.383 23.233-23.233-82.383-82.383-23.233 23.233zM203.913 270.256l82.383 82.383 23.233-23.233-82.383-82.383-23.233 23.233zM632.101 286.676l82.383 82.383 23.233-23.233-82.383-82.383-23.233 23.233zM698.162 270.173l82.383 82.383 23.233-23.233-82.383-82.383-23.233 23.233zM479.143 571.565h32.857v-32.857h-32.857v32.857zM544.857 571.565h32.857v-32.857h-32.857v32.857zM413.228 571.565h32.857v-32.857h-32.857v32.857z" />
<glyph unicode="&#xe931;" glyph-name="mortar-1" d="M711.156 530.722l198.148 198.148c30.236 0.403 59.263 12.296 80.428 33.663 21.77 21.77 33.865 50.797 33.865 81.638 0 31.043-12.094 60.069-33.865 82.041-45.153 44.951-118.324 44.951-163.477 0-21.367-21.367-33.461-50.394-33.663-80.428l-315.061-315.061h-477.531v-181.82c0-227.578 185.247-412.825 412.825-412.825h198.148c227.78 0 413.027 185.247 413.027 412.825v181.82h-312.844zM826.255 832.679c0 0-7.257 39.307 23.584 70.35 32.252 32.252 84.46 32.252 116.712 0 42.532-42.532 19.754-100.183 0-116.913-30.035-30.035-70.148-23.383-70.148-23.383l-231.811-232.013h-140.296l301.959 301.959zM990.942 349.103c0-209.638-170.331-379.969-379.767-379.969h-198.148c-209.436 0-379.969 170.331-379.969 379.969v49.587h957.883v-49.587zM990.942 431.547h-957.883v66.117h957.883v-66.117zM578.117 249.929v98.973h-132.031v-99.175h-99.175v-132.031h99.175v-98.973h132.031v99.175h99.175v132.031h-99.175zM644.031 150.754h-99.175v-99.175h-66.117v99.175h-99.175v66.117h99.175v99.175h66.117v-99.175h99.175v-66.117zM791.994 750.173l23.376 23.376 23.376-23.376-23.376-23.376-23.376 23.376zM745.209 703.468l23.376 23.376 23.376-23.376-23.376-23.376-23.376 23.376zM698.459 656.859l23.372 23.379 23.379-23.372-23.372-23.379-23.379 23.372z" />
<glyph unicode="&#xe932;" glyph-name="emergency-call" d="M280.794 695.735h49.587c27.414 0 49.587 22.173 49.587 49.587v165.090c0 27.414-22.173 49.587-49.587 49.587h-99.175c-118.324 0-214.677-96.353-214.677-214.677v-594.646c0-118.324 96.353-214.677 214.677-214.677h99.175c27.414 0 49.587 22.173 49.587 49.587v165.090c0 27.414-22.375 49.587-49.587 49.587h-49.587c-27.414 0-49.587 22.173-49.587 49.587v396.296c0 27.414 22.173 49.587 49.587 49.587zM264.265 926.942h66.117c9.071 0 16.529-7.458 16.529-16.529v-165.090c0-9.071-7.458-16.529-16.529-16.529h-49.587c-5.644 0-11.087-0.605-16.529-1.613v199.761zM264.265 168.819c5.241-1.008 10.885-1.613 16.529-1.613h49.587c9.071 0 16.529-7.458 16.529-16.529v-165.090c0-9.071-7.458-16.529-16.529-16.529h-66.117v199.761zM231.206 184.139v-215.080c-100.183 0-181.619 81.436-181.619 181.619v594.646c0 100.183 81.436 181.619 181.619 181.619v-215.080c-19.956-15.118-33.058-38.702-33.058-65.713v-396.296c0-26.809 13.102-50.595 33.058-65.713zM495.471 960v-33.058c264.063 0 478.942-214.879 478.942-478.942s-214.879-478.942-478.942-478.942v-33.058c282.406 0 512 229.594 512 512s-229.594 512-512 512zM495.471 68.031h0.202v0.002c-0.069 0-0.133-0.002-0.202-0.002zM511.395 101.493c-5.241-0.202-10.482-0.403-15.723-0.403v-33.056c5.773 0.004 11.357 0.202 17.134 0.401l-1.411 33.058zM571.061 109.556c-9.676-2.217-19.754-4.031-29.631-5.241l4.233-32.857c10.885 1.411 21.972 3.427 32.655 5.846l-7.257 32.252zM628.51 127.496c-9.272-3.83-18.746-7.257-28.422-10.482l10.079-31.244c10.482 3.427 20.964 7.257 31.043 11.288l-12.699 30.438zM610.772 810.028l-10.079-31.446c9.474-3.024 18.948-6.45 28.22-10.482l12.901 30.438c-10.079 4.233-20.561 8.063-31.043 11.49zM671.647 784.428l-15.32-29.228c8.869-4.636 17.739-9.877 26.003-15.118l17.94 27.817c-9.272 5.846-18.746 11.49-28.624 16.529zM770.62 237.153c-6.047-8.063-12.699-15.723-19.351-23.181l24.391-22.375c7.458 8.265 14.513 16.731 21.165 25.398l-26.205 20.157zM729.902 192.806c-7.458-7.055-15.118-13.506-22.98-19.553l20.157-26.205c8.668 6.652 17.134 13.909 25.197 21.367l-22.375 24.391zM546.268 824.542l-4.435-32.655c9.877-1.411 19.956-3.024 29.631-5.241l7.257 32.252c-10.683 2.217-21.569 4.031-32.454 5.644zM815.975 651.591l-27.817-17.739c5.443-8.466 10.482-17.134 15.118-26.205l29.228 15.32c-5.039 9.676-10.683 19.351-16.529 28.624zM803.276 288.151c-4.636-8.869-9.676-17.739-15.118-26.205l27.817-17.739c5.846 9.272 11.49 18.746 16.529 28.624l-29.228 15.32zM846.614 592.731l-30.438-12.498c3.83-9.272 7.257-18.948 10.28-28.422l31.446 9.877c-3.225 10.482-7.055 20.964-11.288 31.043zM727.483 748.75l-20.359-26.205c7.861-6.047 15.723-12.699 23.181-19.553l22.375 24.391c-8.063 7.458-16.529 14.715-25.197 21.367zM866.772 529.839l-32.454-7.055c2.217-9.877 3.83-19.754 5.241-29.833l32.857 4.233c-1.411 10.885-3.427 21.77-5.644 32.655zM682.331 155.717c-8.466-5.443-17.134-10.482-26.205-15.118l15.32-29.228c9.676 5.039 19.351 10.683 28.624 16.529l-17.739 27.817zM775.861 704l-24.391-22.375c6.854-7.458 13.304-15.118 19.351-23.181l26.205 20.157c-6.652 8.668-13.909 17.335-21.165 25.398zM826.457 343.584c-3.024-9.474-6.45-19.15-10.28-28.422l30.438-12.699c4.031 10.28 7.861 20.762 11.288 31.244l-31.446 9.877zM839.357 402.646c-1.209-9.877-3.024-19.956-5.241-29.833l32.252-7.055c2.419 10.683 4.233 21.77 5.846 32.655l-32.857 4.233zM875.036 464.328l-33.058-1.411c0.202-5.039 0.403-9.877 0.403-14.917s-0.202-10.28-0.403-15.32l33.058-1.411c0.202 5.443 0.403 11.087 0.403 16.731 0 5.443-0.202 10.885-0.403 16.328zM495.471 827.969v-33.058c5.241 0 10.482-0.202 15.723-0.403l1.613 33.058c-5.644 0.202-11.49 0.403-17.335 0.403zM611.175 514.117v115.704h-132.031v-115.704h-115.704v-132.031h115.704v-115.704h132.031v115.704h115.704v132.031h-115.704zM693.82 414.942h-115.704v-115.704h-66.117v115.704h-115.704v66.117h115.704v115.704h66.117v-115.704h115.704v-66.117zM115.704 398.413h33.058v-33.058h-33.058v33.058zM115.704 464.529h33.058v-33.058h-33.058v33.058zM115.704 530.646h33.058v-33.058h-33.058v33.058z" />
<glyph unicode="&#xe933;" glyph-name="flask-2" d="M1014.651 55.973l-354.355 496.661v308.397c27.212 0 49.585 22.172 49.585 49.585s-22.172 49.384-49.585 49.384h-297.11c-27.212 0-49.585-22.172-49.585-49.585s22.172-49.585 49.585-49.585v-308.397l-354.153-496.459c-31.848-72.766 31.041-122.351 74.781-119.529h856.256c36.685-5.644 108.846 42.934 74.58 119.529zM346.659 910.415c0 9.071 7.458 16.528 16.528 16.528h297.11c9.071 0 16.528-7.458 16.528-16.528s-7.458-16.528-16.528-16.528h-297.11c-9.071 0-16.528 7.458-16.528 16.528zM396.244 541.95v319.080h231.197v-318.879l149.361-209.226h-530.121l149.563 209.025zM939.87-30.5h-856.256c-55.229 4.838-55.229 56.237-45.756 70.548l185.24 259.618h577.086l185.442-259.618c7.256-15.118 11.288-64.3-45.756-70.548zM346.659 151.112c-36.484 0-66.114-29.63-66.114-66.114s29.63-66.114 66.114-66.114c36.484 0 66.114 29.63 66.114 66.114s-29.63 66.114-66.114 66.114zM346.659 51.941c-18.141 0-33.057 14.714-33.057 33.057 0 18.141 14.714 33.057 33.057 33.057s33.057-14.714 33.057-33.057c0-18.141-14.916-33.057-33.057-33.057zM462.157 250.081c-27.212 0-49.585-22.172-49.585-49.585 0-27.212 22.172-49.585 49.585-49.585 27.212 0 49.585 22.172 49.585 49.585s-22.172 49.585-49.585 49.585zM462.157 184.169c-9.071 0-16.528 7.458-16.528 16.528s7.458 16.528 16.528 16.528 16.528-7.458 16.528-16.528c0-9.272-7.256-16.528-16.528-16.528zM594.384 481.279c-27.212 0-49.585-22.172-49.585-49.585 0-27.212 22.172-49.585 49.585-49.585 27.212 0 49.585 22.172 49.585 49.585 0 27.212-22.172 49.585-49.585 49.585zM594.384 415.165c-9.071 0-16.528 7.458-16.528 16.528s7.256 16.528 16.528 16.528c9.071 0 16.528-7.458 16.528-16.528s-7.458-16.528-16.528-16.528zM478.685 547.393c-27.212 0-49.585-22.172-49.585-49.585 0.202-27.413 22.374-49.585 49.585-49.585s49.585 22.172 49.585 49.585c0 27.212-22.172 49.585-49.585 49.585zM478.685 481.279c-9.071 0-16.528 7.458-16.528 16.528s7.458 16.528 16.528 16.528 16.528-7.458 16.528-16.528-7.458-16.528-16.528-16.528z" />
<glyph unicode="&#xe934;" glyph-name="medical-history" d="M695.735 827.969l-24.794 49.386h-48.176c-14.312 48.58-58.86 82.646-110.665 82.646s-96.353-34.066-110.665-82.646h-48.176l-24.794-49.587h-179.805v-891.767h726.677v891.969h-179.603zM373.619 844.296h54.828c2.419 50.797 43.137 82.646 83.654 82.646s80.227-31.849 83.654-82.646h54.828l33.058-66.117h-343.080l33.058 66.117zM842.482-30.942h-660.762v825.852h130.217l-24.794-49.587h449.915l-24.794 49.587h130.217v-825.852zM677.191 662.677h-330.18v-330.381h330.381v330.381h-0.202zM431.269 365.354c7.66 37.694 41.121 66.117 80.831 66.117s73.172-28.422 80.831-66.117h-161.663zM644.334 365.354h-17.94c-8.063 55.836-56.239 99.175-114.293 99.175s-106.23-43.137-114.293-99.175h-17.739v264.265h264.265v-264.265zM512.101 613.291c-36.485 0-66.117-29.631-66.117-66.117s29.631-66.117 66.117-66.117c36.485 0 66.117 29.631 66.117 66.117s-29.631 66.117-66.117 66.117zM512.101 513.915c-18.142 0-33.058 14.715-33.058 33.058s14.917 33.058 33.058 33.058c18.142 0 33.058-14.715 33.058-33.058 0-18.142-14.715-33.058-33.058-33.058zM280.894 266.381h462.413v-33.058h-462.413v33.058zM280.894 167.206h462.413v-33.058h-462.413v33.058zM495.572 68.031h33.058v-33.058h-33.058v33.058zM561.688 68.031h33.058v-33.058h-33.058v33.058zM429.455 68.031h33.058v-33.058h-33.058v33.058z" />
<glyph unicode="&#xe935;" glyph-name="ambulance-5" d="M776.265 266.381c-54.627 0-99.175-44.548-99.175-99.175s44.548-99.175 99.175-99.175c54.627 0 99.175 44.548 99.175 99.175s-44.548 99.175-99.175 99.175zM776.265 101.090c-36.485 0-66.117 29.631-66.117 66.117s29.631 66.117 66.117 66.117 66.117-29.631 66.117-66.117-29.631-66.117-66.117-66.117zM247.735 266.381c-54.627 0-99.175-44.548-99.175-99.175s44.548-99.175 99.175-99.175c54.627 0 99.175 44.548 99.175 99.175s-44.548 99.175-99.175 99.175zM247.735 101.090c-36.485 0-66.117 29.631-66.117 66.117s29.631 66.117 66.117 66.117c36.485 0 66.117-29.631 66.117-66.117s-29.631-66.117-66.117-66.117zM783.118 745.323h-72.97v16.529c0 36.485-29.631 66.117-66.117 66.117s-66.117-29.631-66.117-66.117v-16.529h-577.915v-594.646h115.502c-7.458 86.476 59.263 148.561 132.233 148.561 72.769 0 138.482-60.069 132.031-148.561h264.265c-4.233 89.902 59.263 148.561 132.031 148.561s140.296-62.488 132.031-148.561h115.906v353.764l-240.882 240.882zM743.206 712.265h26.205l221.531-221.531v-26.205h-247.735v247.735zM611.175 761.852c0 18.142 14.917 33.058 33.058 33.058s33.058-14.715 33.058-33.058v-16.529h-66.117v16.529zM991.143 183.735h-50.595c-8.265 83.25-78.816 148.561-164.283 148.561s-156.019-65.31-164.283-148.561h-199.761c-8.265 83.25-78.816 148.561-164.283 148.561s-156.019-65.31-164.283-148.561h-50.394v528.529h677.090v-280.794h280.794v-247.735zM512 646.148h-99.175c-27.414 0-49.587-22.173-49.587-49.587v-132.031c0-27.414 22.173-49.587 49.587-49.587h99.175c27.414 0 49.587 22.173 49.587 49.587v132.031c0 27.414-22.173 49.587-49.587 49.587zM528.529 464.529c0-9.071-7.458-16.529-16.529-16.529h-99.175c-9.071 0-16.529 7.458-16.529 16.529v132.031c0 9.071 7.458 16.529 16.529 16.529h99.175c9.071 0 16.529-7.458 16.529-16.529v-132.031zM214.677 547.175v65.915h-33.058v-65.915h-65.915v-33.058h65.915v-66.117h33.058v66.117h66.117v33.058z" />
<glyph unicode="&#xe936;" glyph-name="calendar-1" d="M891.793 860.744v99.155h-132.006v-99.155h-495.575v99.155h-132.207v-99.155h-132.006v-849.068l75.777-75.576h872.446l75.777 75.777v848.866h-132.207zM792.638 926.847h66.104v-132.006h-66.104v132.006zM165.057 926.847h66.104v-132.006h-66.104v132.006zM33.052 827.894h98.954v-66.104h132.006v66.104h495.373v-66.104h132.006v66.104h99.155v-99.155h-957.493v99.155zM990.747 25.582l-56.43-56.43h-844.835l-56.43 56.43v670.104h957.695v-670.104zM495.373 794.842h33.052v-33.052h-33.052v33.052zM561.477 794.842h33.052v-33.052h-33.052v33.052zM429.27 794.842h33.052v-33.052h-33.052v33.052zM313.79 629.583v-165.057h165.057v165.057h-165.057zM445.997 497.376h-99.155v99.155h99.155v-99.155zM544.951 629.583v-165.057h165.057v165.057h-165.057zM677.158 497.376h-99.155v99.155h99.155v-99.155zM776.112 629.583v-165.057h165.057v165.057h-165.057zM908.319 497.376h-99.155v99.155h99.155v-99.155zM82.629 414.948v-165.057h165.057v165.057h-165.057zM214.836 282.741h-99.155v99.155h99.155v-99.155zM313.79 414.948v-165.057h165.057v165.057h-165.057zM445.997 282.741h-99.155v99.155h99.155v-99.155zM544.951 414.948v-165.057h165.057v165.057h-165.057zM677.158 282.741h-99.155v99.155h99.155v-99.155zM776.112 414.948v-165.057h165.057v165.057h-165.057zM908.319 282.741h-99.155v99.155h99.155v-99.155zM82.629 200.313v-165.057h165.057v165.057h-165.057zM214.836 68.106h-99.155v99.155h99.155v-99.155zM313.79 200.313v-165.057h165.057v165.057h-165.057zM445.997 68.106h-99.155v99.155h99.155v-99.155zM544.951 200.313v-165.057h165.057v165.057h-165.057zM677.158 68.106h-99.155v99.155h99.155v-99.155z" />
<glyph unicode="&#xe937;" glyph-name="first-aid-kit-5" d="M752.479 778.381l-82.646 132.031h-315.666l-82.646-132.031h-271.521v-231.206h49.587v-561.587h924.825v561.587h49.587v231.206h-271.521zM372.51 877.354h278.98l61.883-99.175h-402.746l61.883 99.175zM941.556 18.646h-858.91v528.529h82.646v-82.646h165.090v82.646h363.439v-82.646h165.090v82.646h82.646v-528.529zM198.148 497.587v49.587h99.175v-49.587h-99.175zM726.677 497.587v49.587h99.175v-49.587h-99.175zM990.942 580.031h-957.883v165.090h957.883v-165.090zM578.117 348.825v99.175h-132.031v-99.175h-99.175v-132.031h99.175v-99.175h132.031v99.175h99.175v132.031h-99.175zM644.031 249.852h-99.175v-99.175h-66.117v99.175h-99.175v66.117h99.175v99.175h66.117v-99.175h99.175v-66.117zM495.471 679.206h33.058v-33.058h-33.058v33.058zM429.354 679.206h33.058v-33.058h-33.058v33.058zM561.587 679.206h33.058v-33.058h-33.058v33.058z" />
<glyph unicode="&#xe938;" glyph-name="crutch" d="M1000.43 30.207l-23.369-23.369-278.009 278.009c0 0 29.413 182.318-119.060 329.783l-261.087 260.885c9.468 9.468 14.505 21.959 14.505 35.053s-5.238 25.786-14.505 35.053c-18.735 18.735-51.573 18.735-70.308 0l-234.092-234.092c-19.34-19.34-19.34-50.968 0-70.308 25.988-25.988 61.041-11.483 70.308 0l261.087-261.087c77.359-77.359 198.031-133.364 329.783-119.060l278.009-278.009-23.369-23.369 23.369-23.369 70.308 70.308-23.57 23.57zM61.444 664.793c-6.245-6.245-17.325-6.245-23.57 0-6.447 6.447-6.447 16.922 0 23.369l234.293 234.293c9.67 9.066 20.347 3.223 23.369 0 3.223-3.022 8.864-12.49 0-23.369l-234.092-234.293zM108.182 664.793l187.354 187.354 187.354-187.354-187.354-187.354-187.354 187.354zM666.416 293.912c0 0-163.985-20.75-297.147 109.793l-50.163 50.163 187.354 187.354 50.163-50.163c135.378-142.832 109.793-297.147 109.793-297.147z" />
<glyph unicode="&#xe939;" glyph-name="blood-transfusion-2" d="M941.169 217.041v-0.202c-45.547 0-82.629-37.082-82.629-82.629v-115.48c0-27.409-22.169-49.578-49.578-49.578h-429.27c-27.409 0-49.578 22.169-49.578 49.578v33.052h49.578v66.104h99.155c82.025 0 148.531 66.708 148.531 148.531v462.322c0 82.025-66.708 148.531-148.531 148.531h-33.052v33.052c0 27.409-22.169 49.578-49.578 49.578h-165.057c-27.409 0-49.578-22.169-49.578-49.578v-33.052h-33.052c-81.823 0-148.531-66.507-148.531-148.531v-462.322c0-82.025 66.708-148.531 148.531-148.531h99.155v-66.104h49.578v-33.052c0-45.547 37.082-82.629 82.629-82.629h429.27c45.547 0 82.629 37.082 82.629 82.629v115.681c0 27.409 22.169 49.578 49.578 49.578h82.629v33.052h-82.831zM214.635 910.322c0 9.069 7.457 16.526 16.526 16.526h165.057c9.069 0 16.526-7.457 16.526-16.526v-33.052h-198.109v33.052zM148.531 150.937v-0.202c-63.685 0-115.681 51.795-115.681 115.681v33.052h49.779v33.052h-49.578v66.104h33.052v33.052h-33.052v66.104h49.578v32.85h-49.578v66.104h33.052v33.052h-33.052v66.104h49.578v33.052h-49.578c0 63.685 51.795 115.681 115.681 115.681h330.316c63.685 0 115.681-51.795 115.681-115.681v-462.322c0-63.685-51.795-115.681-115.681-115.681h-330.518zM280.738 84.632v33.052h66.104v-33.052h-66.104zM313.79 704.957c0 0-148.733-174.328-148.733-256.957 0-82.025 66.708-148.531 148.531-148.531s148.733 66.507 148.733 148.531c0 82.629-148.531 256.957-148.531 256.957zM313.79 332.319c-63.685 0-115.681 51.795-115.681 115.681 0 49.175 74.568 153.167 115.681 204.961 41.113-51.795 115.48-155.787 115.48-204.961 0-63.685-51.795-115.681-115.48-115.681zM330.316 464.526v49.578h-33.052v-49.578h-49.578v-33.052h49.578v-49.578h33.052v49.578h49.578v33.052z" />
<glyph unicode="&#xe93a;" glyph-name="ambulance-4" d="M495.471 737.058c7.055 60.069-37.090 99.175-82.646 99.175s-88.693-37.493-82.646-99.175h-49.587c-154.608 0-280.592-125.984-280.592-280.794v-280.794h116.712c8.265-65.109 63.698-115.704 131.024-115.704s122.759 50.595 131.024 115.704h266.482c8.265-65.109 63.698-115.704 131.024-115.704s122.759 50.595 131.024 115.704h116.712v561.587h-528.529zM412.825 803.175c37.291 0 54.022-33.058 49.587-66.117h-99.175c-5.039 43.339 22.375 66.117 49.587 66.117zM264.265 703.194v-213.871h-228.787c15.521 115.502 110.866 206.009 228.787 213.871zM247.735 92.825c-54.627 0-99.175 44.548-99.175 99.175s44.548 99.175 99.175 99.175c54.627 0 99.175-44.548 99.175-99.175s-44.548-99.175-99.175-99.175zM396.498 208.529h-17.739c-8.265 65.109-63.698 115.704-131.024 115.704s-122.759-50.595-131.024-115.704h-83.654v247.735h264.265v247.735h99.175v-495.471zM776.265 92.825c-54.627 0-99.175 44.548-99.175 99.175s44.548 99.175 99.175 99.175c54.627 0 99.175-44.548 99.175-99.175s-44.548-99.175-99.175-99.175zM990.942 208.529h-83.654c-8.265 65.109-63.698 115.704-131.024 115.704s-122.759-50.595-131.024-115.704h-215.887v148.561h561.587v-148.561zM990.942 390.148h-561.587v313.852h561.587v-313.852zM743.206 605.027v66.117h-99.175v-66.117h-66.117v-99.175h66.117v-66.117h99.175v66.117h66.117v99.175h-66.117zM776.466 538.91h-66.117v-66.117h-33.058v66.117h-66.117v33.058h66.117v66.117h33.058v-66.117h66.117v-33.058z" />
<glyph unicode="&#xe93b;" glyph-name="cardiogram-4" d="M923.817 557.858c12.699 156.624-117.518 280.794-263.055 280.794-53.417 0-104.617-15.924-148.561-46.161-44.145 30.236-95.143 46.161-148.561 46.161-145.739 0-273.537-120.139-263.055-280.794h-100.586v-33.058h108.044c54.425-178.595 403.956-467.452 403.956-467.452s346.709 285.027 403.956 467.452h108.044v33.058h-100.183zM512 100.485c-55.836 47.975-314.86 275.754-369.487 424.315h81.839l52.409 91.918 68.737-206.009 35.276 88.088 67.528-151.786 98.369 294.904 61.48-153.6 78.614 125.984 47.975-208.227 98.973 118.728h47.975c-54.828-148.561-313.852-376.34-369.688-424.315zM890.356 557.858h-72.365l-66.117-79.42-50.998 221.128-86.476-138.28-70.753 176.781-99.981-299.742-64.706 145.537-30.841-77.002-63.496 190.488-79.622-139.288h-71.357c-7.66 144.932 102.198 247.534 229.795 247.534 88.894 0 148.561-54.022 148.561-54.022s59.465 54.022 148.561 54.022c127.597 0 242.494-109.858 229.795-247.735z" />
<glyph unicode="&#xe93c;" glyph-name="nuclear-1" d="M511.691 610.031c-72.753 0-132.004-59.251-132.004-132.004s59.251-132.004 132.004-132.004c72.955 0 132.004 59.251 132.004 132.004s-59.251 132.004-132.004 132.004zM511.691 378.873c-54.817 0-99.154 44.337-99.154 99.154s44.539 99.154 99.154 99.154c54.615 0 99.154-44.337 99.154-99.154s-44.337-99.154-99.154-99.154zM753.529 929.661l-165.257-286.176c0 0 111.044-48.569 105.2-181.782h330.312c4.434 154.172-58.444 345.225-270.255 467.958zM725.92 494.553c-5.24 64.49-39.5 123.741-92.906 160.42l132.407 229.142c134.624-84.241 219.469-231.158 224.91-389.562h-264.41zM435.511 643.485l-165.257 286.176c-175.333-94.519-270.255-265.217-270.255-467.958h330.312c-6.852 133.616 105.2 181.782 105.2 181.782zM297.663 494.754h-264.41c5.643 158.404 90.286 305.12 225.112 389.562l132.205-229.142c-53.608-36.88-87.868-96.131-92.906-160.42zM616.891 329.498c-43.531-26.804-119.106-55.22-209.997 0l-165.257-286.176c0 0 111.246-76.985 270.053-76.985 161.629 0 270.255 76.985 270.456 76.985l-165.257 286.176zM286.781 55.615l132.407 229.142c57.84-27.811 127.368-27.811 185.208 0l132.205-229.142c-69.126-36.88-146.514-56.228-224.91-56.228s-155.785 19.347-224.91 56.228z" />
<glyph unicode="&#xe93d;" glyph-name="cardiogram-3" d="M690.394 880.479c-65.109 0-127.798-22.576-178.394-63.698-50.595 41.121-113.285 63.698-178.394 63.698-147.553 0.202-271.924-115.502-283.213-263.458l32.857-2.419c10.079 130.62 119.937 233.020 250.356 233.020 108.649 0 178.394-74.784 178.394-74.784s70.35 74.784 178.394 74.784c124.573 0 231.609-93.531 248.743-217.701l32.655 4.435c-19.351 140.296-140.296 246.123-281.398 246.123zM929.058 539.213c-64.907-167.71-357.191-428.145-417.058-480.353-58.054 50.595-334.413 296.718-410.608 464.63l-30.035-13.707c87.887-193.713 440.643-494.261 440.643-494.261s372.913 317.883 447.899 511.798l-30.841 11.893zM818.394 599.282l-120.34-135.257-101.997 221.128-147.15-261.644-129.209 339.049-161.865-179.805h-157.833v-33.058h172.548l135.458 150.576 135.055-354.57 149.972 266.885 96.151-208.227 144.126 161.865h190.69v33.058z" />
<glyph unicode="&#xe93e;" glyph-name="thermometer-2" d="M512 315.969c-82.041 0-148.561-66.721-148.561-148.561 0-82.041 66.721-148.561 148.561-148.561s148.561 66.721 148.561 148.561c0 81.839-66.52 148.561-148.561 148.561zM512 51.704c-63.698 0-115.704 51.805-115.704 115.704s51.805 115.704 115.704 115.704 115.704-51.805 115.704-115.704c0-63.899-52.006-115.704-115.704-115.704zM594.646 383.093v494.261c0 45.556-37.090 82.646-82.646 82.646s-82.646-37.090-82.646-82.646v-494.261c-89.499-34.066-148.561-119.332-148.561-215.887 0-127.597 103.811-231.206 231.206-231.206s231.206 103.811 231.206 231.206c0 96.554-59.263 181.82-148.561 215.887zM512-30.942c-109.254 0-198.148 88.894-198.148 198.148 0 154.406 148.561 192.302 148.561 192.302v517.846c0 27.414 22.173 49.587 49.587 49.587s49.587-22.173 49.587-49.587v-518.047c0 0 148.561-38.098 148.561-192.302 0-109.052-88.894-197.946-198.148-197.946zM627.704 943.471h82.646v-33.058h-82.646v33.058zM627.704 860.825h49.587v-33.058h-49.587v33.058zM627.704 778.381h82.646v-33.058h-82.646v33.058zM627.704 695.735h49.587v-33.058h-49.587v33.058zM627.704 613.090h82.646v-33.058h-82.646v33.058zM627.704 530.646h49.587v-33.058h-49.587v33.058zM627.704 448h82.646v-33.058h-82.646v33.058z" />
<glyph unicode="&#xe93f;" glyph-name="hospital-6" d="M710.148 613.090v49.587h-33.058v-49.587h-49.386v-33.058h49.386v-49.386h33.058v49.386h49.587v33.058zM990.942-30.942v528.529h-148.561v231.206h-297.323v-231.206h-115.704v462.413h-396.296v-990.942h-33.058v-33.058h1024v33.058h-33.058zM578.117 695.735h231.206v-198.148h-231.206v198.148zM396.498 497.587v-528.529h-330.381v957.883h330.381v-429.354zM693.619-30.942h-115.704v231.206h115.704v-231.206zM825.852-30.942h-99.175v231.206h99.175v-231.206zM957.883-30.942h-99.175v264.265h-313.65v-264.265h-115.704v495.471h528.529v-495.471zM478.942 414.942h33.058v-33.058h-33.058v33.058zM578.117 414.942h33.058v-33.058h-33.058v33.058zM677.090 414.942h33.058v-33.058h-33.058v33.058zM776.265 414.942h33.058v-33.058h-33.058v33.058zM875.439 414.942h33.058v-33.058h-33.058v33.058zM478.942 315.969h33.058v-33.058h-33.058v33.058zM578.117 315.969h33.058v-33.058h-33.058v33.058zM677.090 315.969h33.058v-33.058h-33.058v33.058zM776.265 315.969h33.058v-33.058h-33.058v33.058zM875.439 315.969h33.058v-33.058h-33.058v33.058zM165.090 860.825h132.031v-33.058h-132.031v33.058zM165.090 728.794h132.031v-33.058h-132.031v33.058zM165.090 596.561h132.031v-33.058h-132.031v33.058zM165.090 464.529h132.031v-33.058h-132.031v33.058zM165.090 332.296h132.031v-33.058h-132.031v33.058zM165.090 200.265h132.031v-33.058h-132.031v33.058zM165.090 68.233h132.031v-33.058h-132.031v33.058z" />
<glyph unicode="&#xe940;" glyph-name="hospital-bed" d="M891.969 365.354v-99.175h-33.058v66.117h-429.556v-66.117h-297.323v363.439h-132.031v-693.619h132.031v165.090h297.323v-99.175h429.354v99.175h33.058v-165.090h132.233v429.354h-132.031zM99.175-30.942h-66.117v627.502h66.117v-627.502zM429.354 134.148h-297.323v99.175h297.323v-99.175zM825.852 35.175h-363.439v264.265h363.439v-264.265zM891.969 134.148h-33.058v99.175h33.058v-99.175zM990.942-30.942h-66.117v363.238h66.117v-363.238zM693.619 960h-363.238v-363.439h363.439v363.439h-0.202zM660.762 629.619h-297.323v297.323h297.323v-297.323zM562.797 893.883v-90.91h-99.981v90.91h-49.991v-231.206h49.991v92.12h99.981v-92.12h48.378v231.206zM272.529 398.614h-66.117c-31.849 0-57.852-26.003-57.852-57.852 0-32.050 26.003-57.852 57.852-57.852h66.117c31.849 0 57.852 26.003 57.852 57.852s-26.003 57.852-57.852 57.852zM272.529 315.767h-66.117c-13.707 0-24.794 11.087-24.794 24.794s11.087 24.794 24.794 24.794h66.117c13.707 0 24.794-11.087 24.794-24.794s-11.087-24.794-24.794-24.794z" />
<glyph unicode="&#xe941;" glyph-name="cardiogram-2" d="M1024 159.043v693.619h-1024v-693.619h330.381v-16.529c-45.556 0-82.646-37.090-82.646-82.646v-16.529h528.529v16.529c0 45.556-37.090 82.646-82.646 82.646v16.529h330.381zM740.384 76.397h-456.769c6.854 19.15 25.197 33.058 46.765 33.058h33.058v49.587h297.323v-49.587h32.857c21.569 0 39.912-13.707 46.765-33.058zM33.058 192.101v627.704h957.883v-627.704h-957.883zM82.646 770.217v-528.529h858.709v528.529h-858.709zM908.296 274.746h-792.592v214.677h108.246l68.334 109.455 87.685-280.794 68.737 223.546 62.891-141.707 94.337 204.195 65.512-278.576 81.839 163.88h155.011v-214.677zM908.296 522.482h-175.37l-50.192-100.586-66.52 283.011-103.811-225.159-69.342 155.817-63.294-206.009-77.405 247.735-96.756-154.809h-89.902v214.677h792.592v-214.677z" />
<glyph unicode="&#xe942;" glyph-name="clinic-history-5" d="M99.175 514.117h528.529v-33.058h-528.529v33.058zM99.175 381.883h478.942v-33.058h-478.942v33.058zM99.175 249.852h330.381v-33.058h-330.381v33.058zM99.175 117.619h33.058v-33.058h-33.058v33.058zM165.090 117.619h33.058v-33.058h-33.058v33.058zM231.206 117.619h33.058v-33.058h-33.058v33.058zM1009.487 552.013l-46.765 46.765c-18.746 18.746-51.402 18.746-70.148 0l-165.896-165.896v527.118h-436.208l-290.469-290.469v-733.531h726.677v263.055l282.809 282.809c19.351 19.351 19.351 50.797 0 70.148zM280.794 903.559v-224.353h-224.353l224.353 224.353zM33.058-30.942v677.090h280.794v280.794h379.969v-527.32l-248.34-248.34-29.228-145.94 145.94 29.228 131.427 131.427v-196.939h-660.561zM470.677 109.757l49.789-49.789-62.287-12.498 12.498 62.287zM554.129 73.071l-70.148 70.148 326.954 326.954 70.148-70.148-326.954-326.954zM904.466 423.408l-70.148 70.148 23.383 23.383 70.148-70.148-23.383-23.383zM986.104 505.247l-35.074-35.074-70.148 70.148 35.074 35.074c6.249 6.249 17.134 6.249 23.383 0l46.765-46.765c6.45-6.45 6.45-16.932 0-23.383zM512 778.381v98.973h-33.058v-98.973h-98.973v-33.058h98.973v-99.175h33.058v99.175h99.175v33.058z" />
</font>
</defs>
</svg>
