<svg xmlns="http://www.w3.org/2000/svg" width="2500" height="2500" viewBox="0 0 192.756 192.756"><g fill-rule="evenodd" clip-rule="evenodd"><path d="M125.854 135.49v2.668h-.533c-.178-.533-.355-1.068-.711-1.424-1.422-1.6-3.734-1.6-5.867-1.244-.889.178-2.312.533-2.49 1.779 0 .355 0 .711.178.889 1.779 1.6 4.445 1.6 6.58 2.311 1.777.355 3.91 1.422 4.268 3.379.178 1.422-.18 2.666-1.068 3.557-1.777 1.244-3.732 1.6-5.867 1.6-1.955-.178-4.09-.533-5.867-1.066v-3.201l.711.178c.178.711.355 1.244.889 1.777 1.957 1.779 5.156 1.957 7.469 1.068.889-.355 1.777-1.424 1.777-2.49 0-.711-.711-1.422-1.422-1.6-2.49-.889-5.334-1.066-7.646-2.135-1.066-.711-2.133-1.777-2.133-3.199 0-1.066.711-2.135 1.777-2.846 2.843-1.423 7.111-1.067 9.955-.001zm19.558-.178v3.023h-.533c-.178-.711 0-1.957-1.422-1.957h-4.268c-.178 0-.355.178-.355.178v10.848c.178.178.355.533.711.711h1.955v.533l-.355.178-7.289-.178c-.178.178-.178 0-.178 0s0-.533.355-.355c.711-.178 1.955-.178 2.311-1.066v-10.67l-.178-.178c.178 0-2.844 0-4.268.178a.98.98 0 0 0-.889.533c-.711.713.178 1.424-.889 1.246l-.178-.178v-2.846h15.47zm-83.567.356v3.023h-.533c-.356-.711-.711-1.422-1.245-2.135-1.422-1.244-3.733-1.422-5.512-.889-2.134.355-3.912 2.312-4.623 4.268-.711 2.133-.178 4.623 1.423 6.223 1.778 2.135 4.979 2.49 7.467 1.602.534-.178 1.067-.533 1.245-1.068 0-1.244.355-2.666-.533-3.555-.534-.178-1.067-.178-1.423-.178v-.533h6.401v.533c-.711 0-1.601-.178-1.778.711v4.268c-3.912 1.244-9.423 1.777-13.157-.533-1.956-1.424-3.022-3.734-2.667-6.225.533-2.488 2.312-4.801 4.801-5.689 3.022-1.245 7.111-.889 10.134.177zm118.772 1.957c.355.889 0 1.955-.711 2.844s-1.957 1.422-3.023 1.6v.18c2.135 1.422 3.734 3.377 5.512 5.156.533.533 1.068.889 1.779.889.178 0 0 .355 0 .533h-3.557c-2.133-1.422-3.557-3.734-5.334-5.689-.889-.889-2.133-.711-3.379-.889v.178l-.178 4.979c.355 1.066 1.424.533 2.135.711.178.178.178.355.178.533l-.178.178h-6.225c-.178-.178-.533 0-.533-.355 0 0 0-.178.178-.355.535-.178 1.424.355 1.779-.355l.178-1.424v-9.602c0-.355-.355-.711-.533-.711-.533-.178-1.068-.178-1.602-.178-.178-.178-.178-.355-.178-.355l.178-.178h10.312c1.247-.003 2.669.886 3.202 2.31zm-8.535-1.602s-.178-.178-.178 0v5.512c2.135 0 4.445.178 5.867-1.6.357-.533.357-1.777 0-2.488-1.244-1.779-3.554-1.424-5.689-1.424zm-96.724-.711v.533c-.889 0-2.312-.178-2.312 1.244v10.492s.178.178.355.178h5.69c1.6 0 1.956-1.424 2.133-2.135h.711v3.023H68.424v-.533c.711 0 2.134-.178 2.134-1.068v-9.957c0-1.244-1.245-1.244-2.134-1.244v-.533h6.934zm-53.874 2.491h-.534c-.177-.178-.355-1.602-2.489-1.779h-5.334s-.178 0-.178.178v4.623c0 .178.178.178.178.178h5.157c.533 0 1.066-.355 1.066-1.422h.534v3.734h-.534c-.178-1.602-1.245-1.424-1.245-1.424h-4.979s-.178 0-.178.178v5.514l.178.178h5.69c1.6 0 2.312-1.246 2.312-1.957h.711v2.846H8.504v-.533c.889 0 1.956 0 1.956-1.068v-10.312c-.178-.533-.711-.889-1.956-.889v-.533h12.979v2.488h.001zm77.7 0h-.534c-.178-.178-.355-1.602-2.49-1.779h-5.334s-.178 0-.178.178v4.623c0 .178.178.178.178.178h5.156c.534 0 1.068-.355 1.068-1.422h.533v3.734h-.533c-.178-1.602-1.246-1.424-1.246-1.424h-4.979c-.178 0-.178 0-.178.178v5.514c0 .178.178.178.178.178h5.69c1.601 0 2.312-1.246 2.312-1.957h.711v2.846H86.026v-.533c1.067 0 1.956 0 1.956-1.068v-10.312c0-.533-.533-.889-1.778-.889v-.533h12.98v2.488zm-57.608 9.066c.533 1.068 1.245 1.246 2.489 1.424v.355H37.13v-.355c.711 0 2.312-.178 1.956-1.066l-1.601-3.023h-6.579l-1.6 3.379c-.355.533 1.067.711 1.778.711v.355h-5.867v-.355c.711 0 1.245-.178 1.778-.533.889-.713 1.245-1.602 1.778-2.312l6.223-11.023 6.58 12.443zm-10.135-3.555h5.512s.178 0 0-.178l-2.489-5.334c0-.178-.178-.178-.178 0l-2.845 5.334v.178zm130.684 3.555c.535 1.068 1.246 1.246 2.49 1.424v.355h-6.934v-.355c.711 0 2.311-.178 1.955-1.066l-1.6-3.023h-6.58l-1.6 3.379c-.355.533.889.711 1.6.711v.355h-5.689v-.355c.533 0 1.244-.178 1.779-.533.711-.713 1.244-1.602 1.777-2.312l6.223-11.023 6.579 12.443zm-10.135-3.555h5.514v-.178l-2.49-5.334c-.178-.178-.178-.178-.178 0l-2.846 5.334c-.178.178-.178.178 0 .178z" fill="#2a5187"/><path d="M72.158 127.312l2.134-8.002s3.2-2.666 4.267-3.557a160.205 160.205 0 0 0 3.2-5.689c.178-.711 1.067-1.777 1.422-2.133-1.6.711-3.556.355-3.733-.711-2.134.355-3.201-.533-3.201-1.068-2.845-.355-2.667-1.422-2.489-1.777-2.134-.711-2.134-3.379-.534-4.09 3.378-1.6 14.58-5.689 17.603-8.534-1.244-.533-1.956-.889-1.956-1.778-1.245-.533-2.667-.889-3.378-2.667-4.801-1.956-3.734-2.845-3.734-2.845-2.133-1.067-3.734-2.134-3.734-3.556-2.311-1.422-4.089-2.845-3.733-4.267-3.378-1.778-3.022-3.201-2.845-3.912-1.245-.711-2.134-1.778-2.134-2.667-2.312-1.067-7.112-3.912-5.868-5.868-2.489-1.6-4.801-3.2-5.157-5.689-.177-.711.712-.356.712-.356-1.245-1.245-3.912-3.378-3.378-5.512.533-.355 1.067-.355 1.6-.178 0 0-3.378-2.667-2.845-6.401.355-1.6 2.845.178 2.845.178-1.6-2.133-1.778-5.689 0-6.223 1.066-.178 1.956.889 2.667 2.489-1.067-1.956.178-3.911.889-4.089.711-.178 1.245-.178 1.422.178 2.489 4.267 5.334 8.001 9.246 11.557 5.511 4.979 12.09 8.535 17.78 11.202 4.979 2.312 8.535 6.935 10.312 12.446.711 1.778 2.135 5.156 2.49 4.979.355-.356-.713-1.956 1.066-3.201-.355-.711-.355-1.422.533-2.312.711-.355.355-.889.533-1.6-.178-1.067 1.066-.534.889-1.778 0-.889.711-1.423 1.244-1.778-.178-1.066.357-1.956 1.424-2.311-.178-1.067.178-1.956 1.066-2.489.533.178.355-1.245.533-1.6.178-.711 1.6-1.245 1.6-1.245.355-1.6.891-2.667 1.779-3.378 1.422 0 .889-1.422 1.422-2.312.355-.711 1.422-1.778 2.49-1.956.711-1.778 1.066-2.312 2.311-2.845.355-.178.711 0 1.066.178.889-1.066 1.777-2.667 3.379-2.489.533.356.711 1.067.711 1.778.533-.355 1.244-.533 1.422.178.355 1.245-.533 2.312-.889 3.378-1.955 4.089-4.268 8.712-5.512 13.157-2.488 4.267-4.268 7.112-6.045 11.735 2.133-.178 4.801-.355 6.045.533.711.89 1.6.711 2.133 1.423.711.889.178 3.2-.178 3.912-2.133-1.422-4.623-.356-6.223 1.422-1.6 2.134-1.777 5.334-3.912 8.001-1.066 1.423-1.955 2.489-3.91 4.09-.891 1.244-1.779 2.488-1.246 4.268.178 1.244.533 2.488.891 4.088 2.666.891 3.199 1.246 4.088 2.846 0 .889.355 2.488-.711 3.023l.711 2.844.533 1.777c.713 1.246 1.779 1.779 2.49 3.023l2.846 8.18H72.158z" fill="#fff"/><path d="M92.605 88.55c.533.356 1.067.711 1.422 1.067-1.067 0-3.556-.178-3.556-.356-1.6-.355-2.667-.711-3.2-1.245-.178-.178-.534-.533-.534-.711.712.712 3.379 1.068 5.868 1.245zM80.159 76.638c.355.533 1.422 1.422 1.422 1.422-2.311-.533-4.979-1.422-4.979-1.6-1.067-.534-3.378-1.245-3.912-3.201 1.246 1.423 5.157 3.023 7.469 3.379zm-4.801-9.779s0 .711.178 1.6c-2.489-.533-6.934-2.667-6.756-2.845-2.845-1.422-8.357-4.445-8.89-6.579 2.488 2.845 9.601 5.868 15.468 7.824zm-2.134-6.046c.178.533.534 1.245.889 1.778-5.868-2.312-10.49-5.689-10.49-5.867-4.267-2.845-7.29-6.045-7.823-9.068.889 1.956 7.467 8.357 17.424 13.157zm-.178-2.667v1.422c-4.267-2.134-9.423-6.756-9.246-6.935-2.845-2.667-7.467-8.001-6.579-11.023.713 6.224 11.025 13.869 15.825 16.536z" fill="#a3ceeb"/><path d="M74.292 55.835s-.534.711-.89 1.067c-3.733-2.134-8.356-6.935-8.179-7.29-2.134-2.312-5.156-7.29-4.089-9.423-.356 1.955 3.378 9.067 13.158 15.646zm1.6 8.535c-.178.355-.356.533-.356 1.244-1.6-.355-10.135-4.089-10.135-4.445-5.156-2.845-8.356-6.045-8.534-7.467 3.911 4.622 11.912 8.534 19.025 10.668zM95.45 90.684c.178.178.889.711 1.245 1.067-1.6-.178-2.845-.178-2.845-.355 0 0-1.6-.178-3.023-.889-.178-.178-.889-.533-.889-.711 1.244.888 3.912.71 5.512.888zm-5.69-4.622l1.422 1.245s-3.378-.356-3.733-.533c-3.556-.711-4.445-2.312-4.445-2.489.355.71 2.844 1.599 6.756 1.777zm-3.2-2.846c.534.534 1.067.889 1.6 1.423-1.422-.178-4.267-.711-4.267-.711-1.6-.534-3.912-1.6-4.623-3.022.533.888 4.623 1.955 7.29 2.31zm-8.713-9.779c.178.356.533.711.889 1.423-2.312-.533-5.156-1.956-5.156-1.956-1.067-.711-3.022-2.312-3.022-3.022.177.889 3.378 2.489 7.289 3.555zm-1.778-3.556c.178.533.355.889.533 1.422-1.778-.178-5.333-1.422-5.333-1.6-2.845-1.422-6.401-3.378-6.757-4.979.711 1.423 4.979 3.557 11.557 5.157zm6.934 31.471c-2.845 2.49-5.334 3.557-5.512 3.379 0 0-1.245.533-2.134 0-.178-.178-.355-.355-.355-.533.711.533 3.556-.355 7.112-3.379.356.177.534.355.889.533zm-1.422-1.067c-4.089 2.846-6.045 3.201-6.045 3.023 0 0-.889.355-1.778-.178 0-.178-.178-.355-.356-.711.534.355 2.667.178 7.646-2.846-.001.179.355.534.533.712zm2.845 1.779c-1.956 2.488-3.379 3.377-3.556 3.377 0 0-1.6 1.246-3.201.355.889.355 4.445-2.488 6.045-4.088.179.179.535.356.712.356zm1.956.356c-1.422 2.311-2.667 3.555-2.845 3.555 0 0-.534.891-1.601 1.068-.355.178-1.066 0-1.245-.355.889.178 3.023-1.957 4.801-4.445.534-.001.712.177.89.177zm2.134.178c-.889 1.777-2.667 4.09-2.845 4.09-.533.355-.711.355-1.422.355-.178 0-.534-.178-.534-.178.534.533 3.2-3.023 3.912-4.268h.889v.001zm19.38 6.222l2.133 8.18c.889 1.066 2.135 1.777 2.668 3.021l2.311 6.223h-4.268l.355-1.6-.889-.889.711-.533-.533-2.668-2.666-.889-.533-1.955.711-.533-.711-3.023-3.379-1.066-.711-4.09 2.133-1.422c1.067.356 1.78.711 2.668 1.244zm-5.867 16.713l-1.068.711h-3.732l2.843-1.955 1.957 1.244zm-6.757-10.845l-.889 1.244 1.955 1.424-3.2 4.088c0 .357 0 .357.356.18l1.245-1.424.533.533-2.312 3.023 1.6 2.488h-9.068l-.533-1.6 3.556-3.201-2.845-1.244 2.667-.889h-.177l6.757-4.801.355.179zm-7.468-3.913l-.889 1.424h-2.311l-.889 5.689-1.778.889v3.379l-4.089.355v.711c.178 0 1.423.889 1.423.889l-1.067 2.133h-4.445l.178-.889s.889-3.732 1.6-5.512c1.067-1.066 2.667-1.955 3.912-3.021l3.911-7.291.356-.355c.889-.355 1.956-.355 2.845-.711l.711.533.532 1.777zm-4.445-30.759a5.44 5.44 0 0 0 1.423 1.423s-4.445-.89-4.445-1.067c-2.489-.711-4.623-2.489-4.801-3.2.533.71 3.556 1.955 7.823 2.844z" fill="#a3ceeb"/><path d="M122.832 49.256c.178.178-.713 1.6-1.068 2.312-.533 1.245-1.066 2.489-1.244 3.911 1.066-1.422 1.779-3.2 3.379-4.623 0-.178.178-.356.355-.178.178.178.178.355 0 .533-2.312 4.623-4.979 9.423-6.223 14.58-1.422 2.489-3.023 4.8-4.09 7.29a86.762 86.762 0 0 0-2.488 6.045c-1.068.534-2.135.889-3.201 1.422a33.298 33.298 0 0 0-3.379 1.956c-.355.178-.711-.355-.889-.534-.711-.533-1.244-1.422-1.066-2.311.178-.534.711-.534.533-1.067a2.464 2.464 0 0 1 0-1.6c.355-.533 1.066-.355.889-.889s-.178-1.422.178-1.956c.355-.355.533-.355.711-.533 0-.534-.533-2.312.889-2.312 0-.711 0-1.422.535-1.956.355-.356.355-.356.711-.534 0-.711 0-1.6.533-1.956.355-.178.533-.178.889-.178-.178-.889-.178-1.778.533-2.312.355-.178.533-.178.889-.178 0-.889 0-2.489.711-2.489.355-.178.713 0 .891 0 .178-.356.178-1.245.355-1.601.178-.533.533-1.6 1.066-1.6.355 0 .533.178.533.711 0 .355 0 .711.178.889.355-1.422.533-3.2 1.244-4.445.355-.711.711-1.245 1.066-1.067.178.178 0 .355 0 .711-.178.711-.533 1.601-.355 2.667.178-.711.533-1.6.713-2.312.531-1.245 1.066-2.667 1.955-3.734.178-.178.355-.355.533-.355.178.178.178.355 0 .533-.355 1.423-.889 2.667-1.066 4.268 0 0 2.311-4.979 4.268-7.112.177-.173.532-.173.532.004zm-4.268 30.582c0 .178.178.355 0 .533s-.355.178-.533.356c.178-.356.178-1.067-.355-1.422 0 0 .533 0 .888.533zm1.956 2.667c-.178-.534-.355-.534-.711-.711.355-.534.355-1.423 0-1.601 1.066.179.888 1.779.711 2.312zm-29.693 28.983l-2.667 7.822-2.312.889 2.845 1.244-3.734 3.379.533 1.422h-7.468l1.067-2.133s-1.067-.711-1.245-.889v-.711l3.912-.533.178-3.201 1.778-.889.889-5.689 2.311-.178.889-1.246-.533-1.777 3.557 2.49z" fill="#2a5187"/><path d="M62.023 40.544c4.268 8.179 12.802 14.757 20.447 19.025 7.29 3.556 9.423 3.556 13.513 9.779 2.312 3.378 2.845 7.468 5.513 10.846 1.422 1.956 3.377 3.556 5.512 4.623.889.355-.533 1.245-.355 2.312l.355.178c2.488-2.667 5.334-4.445 8.533-5.156.355-.178.533-.533.711-.711.178-.356 0-.711-.355-.89-.355.178-.889 0-1.066-.355-.355 0-1.422.178-1.422-.178-.178-.178.355-.178.533-.178 1.066-.178 2.311-.178 3.379.178 0 .178.178.178.178.178-.357.178-.889.178-.713.355.713.534.18 1.067.355 1.245.18.177 1.246-.178 2.135.177 0 0 0 .178-.178.178-2.668.178-5.689 1.778-6.4 4.445-.711 3.734-2.846 7.112-6.045 9.601-1.424 1.424-2.846 2.846-2.312 4.979l1.066 4.801-.178.178c.355.535 1.066.535 1.779.713.711.355 1.6.533 2.311 1.422.178.355 0 .533 0 .711.178.533.533 1.244 0 1.777-.178.178-.533.178-.711.355-.178-.178.178-.178.355-.889 0-.355 0-.355-.178-.533s-.711 0-.889-.889c-.889-.355-1.779-.711-2.668-1.244l-1.955 1.422.533 4.09 3.379 1.066.711 3.023-.533.533.355 1.955 2.666.889.533 2.668-.711.533.889.889-.355 1.6h-9.779l1.068-.711-1.957-1.066-2.844 1.777H94.56l-1.6-2.488 2.312-3.023-.533-.355-1.245 1.246c-.356.178-.534 0-.356-.18l3.022-4.088-1.777-1.424.889-1.244 6.224 4.623-2.49-7.822c3.379-2.312 1.6-1.957 2.668-2.846.533-.711 1.066-.711 1.777-1.244.178-.178.533-.533.178-.711h-6.223l-2.49-7.646-2.489 7.646H85.67c.533-.357 2.134-2.668 2.845-4.09h-.711c-1.067 1.244-1.956 2.844-3.378 4.09-.178.178-.534.355-.711.178-.534-.355-.178-.891-.178-.891 1.067-.889 1.956-2.133 2.845-3.555l-.711-.178c-1.244 1.6-2.667 3.199-4.089 4.268-.534.178-.711.178-.889.178-.711-1.068.533-1.246 1.601-2.312.711-.711 1.6-1.422 2.134-2.311-.356 0-.711-.178-.711-.178-1.6 1.422-3.378 2.844-4.979 3.732-1.6.891-1.778-.533-1.245-.889 1.956-.711 3.733-1.955 5.334-3.379a2.464 2.464 0 0 1-.711-.533c-1.601 1.424-3.023 2.49-4.979 3.201-.711.355-1.956.533-2.134.178 0-.178-.178-.711.355-.711 2.312-.711 3.912-1.6 6.045-3.201l-.533-.533c-1.956 1.066-5.69 3.379-7.29 2.846-.534-1.246.711-1.602.711-1.602 6.756-2.488 13.513-5.333 19.558-9.601.711.178 1.956.178 2.667.178 0 0-.889-.533-1.245-.889-1.422 0-4.09 0-5.156-.711-.178 0-.178-.178 0-.355 0-.356.355-.534.533-.356.711.178 3.378.356 3.378.356-.533-.356-1.067-.711-1.422-1.067-1.778 0-4.445-.355-5.512-.889-.178-.178-.356-.355-.356-.533.356-.534.711-.534.889-.355 1.601.355 3.556.533 3.556.533-.711-.533-1.066-.711-1.422-1.245-1.956 0-4.623-.355-6.401-1.422a.382.382 0 0 1-.355-.355c0-.534.534-.534.889-.356.889.178 3.556.534 4.089.534-.533-.356-.711-.534-1.422-1.245-.711 0-7.29-1.245-7.29-2.489.355-.534.533-.534.889-.356 1.245.356 4.445 1.067 4.445 1.067-.355-.356-.889-.89-1.245-1.423-2.667-.355-8.179-1.956-7.823-3.2.178-.178.534-.534 1.067-.355.355.355 4.268 1.422 4.801 1.6-.356-.533-1.245-1.422-1.245-1.422-3.378-.534-7.112-2.49-7.468-3.379-.178-.889 1.245-.178 1.245-.178 1.422.534 3.201 1.423 4.801 1.601-.356-.355-.889-1.245-.889-1.245-3.2-.711-7.646-2.667-7.29-3.733.178-.355.711-.178 1.066 0 1.422.711 3.201 1.245 4.979 1.422 0 0-.533-.889-.533-1.067-3.912-1.067-11.557-3.734-11.557-5.689.178-.711 2.489.889 3.556 1.244h.711a38.523 38.523 0 0 0 6.756 2.845l-.178-1.6s-11.913-3.734-15.469-7.646c0-.178 0-.355.178-.355 1.245.177 2.134 1.066 3.2 1.422.711.355 1.423.889 2.134.889 3.201 1.778 9.957 4.445 9.957 4.445.178-.889.356-1.244.356-1.244-10.135-3.201-15.469-6.757-18.847-10.668 0-.178.178-.711 1.778.533 1.422 1.066 3.023 1.778 4.445 2.489.178.178.356.178.534 0a48.849 48.849 0 0 0 10.312 5.689l-.711-1.422C65.223 57.26 54.555 48.904 55.8 46.948c.178-.178.355 0 .889.355 2.133 2.312 4.267 4.09 6.578 5.512.356 0 .356-.178.534-.178 3.023 2.845 5.69 4.801 9.246 6.757v-1.245c-6.4-3.556-15.646-11.024-15.824-16.536.178-.356.533-.178.711 0 .533.711 1.066 1.6 1.6 2.489 1.422 2.133 5.156 5.512 5.334 5.512.178.178.355 0 .355 0 2.489 2.845 5.156 5.334 8.179 7.29.356-.711.711-1.067.711-1.067-4.8-3.022-13.513-11.379-12.979-15.646.178-.714.711-.003.889.353z" fill="#2a5187"/></g></svg>